<svg width="503" height="119" viewBox="0 0 503 119" fill="none" xmlns="http://www.w3.org/2000/svg">
<path d="M3.312 73.2H13.68V118H3.312V73.2ZM65.4 73.2V118H56.888L34.552 90.8V118H24.312V73.2H32.888L55.16 100.4V73.2H65.4ZM85.2795 81.648H70.9435V73.2H109.984V81.648H95.6475V118H85.2795V81.648ZM150.25 109.68V118H115.562V73.2H149.418V81.52H125.866V91.248H146.666V99.312H125.866V109.68H150.25ZM187.044 118L178.404 105.52H177.892H168.868V118H158.5V73.2H177.892C181.86 73.2 185.294 73.8613 188.196 75.184C191.14 76.5067 193.401 78.384 194.98 80.816C196.558 83.248 197.348 86.128 197.348 89.456C197.348 92.784 196.537 95.664 194.916 98.096C193.337 100.485 191.076 102.32 188.132 103.6L198.18 118H187.044ZM186.852 89.456C186.852 86.9387 186.041 85.0187 184.42 83.696C182.798 82.3307 180.43 81.648 177.316 81.648H168.868V97.264H177.316C180.43 97.264 182.798 96.5813 184.42 95.216C186.041 93.8507 186.852 91.9307 186.852 89.456ZM248.634 73.2L229.242 118H219.002L199.674 73.2H210.874L224.506 105.2L238.33 73.2H248.634ZM287.062 109.68V118H252.375V73.2H286.231V81.52H262.679V91.248H283.479V99.312H262.679V109.68H287.062ZM336.4 73.2V118H327.888L305.552 90.8V118H295.312V73.2H303.888L326.16 100.4V73.2H336.4ZM356.28 81.648H341.944V73.2H380.984V81.648H366.648V118H356.28V81.648ZM386.562 73.2H396.93V118H386.562V73.2ZM429.258 118.768C424.607 118.768 420.405 117.765 416.65 115.76C412.938 113.755 410.015 111.003 407.882 107.504C405.791 103.963 404.746 99.9947 404.746 95.6C404.746 91.2053 405.791 87.2587 407.882 83.76C410.015 80.2187 412.938 77.4453 416.65 75.44C420.405 73.4347 424.607 72.432 429.258 72.432C433.909 72.432 438.09 73.4347 441.802 75.44C445.514 77.4453 448.437 80.2187 450.57 83.76C452.703 87.2587 453.77 91.2053 453.77 95.6C453.77 99.9947 452.703 103.963 450.57 107.504C448.437 111.003 445.514 113.755 441.802 115.76C438.09 117.765 433.909 118.768 429.258 118.768ZM429.258 109.936C431.903 109.936 434.293 109.339 436.426 108.144C438.559 106.907 440.223 105.2 441.418 103.024C442.655 100.848 443.274 98.3733 443.274 95.6C443.274 92.8267 442.655 90.352 441.418 88.176C440.223 86 438.559 84.3147 436.426 83.12C434.293 81.8827 431.903 81.264 429.258 81.264C426.613 81.264 424.223 81.8827 422.09 83.12C419.957 84.3147 418.271 86 417.034 88.176C415.839 90.352 415.242 92.8267 415.242 95.6C415.242 98.3733 415.839 100.848 417.034 103.024C418.271 105.2 419.957 106.907 422.09 108.144C424.223 109.339 426.613 109.936 429.258 109.936ZM502.65 73.2V118H494.138L471.802 90.8V118H461.562V73.2H470.138L492.41 100.4V73.2H502.65Z" fill="white"/>
<path d="M33.584 22.896V21.896H32.584V22.896H33.584ZM43.056 22.896H44.056V21.896H43.056V22.896ZM43.056 41.072L43.6582 41.8703L44.056 41.5703V41.072H43.056ZM34.608 45.296L34.9012 46.2521L34.608 45.296ZM12.4 43.824L11.9247 44.7039L11.9326 44.708L12.4 43.824ZM3.632 35.568L2.77087 36.0764L2.77449 36.0825L2.7782 36.0886L3.632 35.568ZM3.632 11.696L2.77541 11.18L2.77359 11.183L3.632 11.696ZM12.464 3.44L12.9273 4.32626L12.9351 4.32207L12.464 3.44ZM35.824 2.416L36.206 1.49183L35.824 2.416ZM43.888 8.176L44.5663 8.9108L45.2775 8.2543L44.6445 7.52205L43.888 8.176ZM37.232 14.32L36.5068 15.0085L37.1857 15.7236L37.9103 15.0548L37.232 14.32ZM18.032 11.056L18.5061 11.9365L18.032 11.056ZM12.848 16.112L13.7173 16.6063L12.848 16.112ZM12.848 31.024L11.9787 31.5183L12.848 31.024ZM17.968 36.144L17.4737 37.0133L17.4837 37.019L17.4939 37.0245L17.968 36.144ZM33.584 36.016L34.0562 36.8975L34.584 36.6147V36.016H33.584ZM33.584 23.896H43.056V21.896H33.584V23.896ZM42.056 22.896V41.072H44.056V22.896H42.056ZM42.4538 40.2737C40.1235 42.0316 37.4144 43.3894 34.3148 44.3399L34.9012 46.2521C38.2016 45.2399 41.1245 43.7818 43.6582 41.8703L42.4538 40.2737ZM34.3148 44.3399C31.2067 45.2931 28.0841 45.768 24.944 45.768V47.768C28.2892 47.768 31.6093 47.2616 34.9012 46.2521L34.3148 44.3399ZM24.944 45.768C20.4384 45.768 16.4204 44.8186 12.8674 42.94L11.9326 44.708C15.8036 46.7548 20.1482 47.768 24.944 47.768V45.768ZM12.8753 42.9442C9.31421 41.0204 6.52417 38.3903 4.4858 35.0474L2.7782 36.0886C5.0065 39.743 8.06179 42.617 11.9247 44.7038L12.8753 42.9442ZM4.49313 35.0596C2.50053 31.6844 1.496 27.8731 1.496 23.6H-0.504C-0.504 28.2015 0.582132 32.3689 2.77087 36.0764L4.49313 35.0596ZM1.496 23.6C1.496 19.3267 2.50055 15.5389 4.49042 12.209L2.77359 11.183C0.582119 14.8504 -0.504 18.9986 -0.504 23.6H1.496ZM4.48858 12.212C6.52481 8.83187 9.33094 6.20612 12.9273 4.32622L12.0007 2.55377C8.08773 4.59921 5.00586 7.47746 2.77542 11.18L4.48858 12.212ZM12.9351 4.32207C16.5304 2.40188 20.5898 1.432 25.136 1.432V-0.568001C20.2955 -0.568001 15.907 0.467453 11.9929 2.55792L12.9351 4.32207ZM25.136 1.432C28.9477 1.432 32.3783 2.07382 35.442 3.34016L36.206 1.49183C32.8697 0.112844 29.175 -0.568001 25.136 -0.568001V1.432ZM35.442 3.34016C38.5038 4.60571 41.0617 6.43553 43.1315 8.82995L44.6445 7.52205C42.3623 4.8818 39.5442 2.87161 36.206 1.49183L35.442 3.34016ZM43.2097 7.44119L36.5537 13.5852L37.9103 15.0548L44.5663 8.9108L43.2097 7.44119ZM37.9572 13.6315C34.5743 10.0682 30.4533 8.264 25.648 8.264V10.264C29.888 10.264 33.4897 11.8305 36.5068 15.0085L37.9572 13.6315ZM25.648 8.264C22.6464 8.264 19.9409 8.89238 17.5579 10.1755L18.5061 11.9365C20.5604 10.8303 22.9323 10.264 25.648 10.264V8.264ZM17.5579 10.1755C15.175 11.4586 13.3095 13.2773 11.9787 15.6177L13.7173 16.6063C14.8611 14.5947 16.4517 13.0427 18.5061 11.9365L17.5579 10.1755ZM11.9787 15.6177C10.6454 17.9624 9.992 20.6328 9.992 23.6H11.992C11.992 20.9352 12.5759 18.6136 13.7173 16.6063L11.9787 15.6177ZM9.992 23.6C9.992 26.5275 10.6467 29.1758 11.9787 31.5183L13.7173 30.5297C12.5746 28.5202 11.992 26.2192 11.992 23.6H9.992ZM11.9787 31.5183C13.305 33.8508 15.1412 35.687 17.4737 37.0133L18.4623 35.2747C16.4428 34.1263 14.8657 32.5492 13.7173 30.5297L11.9787 31.5183ZM17.4939 37.0245C19.8747 38.3065 22.5583 38.936 25.52 38.936V36.936C22.8497 36.936 20.4986 36.3709 18.4421 35.2635L17.4939 37.0245ZM25.52 38.936C28.6543 38.936 31.5073 38.263 34.0562 36.8975L33.1118 35.1345C30.8821 36.329 28.359 36.936 25.52 36.936V38.936ZM34.584 36.016V22.896H32.584V36.016H34.584ZM87.375 37.68H88.375V36.68H87.375V37.68ZM87.375 46V47H88.375V46H87.375ZM52.687 46H51.687V47H52.687V46ZM52.687 1.2V0.199997H51.687V1.2H52.687ZM86.543 1.2H87.543V0.199997H86.543V1.2ZM86.543 9.52V10.52H87.543V9.52H86.543ZM62.991 9.52V8.52H61.991V9.52H62.991ZM62.991 19.248H61.991V20.248H62.991V19.248ZM83.791 19.248H84.791V18.248H83.791V19.248ZM83.791 27.312V28.312H84.791V27.312H83.791ZM62.991 27.312V26.312H61.991V27.312H62.991ZM62.991 37.68H61.991V38.68H62.991V37.68ZM86.375 37.68V46H88.375V37.68H86.375ZM87.375 45H52.687V47H87.375V45ZM53.687 46V1.2H51.687V46H53.687ZM52.687 2.2H86.543V0.199997H52.687V2.2ZM85.543 1.2V9.52H87.543V1.2H85.543ZM86.543 8.52H62.991V10.52H86.543V8.52ZM61.991 9.52V19.248H63.991V9.52H61.991ZM62.991 20.248H83.791V18.248H62.991V20.248ZM82.791 19.248V27.312H84.791V19.248H82.791ZM83.791 26.312H62.991V28.312H83.791V26.312ZM61.991 27.312V37.68H63.991V27.312H61.991ZM62.991 38.68H87.375V36.68H62.991V38.68ZM104.905 9.648H105.905V8.648H104.905V9.648ZM90.5685 9.648H89.5685V10.648H90.5685V9.648ZM90.5685 1.2V0.199997H89.5685V1.2H90.5685ZM129.609 1.2H130.609V0.199997H129.609V1.2ZM129.609 9.648V10.648H130.609V9.648H129.609ZM115.272 9.648V8.648H114.272V9.648H115.272ZM115.272 46V47H116.272V46H115.272ZM104.905 46H103.905V47H104.905V46ZM104.905 8.648H90.5685V10.648H104.905V8.648ZM91.5685 9.648V1.2H89.5685V9.648H91.5685ZM90.5685 2.2H129.609V0.199997H90.5685V2.2ZM128.609 1.2V9.648H130.609V1.2H128.609ZM129.609 8.648H115.272V10.648H129.609V8.648ZM114.272 9.648V46H116.272V9.648H114.272ZM115.272 45H104.905V47H115.272V45ZM105.905 46V9.648H103.905V46H105.905ZM182.816 36.4L183.74 36.018L183.485 35.4H182.816V36.4ZM162.016 36.4V35.4H161.347L161.092 36.018L162.016 36.4ZM158.048 46V47H158.717L158.972 46.382L158.048 46ZM147.424 46L146.511 45.5929L145.883 47H147.424V46ZM167.392 1.2V0.199997H166.743L166.479 0.792891L167.392 1.2ZM177.632 1.2L178.545 0.791802L178.28 0.199997H177.632V1.2ZM197.664 46V47H199.207L198.577 45.5918L197.664 46ZM186.784 46L185.86 46.382L186.115 47H186.784V46ZM179.552 28.528V29.528H181.049L180.476 28.1453L179.552 28.528ZM172.448 11.376L173.372 10.9933L172.448 8.76269L171.524 10.9933L172.448 11.376ZM165.344 28.528L164.42 28.1453L163.847 29.528H165.344V28.528ZM182.816 35.4H162.016V37.4H182.816V35.4ZM161.092 36.018L157.124 45.618L158.972 46.382L162.94 36.782L161.092 36.018ZM158.048 45H147.424V47H158.048V45ZM148.337 46.4071L168.305 1.6071L166.479 0.792891L146.511 45.5929L148.337 46.4071ZM167.392 2.2H177.632V0.199997H167.392V2.2ZM176.719 1.60819L196.751 46.4082L198.577 45.5918L178.545 0.791802L176.719 1.60819ZM197.664 45H186.784V47H197.664V45ZM187.708 45.618L183.74 36.018L181.892 36.782L185.86 46.382L187.708 45.618ZM180.476 28.1453L173.372 10.9933L171.524 11.7587L178.628 28.9107L180.476 28.1453ZM171.524 10.9933L164.42 28.1453L166.268 28.9107L173.372 11.7587L171.524 10.9933ZM165.344 29.528H179.552V27.528H165.344V29.528ZM243.4 1.2H244.4V0.199997H243.4V1.2ZM243.4 46V47H244.4V46H243.4ZM234.888 46L234.115 46.6346L234.415 47H234.888V46ZM212.552 18.8L213.325 18.1654L211.552 16.0065V18.8H212.552ZM212.552 46V47H213.552V46H212.552ZM202.312 46H201.312V47H202.312V46ZM202.312 1.2V0.199997H201.312V1.2H202.312ZM210.888 1.2L211.662 0.566462L211.362 0.199997H210.888V1.2ZM233.16 28.4L232.386 29.0335L234.16 31.1997V28.4H233.16ZM233.16 1.2V0.199997H232.16V1.2H233.16ZM242.4 1.2V46H244.4V1.2H242.4ZM243.4 45H234.888V47H243.4V45ZM235.661 45.3654L213.325 18.1654L211.779 19.4346L234.115 46.6346L235.661 45.3654ZM211.552 18.8V46H213.552V18.8H211.552ZM212.552 45H202.312V47H212.552V45ZM203.312 46V1.2H201.312V46H203.312ZM202.312 2.2H210.888V0.199997H202.312V2.2ZM210.114 1.83353L232.386 29.0335L233.934 27.7665L211.662 0.566462L210.114 1.83353ZM234.16 28.4V1.2H232.16V28.4H234.16ZM233.16 2.2H243.4V0.199997H233.16V2.2ZM3.312 73.2V72.2H2.312V73.2H3.312ZM13.68 73.2H14.68V72.2H13.68V73.2ZM13.68 118V119H14.68V118H13.68ZM3.312 118H2.312V119H3.312V118ZM3.312 74.2H13.68V72.2H3.312V74.2ZM12.68 73.2V118H14.68V73.2H12.68ZM13.68 117H3.312V119H13.68V117ZM4.312 118V73.2H2.312V118H4.312ZM65.4 73.2H66.4V72.2H65.4V73.2ZM65.4 118V119H66.4V118H65.4ZM56.888 118L56.1152 118.635L56.4152 119H56.888V118ZM34.552 90.8L35.3248 90.1654L33.552 88.0065V90.8H34.552ZM34.552 118V119H35.552V118H34.552ZM24.312 118H23.312V119H24.312V118ZM24.312 73.2V72.2H23.312V73.2H24.312ZM32.888 73.2L33.6617 72.5665L33.3616 72.2H32.888V73.2ZM55.16 100.4L54.3863 101.034L56.16 103.2V100.4H55.16ZM55.16 73.2V72.2H54.16V73.2H55.16ZM64.4 73.2V118H66.4V73.2H64.4ZM65.4 117H56.888V119H65.4V117ZM57.6608 117.365L35.3248 90.1654L33.7792 91.4346L56.1152 118.635L57.6608 117.365ZM33.552 90.8V118H35.552V90.8H33.552ZM34.552 117H24.312V119H34.552V117ZM25.312 118V73.2H23.312V118H25.312ZM24.312 74.2H32.888V72.2H24.312V74.2ZM32.1143 73.8335L54.3863 101.034L55.9337 99.7665L33.6617 72.5665L32.1143 73.8335ZM56.16 100.4V73.2H54.16V100.4H56.16ZM55.16 74.2H65.4V72.2H55.16V74.2ZM85.2795 81.648H86.2795V80.648H85.2795V81.648ZM70.9435 81.648H69.9435V82.648H70.9435V81.648ZM70.9435 73.2V72.2H69.9435V73.2H70.9435ZM109.984 73.2H110.984V72.2H109.984V73.2ZM109.984 81.648V82.648H110.984V81.648H109.984ZM95.6475 81.648V80.648H94.6475V81.648H95.6475ZM95.6475 118V119H96.6475V118H95.6475ZM85.2795 118H84.2795V119H85.2795V118ZM85.2795 80.648H70.9435V82.648H85.2795V80.648ZM71.9435 81.648V73.2H69.9435V81.648H71.9435ZM70.9435 74.2H109.984V72.2H70.9435V74.2ZM108.984 73.2V81.648H110.984V73.2H108.984ZM109.984 80.648H95.6475V82.648H109.984V80.648ZM94.6475 81.648V118H96.6475V81.648H94.6475ZM95.6475 117H85.2795V119H95.6475V117ZM86.2795 118V81.648H84.2795V118H86.2795ZM150.25 109.68H151.25V108.68H150.25V109.68ZM150.25 118V119H151.25V118H150.25ZM115.562 118H114.562V119H115.562V118ZM115.562 73.2V72.2H114.562V73.2H115.562ZM149.418 73.2H150.418V72.2H149.418V73.2ZM149.418 81.52V82.52H150.418V81.52H149.418ZM125.866 81.52V80.52H124.866V81.52H125.866ZM125.866 91.248H124.866V92.248H125.866V91.248ZM146.666 91.248H147.666V90.248H146.666V91.248ZM146.666 99.312V100.312H147.666V99.312H146.666ZM125.866 99.312V98.312H124.866V99.312H125.866ZM125.866 109.68H124.866V110.68H125.866V109.68ZM149.25 109.68V118H151.25V109.68H149.25ZM150.25 117H115.562V119H150.25V117ZM116.562 118V73.2H114.562V118H116.562ZM115.562 74.2H149.418V72.2H115.562V74.2ZM148.418 73.2V81.52H150.418V73.2H148.418ZM149.418 80.52H125.866V82.52H149.418V80.52ZM124.866 81.52V91.248H126.866V81.52H124.866ZM125.866 92.248H146.666V90.248H125.866V92.248ZM145.666 91.248V99.312H147.666V91.248H145.666ZM146.666 98.312H125.866V100.312H146.666V98.312ZM124.866 99.312V109.68H126.866V99.312H124.866ZM125.866 110.68H150.25V108.68H125.866V110.68ZM187.044 118L186.221 118.569L186.52 119H187.044V118ZM178.404 105.52L179.226 104.951L178.927 104.52H178.404V105.52ZM168.867 105.52V104.52H167.867V105.52H168.867ZM168.867 118V119H169.867V118H168.867ZM158.499 118H157.499V119H158.499V118ZM158.499 73.2V72.2H157.499V73.2H158.499ZM188.195 75.184L187.781 76.0939L187.786 76.0962L188.195 75.184ZM194.915 98.096L194.083 97.5413L194.081 97.5447L194.915 98.096ZM188.132 103.6L187.733 102.683L186.612 103.17L187.311 104.172L188.132 103.6ZM198.18 118V119H200.097L199 117.428L198.18 118ZM184.419 83.696L183.775 84.4609L183.781 84.4659L183.787 84.4709L184.419 83.696ZM168.867 81.648V80.648H167.867V81.648H168.867ZM168.867 97.264H167.867V98.264H168.867V97.264ZM184.419 95.216L185.064 95.9809L184.419 95.216ZM187.866 117.431L179.226 104.951L177.581 106.089L186.221 118.569L187.866 117.431ZM178.404 104.52H177.891V106.52H178.404V104.52ZM177.891 104.52H168.867V106.52H177.891V104.52ZM167.867 105.52V118H169.867V105.52H167.867ZM168.867 117H158.499V119H168.867V117ZM159.499 118V73.2H157.499V118H159.499ZM158.499 74.2H177.891V72.2H158.499V74.2ZM177.891 74.2C181.75 74.2 185.037 74.8433 187.781 76.0939L188.61 74.2741C185.551 72.8794 181.969 72.2 177.891 72.2V74.2ZM187.786 76.0962C190.575 77.3493 192.678 79.1076 194.141 81.3605L195.818 80.2715C194.123 77.6604 191.704 75.6641 188.605 74.2718L187.786 76.0962ZM194.141 81.3605C195.599 83.6074 196.348 86.2919 196.348 89.456H198.348C198.348 85.964 197.517 82.8886 195.818 80.2715L194.141 81.3605ZM196.348 89.456C196.348 92.6148 195.581 95.2956 194.083 97.5413L195.748 98.6507C197.493 96.0324 198.348 92.9532 198.348 89.456H196.348ZM194.081 97.5447C192.622 99.7535 190.521 101.47 187.733 102.683L188.53 104.517C191.63 103.17 194.052 101.217 195.75 98.6473L194.081 97.5447ZM187.311 104.172L197.359 118.572L199 117.428L188.952 103.028L187.311 104.172ZM198.18 117H187.044V119H198.18V117ZM187.852 89.456C187.852 86.7057 186.953 84.4726 185.052 82.9211L183.787 84.4709C185.128 85.5647 185.852 87.1716 185.852 89.456H187.852ZM185.064 82.9311C183.194 81.3567 180.558 80.648 177.316 80.648V82.648C180.302 82.648 182.402 83.3047 183.775 84.4609L185.064 82.9311ZM177.316 80.648H168.867V82.648H177.316V80.648ZM167.867 81.648V97.264H169.867V81.648H167.867ZM168.867 98.264H177.316V96.264H168.867V98.264ZM177.316 98.264C180.558 98.264 183.194 97.5553 185.064 95.9809L183.775 94.4511C182.402 95.6073 180.302 96.264 177.316 96.264V98.264ZM185.064 95.9809C186.949 94.3929 187.852 92.1708 187.852 89.456H185.852C185.852 91.6906 185.132 93.3085 183.775 94.4511L185.064 95.9809ZM248.634 73.2L249.552 73.5972L250.157 72.2H248.634V73.2ZM229.242 118V119H229.899L230.16 118.397L229.242 118ZM219.002 118L218.084 118.396L218.344 119H219.002V118ZM199.674 73.2V72.2H198.153L198.756 73.5961L199.674 73.2ZM210.874 73.2L211.794 72.8081L211.535 72.2H210.874V73.2ZM224.506 105.2L223.586 105.592L224.5 107.736L225.424 105.597L224.506 105.2ZM238.33 73.2V72.2H237.673L237.412 72.8034L238.33 73.2ZM247.716 72.8028L228.324 117.603L230.16 118.397L249.552 73.5972L247.716 72.8028ZM229.242 117H219.002V119H229.242V117ZM219.92 117.604L200.592 72.8039L198.756 73.5961L218.084 118.396L219.92 117.604ZM199.674 74.2H210.874V72.2H199.674V74.2ZM209.954 73.5919L223.586 105.592L225.426 104.808L211.794 72.8081L209.954 73.5919ZM225.424 105.597L239.248 73.5966L237.412 72.8034L223.588 104.803L225.424 105.597ZM238.33 74.2H248.634V72.2H238.33V74.2ZM287.062 109.68H288.062V108.68H287.062V109.68ZM287.062 118V119H288.062V118H287.062ZM252.374 118H251.374V119H252.374V118ZM252.374 73.2V72.2H251.374V73.2H252.374ZM286.23 73.2H287.23V72.2H286.23V73.2ZM286.23 81.52V82.52H287.23V81.52H286.23ZM262.678 81.52V80.52H261.678V81.52H262.678ZM262.678 91.248H261.678V92.248H262.678V91.248ZM283.479 91.248H284.479V90.248H283.479V91.248ZM283.479 99.312V100.312H284.479V99.312H283.479ZM262.678 99.312V98.312H261.678V99.312H262.678ZM262.678 109.68H261.678V110.68H262.678V109.68ZM286.062 109.68V118H288.062V109.68H286.062ZM287.062 117H252.374V119H287.062V117ZM253.374 118V73.2H251.374V118H253.374ZM252.374 74.2H286.23V72.2H252.374V74.2ZM285.23 73.2V81.52H287.23V73.2H285.23ZM286.23 80.52H262.678V82.52H286.23V80.52ZM261.678 81.52V91.248H263.678V81.52H261.678ZM262.678 92.248H283.479V90.248H262.678V92.248ZM282.479 91.248V99.312H284.479V91.248H282.479ZM283.479 98.312H262.678V100.312H283.479V98.312ZM261.678 99.312V109.68H263.678V99.312H261.678ZM262.678 110.68H287.062V108.68H262.678V110.68ZM336.4 73.2H337.4V72.2H336.4V73.2ZM336.4 118V119H337.4V118H336.4ZM327.888 118L327.115 118.635L327.415 119H327.888V118ZM305.552 90.8L306.325 90.1654L304.552 88.0065V90.8H305.552ZM305.552 118V119H306.552V118H305.552ZM295.312 118H294.312V119H295.312V118ZM295.312 73.2V72.2H294.312V73.2H295.312ZM303.888 73.2L304.662 72.5665L304.362 72.2H303.888V73.2ZM326.16 100.4L325.386 101.034L327.16 103.2V100.4H326.16ZM326.16 73.2V72.2H325.16V73.2H326.16ZM335.4 73.2V118H337.4V73.2H335.4ZM336.4 117H327.888V119H336.4V117ZM328.661 117.365L306.325 90.1654L304.779 91.4346L327.115 118.635L328.661 117.365ZM304.552 90.8V118H306.552V90.8H304.552ZM305.552 117H295.312V119H305.552V117ZM296.312 118V73.2H294.312V118H296.312ZM295.312 74.2H303.888V72.2H295.312V74.2ZM303.114 73.8335L325.386 101.034L326.934 99.7665L304.662 72.5665L303.114 73.8335ZM327.16 100.4V73.2H325.16V100.4H327.16ZM326.16 74.2H336.4V72.2H326.16V74.2ZM356.28 81.648H357.28V80.648H356.28V81.648ZM341.944 81.648H340.944V82.648H341.944V81.648ZM341.944 73.2V72.2H340.944V73.2H341.944ZM380.983 73.2H381.983V72.2H380.983V73.2ZM380.983 81.648V82.648H381.983V81.648H380.983ZM366.647 81.648V80.648H365.647V81.648H366.647ZM366.647 118V119H367.647V118H366.647ZM356.28 118H355.28V119H356.28V118ZM356.28 80.648H341.944V82.648H356.28V80.648ZM342.944 81.648V73.2H340.944V81.648H342.944ZM341.944 74.2H380.983V72.2H341.944V74.2ZM379.983 73.2V81.648H381.983V73.2H379.983ZM380.983 80.648H366.647V82.648H380.983V80.648ZM365.647 81.648V118H367.647V81.648H365.647ZM366.647 117H356.28V119H366.647V117ZM357.28 118V81.648H355.28V118H357.28ZM386.562 73.2V72.2H385.562V73.2H386.562ZM396.93 73.2H397.93V72.2H396.93V73.2ZM396.93 118V119H397.93V118H396.93ZM386.562 118H385.562V119H386.562V118ZM386.562 74.2H396.93V72.2H386.562V74.2ZM395.93 73.2V118H397.93V73.2H395.93ZM396.93 117H386.562V119H396.93V117ZM387.562 118V73.2H385.562V118H387.562ZM416.65 115.76L416.175 116.64L416.179 116.642L416.65 115.76ZM407.882 107.504L407.021 108.012L407.025 108.019L407.028 108.025L407.882 107.504ZM407.882 83.76L407.025 83.244L407.024 83.247L407.882 83.76ZM416.65 75.44L416.179 74.5579L416.175 74.5602L416.65 75.44ZM450.57 83.76L449.713 84.276L449.716 84.2806L450.57 83.76ZM450.57 107.504L451.424 108.025L451.427 108.02L450.57 107.504ZM441.802 115.76L442.277 116.64L441.802 115.76ZM436.426 108.144L436.915 109.017L436.921 109.013L436.928 109.009L436.426 108.144ZM441.418 103.024L440.549 102.53L440.545 102.536L440.541 102.543L441.418 103.024ZM441.418 88.176L440.541 88.6573L440.545 88.6638L440.549 88.6703L441.418 88.176ZM436.426 83.12L435.924 83.985L435.931 83.9888L435.937 83.9925L436.426 83.12ZM422.09 83.12L422.579 83.9925L422.585 83.9888L422.592 83.985L422.09 83.12ZM417.034 88.176L416.165 87.6817L416.161 87.6882L416.157 87.6947L417.034 88.176ZM417.034 103.024L416.157 103.505L416.161 103.512L416.165 103.518L417.034 103.024ZM422.09 108.144L421.588 109.009L421.595 109.013L421.601 109.017L422.09 108.144ZM429.258 117.768C424.756 117.768 420.718 116.799 417.121 114.878L416.179 116.642C420.092 118.732 424.459 119.768 429.258 119.768V117.768ZM417.125 114.88C413.564 112.956 410.774 110.326 408.736 106.983L407.028 108.025C409.257 111.679 412.312 114.553 416.175 116.64L417.125 114.88ZM408.743 106.996C406.75 103.619 405.746 99.8286 405.746 95.6H403.746C403.746 100.161 404.833 104.306 407.021 108.012L408.743 106.996ZM405.746 95.6C405.746 91.3713 406.75 87.6045 408.74 84.273L407.024 83.247C404.833 86.9129 403.746 91.0393 403.746 95.6H405.746ZM408.739 84.276C410.778 80.8911 413.567 78.242 417.125 76.3198L416.175 74.5602C412.309 76.6487 409.253 79.5462 407.025 83.244L408.739 84.276ZM417.121 76.3221C420.718 74.4012 424.756 73.432 429.258 73.432V71.432C424.459 71.432 420.092 72.4682 416.179 74.5579L417.121 76.3221ZM429.258 73.432C433.76 73.432 437.775 74.4012 441.327 76.3198L442.277 74.5602C438.405 72.4681 434.057 71.432 429.258 71.432V73.432ZM441.327 76.3198C444.885 78.242 447.674 80.8911 449.713 84.276L451.427 83.244C449.199 79.5462 446.143 76.6487 442.277 74.5602L441.327 76.3198ZM449.716 84.2806C451.747 87.6111 452.77 91.3752 452.77 95.6H454.77C454.77 91.0355 453.66 86.9063 451.424 83.2394L449.716 84.2806ZM452.77 95.6C452.77 99.8247 451.747 103.612 449.713 106.988L451.427 108.02C453.66 104.313 454.77 100.165 454.77 95.6H452.77ZM449.716 106.983C447.678 110.326 444.888 112.956 441.327 114.88L442.277 116.64C446.14 114.553 449.195 111.679 451.424 108.025L449.716 106.983ZM441.327 114.88C437.775 116.799 433.76 117.768 429.258 117.768V119.768C434.057 119.768 438.405 118.732 442.277 116.64L441.327 114.88ZM429.258 110.936C432.06 110.936 434.62 110.302 436.915 109.017L435.937 107.271C433.965 108.376 431.747 108.936 429.258 108.936V110.936ZM436.928 109.009C439.22 107.68 441.013 105.84 442.295 103.505L440.541 102.543C439.434 104.56 437.899 106.134 435.924 107.279L436.928 109.009ZM442.287 103.518C443.619 101.176 444.274 98.5275 444.274 95.6H442.274C442.274 98.2192 441.691 100.52 440.549 102.53L442.287 103.518ZM444.274 95.6C444.274 92.6725 443.619 90.0242 442.287 87.6817L440.549 88.6703C441.691 90.6798 442.274 92.9808 442.274 95.6H444.274ZM442.295 87.6947C441.011 85.3572 439.214 83.5351 436.915 82.2475L435.937 83.9925C437.905 85.0942 439.435 86.6428 440.541 88.6573L442.295 87.6947ZM436.928 82.255C434.631 80.9228 432.066 80.264 429.258 80.264V82.264C431.74 82.264 433.954 82.8425 435.924 83.985L436.928 82.255ZM429.258 80.264C426.45 80.264 423.885 80.9228 421.588 82.255L422.592 83.985C424.562 82.8425 426.776 82.264 429.258 82.264V80.264ZM421.601 82.2475C419.305 83.5334 417.49 85.3513 416.165 87.6817L417.903 88.6703C419.053 86.6487 420.608 85.0959 422.579 83.9925L421.601 82.2475ZM416.157 87.6947C414.873 90.0349 414.242 92.6785 414.242 95.6H416.242C416.242 92.9748 416.806 90.6691 417.911 88.6573L416.157 87.6947ZM414.242 95.6C414.242 98.5215 414.873 101.165 416.157 103.505L417.911 102.543C416.806 100.531 416.242 98.2252 416.242 95.6H414.242ZM416.165 103.518C417.488 105.846 419.299 107.681 421.588 109.009L422.592 107.279C420.614 106.132 419.054 104.554 417.903 102.53L416.165 103.518ZM421.601 109.017C423.896 110.302 426.456 110.936 429.258 110.936V108.936C426.769 108.936 424.551 108.376 422.579 107.271L421.601 109.017ZM502.65 73.2H503.65V72.2H502.65V73.2ZM502.65 118V119H503.65V118H502.65ZM494.138 118L493.365 118.635L493.665 119H494.138V118ZM471.802 90.8L472.575 90.1654L470.802 88.0065V90.8H471.802ZM471.802 118V119H472.802V118H471.802ZM461.562 118H460.562V119H461.562V118ZM461.562 73.2V72.2H460.562V73.2H461.562ZM470.138 73.2L470.912 72.5665L470.612 72.2H470.138V73.2ZM492.41 100.4L491.636 101.034L493.41 103.2V100.4H492.41ZM492.41 73.2V72.2H491.41V73.2H492.41ZM501.65 73.2V118H503.65V73.2H501.65ZM502.65 117H494.138V119H502.65V117ZM494.911 117.365L472.575 90.1654L471.029 91.4346L493.365 118.635L494.911 117.365ZM470.802 90.8V118H472.802V90.8H470.802ZM471.802 117H461.562V119H471.802V117ZM462.562 118V73.2H460.562V118H462.562ZM461.562 74.2H470.138V72.2H461.562V74.2ZM469.364 73.8335L491.636 101.034L493.184 99.7665L470.912 72.5665L469.364 73.8335ZM493.41 100.4V73.2H491.41V100.4H493.41ZM492.41 74.2H502.65V72.2H492.41V74.2Z" fill="white"/>
</svg>
