<svg width="500" height="119" viewBox="0 0 500 119" fill="none" xmlns="http://www.w3.org/2000/svg">
<path d="M0.34325 73.2H10.7113V118H0.34325V73.2ZM62.4313 73.2V118H53.9193L31.5833 90.8V118H21.3433V73.2H29.9193L52.1912 100.4V73.2H62.4313ZM82.3108 81.648H67.9748V73.2H107.015V81.648H92.6788V118H82.3108V81.648ZM147.281 109.68V118H112.593V73.2H146.449V81.52H122.897V91.248H143.697V99.312H122.897V109.68H147.281ZM184.075 118L175.435 105.52H174.923H165.899V118H155.531V73.2H174.923C178.891 73.2 182.325 73.8613 185.227 75.184C188.171 76.5067 190.432 78.384 192.011 80.816C193.589 83.248 194.379 86.128 194.379 89.456C194.379 92.784 193.568 95.664 191.947 98.096C190.368 100.485 188.107 102.32 185.163 103.6L195.211 118H184.075ZM183.883 89.456C183.883 86.9387 183.072 85.0187 181.451 83.696C179.829 82.3307 177.461 81.648 174.347 81.648H165.899V97.264H174.347C177.461 97.264 179.829 96.5813 181.451 95.216C183.072 93.8507 183.883 91.9307 183.883 89.456ZM245.665 73.2L226.273 118H216.033L196.705 73.2H207.905L221.537 105.2L235.361 73.2H245.665ZM284.094 109.68V118H249.406V73.2H283.262V81.52H259.71V91.248H280.51V99.312H259.71V109.68H284.094ZM333.431 73.2V118H324.919L302.583 90.8V118H292.343V73.2H300.919L323.191 100.4V73.2H333.431ZM353.311 81.648H338.975V73.2H378.015V81.648H363.679V118H353.311V81.648ZM383.593 73.2H393.961V118H383.593V73.2ZM426.289 118.768C421.639 118.768 417.436 117.765 413.681 115.76C409.969 113.755 407.047 111.003 404.913 107.504C402.823 103.963 401.777 99.9947 401.777 95.6C401.777 91.2053 402.823 87.2587 404.913 83.76C407.047 80.2187 409.969 77.4453 413.681 75.44C417.436 73.4347 421.639 72.432 426.289 72.432C430.94 72.432 435.121 73.4347 438.833 75.44C442.545 77.4453 445.468 80.2187 447.601 83.76C449.735 87.2587 450.801 91.2053 450.801 95.6C450.801 99.9947 449.735 103.963 447.601 107.504C445.468 111.003 442.545 113.755 438.833 115.76C435.121 117.765 430.94 118.768 426.289 118.768ZM426.289 109.936C428.935 109.936 431.324 109.339 433.457 108.144C435.591 106.907 437.255 105.2 438.449 103.024C439.687 100.848 440.305 98.3733 440.305 95.6C440.305 92.8267 439.687 90.352 438.449 88.176C437.255 86 435.591 84.3147 433.457 83.12C431.324 81.8827 428.935 81.264 426.289 81.264C423.644 81.264 421.255 81.8827 419.121 83.12C416.988 84.3147 415.303 86 414.065 88.176C412.871 90.352 412.273 92.8267 412.273 95.6C412.273 98.3733 412.871 100.848 414.065 103.024C415.303 105.2 416.988 106.907 419.121 108.144C421.255 109.339 423.644 109.936 426.289 109.936ZM499.681 73.2V118H491.169L468.833 90.8V118H458.593V73.2H467.169L489.441 100.4V73.2H499.681Z" fill="white"/>
<path d="M160.24 22.896V21.896H159.24V22.896H160.24ZM169.712 22.896H170.712V21.896H169.712V22.896ZM169.712 41.072L170.314 41.8703L170.712 41.5703V41.072H169.712ZM161.264 45.296L161.557 46.2521H161.557L161.264 45.296ZM139.056 43.824L138.581 44.7039L138.589 44.708L139.056 43.824ZM130.288 35.568L129.427 36.0764L129.431 36.0825L129.434 36.0886L130.288 35.568ZM130.288 11.696L129.432 11.18L129.43 11.183L130.288 11.696ZM139.12 3.44L139.584 4.32626L139.591 4.32207L139.12 3.44ZM162.48 2.416L162.862 1.49183L162.48 2.416ZM170.544 8.176L171.223 8.9108L171.934 8.2543L171.301 7.52205L170.544 8.176ZM163.888 14.32L163.163 15.0085L163.842 15.7236L164.567 15.0548L163.888 14.32ZM144.688 11.056L145.162 11.9365L144.688 11.056ZM139.504 16.112L140.374 16.6063L139.504 16.112ZM139.504 31.024L138.635 31.5183L139.504 31.024ZM144.624 36.144L144.13 37.0133L144.14 37.019L144.15 37.0245L144.624 36.144ZM160.24 36.016L160.712 36.8975L161.24 36.6147V36.016H160.24ZM160.24 23.896H169.712V21.896H160.24V23.896ZM168.712 22.896V41.072H170.712V22.896H168.712ZM169.11 40.2737C166.78 42.0316 164.071 43.3894 160.971 44.3399L161.557 46.2521C164.858 45.2399 167.781 43.7818 170.314 41.8703L169.11 40.2737ZM160.971 44.3399C157.863 45.2931 154.74 45.768 151.6 45.768V47.768C154.945 47.768 158.266 47.2616 161.557 46.2521L160.971 44.3399ZM151.6 45.768C147.095 45.768 143.077 44.8186 139.524 42.94L138.589 44.708C142.46 46.7548 146.805 47.768 151.6 47.768V45.768ZM139.532 42.9442C135.97 41.0204 133.18 38.3903 131.142 35.0474L129.434 36.0886C131.663 39.743 134.718 42.617 138.581 44.7038L139.532 42.9442ZM131.149 35.0596C129.157 31.6844 128.152 27.8731 128.152 23.6H126.152C126.152 28.2015 127.238 32.3689 129.427 36.0764L131.149 35.0596ZM128.152 23.6C128.152 19.3267 129.157 15.5389 131.147 12.209L129.43 11.183C127.238 14.8504 126.152 18.9986 126.152 23.6H128.152ZM131.145 12.212C133.181 8.83187 135.987 6.20612 139.584 4.32622L138.657 2.55377C134.744 4.59921 131.662 7.47746 129.432 11.18L131.145 12.212ZM139.591 4.32207C143.187 2.40188 147.246 1.432 151.792 1.432V-0.568001C146.952 -0.568001 142.563 0.467453 138.649 2.55792L139.591 4.32207ZM151.792 1.432C155.604 1.432 159.035 2.07382 162.098 3.34016L162.862 1.49183C159.526 0.112844 155.831 -0.568001 151.792 -0.568001V1.432ZM162.098 3.34016C165.16 4.60571 167.718 6.43553 169.788 8.82995L171.301 7.52205C169.019 4.8818 166.2 2.87161 162.862 1.49183L162.098 3.34016ZM169.866 7.44119L163.21 13.5852L164.567 15.0548L171.223 8.9108L169.866 7.44119ZM164.613 13.6315C161.231 10.0682 157.11 8.264 152.304 8.264V10.264C156.544 10.264 160.146 11.8305 163.163 15.0085L164.613 13.6315ZM152.304 8.264C149.303 8.264 146.597 8.89238 144.214 10.1755L145.162 11.9365C147.217 10.8303 149.589 10.264 152.304 10.264V8.264ZM144.214 10.1755C141.831 11.4586 139.966 13.2773 138.635 15.6177L140.374 16.6063C141.517 14.5947 143.108 13.0427 145.162 11.9365L144.214 10.1755ZM138.635 15.6177C137.302 17.9624 136.648 20.6328 136.648 23.6H138.648C138.648 20.9352 139.232 18.6136 140.374 16.6063L138.635 15.6177ZM136.648 23.6C136.648 26.5275 137.303 29.1758 138.635 31.5183L140.374 30.5297C139.231 28.5202 138.648 26.2192 138.648 23.6H136.648ZM138.635 31.5183C139.961 33.8508 141.797 35.687 144.13 37.0133L145.119 35.2747C143.099 34.1263 141.522 32.5492 140.374 30.5297L138.635 31.5183ZM144.15 37.0245C146.531 38.3065 149.215 38.936 152.176 38.936V36.936C149.506 36.936 147.155 36.3709 145.098 35.2635L144.15 37.0245ZM152.176 38.936C155.311 38.936 158.164 38.263 160.712 36.8975L159.768 35.1345C157.538 36.329 155.015 36.936 152.176 36.936V38.936ZM161.24 36.016V22.896H159.24V36.016H161.24ZM214.031 37.68H215.031V36.68H214.031V37.68ZM214.031 46V47H215.031V46H214.031ZM179.343 46H178.343V47H179.343V46ZM179.343 1.2V0.199997H178.343V1.2H179.343ZM213.199 1.2H214.199V0.199997H213.199V1.2ZM213.199 9.52V10.52H214.199V9.52H213.199ZM189.647 9.52V8.52H188.647V9.52H189.647ZM189.647 19.248H188.647V20.248H189.647V19.248ZM210.447 19.248H211.447V18.248H210.447V19.248ZM210.447 27.312V28.312H211.447V27.312H210.447ZM189.647 27.312V26.312H188.647V27.312H189.647ZM189.647 37.68H188.647V38.68H189.647V37.68ZM213.031 37.68V46H215.031V37.68H213.031ZM214.031 45H179.343V47H214.031V45ZM180.343 46V1.2H178.343V46H180.343ZM179.343 2.2H213.199V0.199997H179.343V2.2ZM212.199 1.2V9.52H214.199V1.2H212.199ZM213.199 8.52H189.647V10.52H213.199V8.52ZM188.647 9.52V19.248H190.647V9.52H188.647ZM189.647 20.248H210.447V18.248H189.647V20.248ZM209.447 19.248V27.312H211.447V19.248H209.447ZM210.447 26.312H189.647V28.312H210.447V26.312ZM188.647 27.312V37.68H190.647V27.312H188.647ZM189.647 38.68H214.031V36.68H189.647V38.68ZM231.561 9.648H232.561V8.648H231.561V9.648ZM217.225 9.648H216.225V10.648H217.225V9.648ZM217.225 1.2V0.199997H216.225V1.2H217.225ZM256.265 1.2H257.265V0.199997H256.265V1.2ZM256.265 9.648V10.648H257.265V9.648H256.265ZM241.929 9.648V8.648H240.929V9.648H241.929ZM241.929 46V47H242.929V46H241.929ZM231.561 46H230.561V47H231.561V46ZM231.561 8.648H217.225V10.648H231.561V8.648ZM218.225 9.648V1.2H216.225V9.648H218.225ZM217.225 2.2H256.265V0.199997H217.225V2.2ZM255.265 1.2V9.648H257.265V1.2H255.265ZM256.265 8.648H241.929V10.648H256.265V8.648ZM240.929 9.648V46H242.929V9.648H240.929ZM241.929 45H231.561V47H241.929V45ZM232.561 46V9.648H230.561V46H232.561ZM309.472 36.4L310.396 36.018L310.141 35.4H309.472V36.4ZM288.672 36.4V35.4H288.004L287.748 36.018L288.672 36.4ZM284.704 46V47H285.373L285.628 46.382L284.704 46ZM274.08 46L273.167 45.5929L272.54 47H274.08V46ZM294.048 1.2V0.199997H293.399L293.135 0.792891L294.048 1.2ZM304.288 1.2L305.201 0.791802L304.937 0.199997H304.288V1.2ZM324.32 46V47H325.863L325.233 45.5918L324.32 46ZM313.44 46L312.516 46.382L312.772 47H313.44V46ZM306.208 28.528V29.528H307.705L307.132 28.1453L306.208 28.528ZM299.104 11.376L300.028 10.9933L299.104 8.76269L298.18 10.9933L299.104 11.376ZM292 28.528L291.076 28.1453L290.504 29.528H292V28.528ZM309.472 35.4H288.672V37.4H309.472V35.4ZM287.748 36.018L283.78 45.618L285.628 46.382L289.596 36.782L287.748 36.018ZM284.704 45H274.08V47H284.704V45ZM274.994 46.4071L294.962 1.6071L293.135 0.792891L273.167 45.5929L274.994 46.4071ZM294.048 2.2H304.288V0.199997H294.048V2.2ZM303.375 1.60819L323.407 46.4082L325.233 45.5918L305.201 0.791802L303.375 1.60819ZM324.32 45H313.44V47H324.32V45ZM314.364 45.618L310.396 36.018L308.548 36.782L312.516 46.382L314.364 45.618ZM307.132 28.1453L300.028 10.9933L298.18 11.7587L305.284 28.9107L307.132 28.1453ZM298.18 10.9933L291.076 28.1453L292.924 28.9107L300.028 11.7587L298.18 10.9933ZM292 29.528H306.208V27.528H292V29.528ZM370.056 1.2H371.056V0.199997H370.056V1.2ZM370.056 46V47H371.056V46H370.056ZM361.544 46L360.771 46.6346L361.071 47H361.544V46ZM339.208 18.8L339.981 18.1654L338.208 16.0065V18.8H339.208ZM339.208 46V47H340.208V46H339.208ZM328.968 46H327.968V47H328.968V46ZM328.968 1.2V0.199997H327.968V1.2H328.968ZM337.544 1.2L338.318 0.566462L338.018 0.199997H337.544V1.2ZM359.816 28.4L359.043 29.0335L360.816 31.1997V28.4H359.816ZM359.816 1.2V0.199997H358.816V1.2H359.816ZM369.056 1.2V46H371.056V1.2H369.056ZM370.056 45H361.544V47H370.056V45ZM362.317 45.3654L339.981 18.1654L338.435 19.4346L360.771 46.6346L362.317 45.3654ZM338.208 18.8V46H340.208V18.8H338.208ZM339.208 45H328.968V47H339.208V45ZM329.968 46V1.2H327.968V46H329.968ZM328.968 2.2H337.544V0.199997H328.968V2.2ZM336.771 1.83353L359.043 29.0335L360.59 27.7665L338.318 0.566462L336.771 1.83353ZM360.816 28.4V1.2H358.816V28.4H360.816ZM359.816 2.2H370.056V0.199997H359.816V2.2ZM0.34325 73.2V72.2H-0.65675V73.2H0.34325ZM10.7113 73.2H11.7113V72.2H10.7113V73.2ZM10.7113 118V119H11.7113V118H10.7113ZM0.34325 118H-0.65675V119H0.34325V118ZM0.34325 74.2H10.7113V72.2H0.34325V74.2ZM9.71125 73.2V118H11.7113V73.2H9.71125ZM10.7113 117H0.34325V119H10.7113V117ZM1.34325 118V73.2H-0.65675V118H1.34325ZM62.4313 73.2H63.4313V72.2H62.4313V73.2ZM62.4313 118V119H63.4313V118H62.4313ZM53.9193 118L53.1464 118.635L53.4465 119H53.9193V118ZM31.5833 90.8L32.3561 90.1654L30.5833 88.0065V90.8H31.5833ZM31.5833 118V119H32.5833V118H31.5833ZM21.3433 118H20.3433V119H21.3433V118ZM21.3433 73.2V72.2H20.3433V73.2H21.3433ZM29.9193 73.2L30.693 72.5665L30.3929 72.2H29.9193V73.2ZM52.1913 100.4L51.4175 101.034L53.1913 103.2V100.4H52.1913ZM52.1913 73.2V72.2H51.1913V73.2H52.1913ZM61.4313 73.2V118H63.4313V73.2H61.4313ZM62.4313 117H53.9193V119H62.4313V117ZM54.6921 117.365L32.3561 90.1654L30.8104 91.4346L53.1464 118.635L54.6921 117.365ZM30.5833 90.8V118H32.5833V90.8H30.5833ZM31.5833 117H21.3433V119H31.5833V117ZM22.3433 118V73.2H20.3433V118H22.3433ZM21.3433 74.2H29.9193V72.2H21.3433V74.2ZM29.1455 73.8335L51.4175 101.034L52.965 99.7665L30.693 72.5665L29.1455 73.8335ZM53.1913 100.4V73.2H51.1913V100.4H53.1913ZM52.1913 74.2H62.4313V72.2H52.1913V74.2ZM82.3108 81.648H83.3108V80.648H82.3108V81.648ZM67.9747 81.648H66.9747V82.648H67.9747V81.648ZM67.9747 73.2V72.2H66.9747V73.2H67.9747ZM107.015 73.2H108.015V72.2H107.015V73.2ZM107.015 81.648V82.648H108.015V81.648H107.015ZM92.6788 81.648V80.648H91.6788V81.648H92.6788ZM92.6788 118V119H93.6788V118H92.6788ZM82.3108 118H81.3108V119H82.3108V118ZM82.3108 80.648H67.9747V82.648H82.3108V80.648ZM68.9747 81.648V73.2H66.9747V81.648H68.9747ZM67.9747 74.2H107.015V72.2H67.9747V74.2ZM106.015 73.2V81.648H108.015V73.2H106.015ZM107.015 80.648H92.6788V82.648H107.015V80.648ZM91.6788 81.648V118H93.6788V81.648H91.6788ZM92.6788 117H82.3108V119H92.6788V117ZM83.3108 118V81.648H81.3108V118H83.3108ZM147.281 109.68H148.281V108.68H147.281V109.68ZM147.281 118V119H148.281V118H147.281ZM112.593 118H111.593V119H112.593V118ZM112.593 73.2V72.2H111.593V73.2H112.593ZM146.449 73.2H147.449V72.2H146.449V73.2ZM146.449 81.52V82.52H147.449V81.52H146.449ZM122.897 81.52V80.52H121.897V81.52H122.897ZM122.897 91.248H121.897V92.248H122.897V91.248ZM143.697 91.248H144.697V90.248H143.697V91.248ZM143.697 99.312V100.312H144.697V99.312H143.697ZM122.897 99.312V98.312H121.897V99.312H122.897ZM122.897 109.68H121.897V110.68H122.897V109.68ZM146.281 109.68V118H148.281V109.68H146.281ZM147.281 117H112.593V119H147.281V117ZM113.593 118V73.2H111.593V118H113.593ZM112.593 74.2H146.449V72.2H112.593V74.2ZM145.449 73.2V81.52H147.449V73.2H145.449ZM146.449 80.52H122.897V82.52H146.449V80.52ZM121.897 81.52V91.248H123.897V81.52H121.897ZM122.897 92.248H143.697V90.248H122.897V92.248ZM142.697 91.248V99.312H144.697V91.248H142.697ZM143.697 98.312H122.897V100.312H143.697V98.312ZM121.897 99.312V109.68H123.897V99.312H121.897ZM122.897 110.68H147.281V108.68H122.897V110.68ZM184.075 118L183.253 118.569L183.551 119H184.075V118ZM175.435 105.52L176.257 104.951L175.959 104.52H175.435V105.52ZM165.899 105.52V104.52H164.899V105.52H165.899ZM165.899 118V119H166.899V118H165.899ZM155.531 118H154.531V119H155.531V118ZM155.531 73.2V72.2H154.531V73.2H155.531ZM185.227 75.184L184.812 76.0939L184.817 76.0962L185.227 75.184ZM191.947 98.096L191.115 97.5413L191.112 97.5447L191.947 98.096ZM185.163 103.6L184.764 102.683L183.643 103.17L184.343 104.172L185.163 103.6ZM195.211 118V119H197.128L196.031 117.428L195.211 118ZM181.451 83.696L180.807 84.4609L180.813 84.4659L180.819 84.4709L181.451 83.696ZM165.899 81.648V80.648H164.899V81.648H165.899ZM165.899 97.264H164.899V98.264H165.899V97.264ZM181.451 95.216L182.095 95.9809L181.451 95.216ZM184.897 117.431L176.257 104.951L174.613 106.089L183.253 118.569L184.897 117.431ZM175.435 104.52H174.923V106.52H175.435V104.52ZM174.923 104.52H165.899V106.52H174.923V104.52ZM164.899 105.52V118H166.899V105.52H164.899ZM165.899 117H155.531V119H165.899V117ZM156.531 118V73.2H154.531V118H156.531ZM155.531 74.2H174.923V72.2H155.531V74.2ZM174.923 74.2C178.782 74.2 182.069 74.8433 184.812 76.0939L185.642 74.2741C182.582 72.8794 179 72.2 174.923 72.2V74.2ZM184.817 76.0962C187.606 77.3493 189.71 79.1076 191.172 81.3605L192.85 80.2715C191.155 77.6604 188.735 75.6641 185.637 74.2718L184.817 76.0962ZM191.172 81.3605C192.631 83.6074 193.379 86.2919 193.379 89.456H195.379C195.379 85.964 194.548 82.8886 192.85 80.2715L191.172 81.3605ZM193.379 89.456C193.379 92.6148 192.612 95.2956 191.115 97.5413L192.779 98.6507C194.524 96.0324 195.379 92.9532 195.379 89.456H193.379ZM191.112 97.5447C189.653 99.7535 187.553 101.47 184.764 102.683L185.561 104.517C188.661 103.17 191.083 101.217 192.781 98.6473L191.112 97.5447ZM184.343 104.172L194.391 118.572L196.031 117.428L185.983 103.028L184.343 104.172ZM195.211 117H184.075V119H195.211V117ZM184.883 89.456C184.883 86.7057 183.985 84.4726 182.083 82.9211L180.819 84.4709C182.159 85.5647 182.883 87.1716 182.883 89.456H184.883ZM182.095 82.9311C180.225 81.3567 177.59 80.648 174.347 80.648V82.648C177.333 82.648 179.434 83.3047 180.807 84.4609L182.095 82.9311ZM174.347 80.648H165.899V82.648H174.347V80.648ZM164.899 81.648V97.264H166.899V81.648H164.899ZM165.899 98.264H174.347V96.264H165.899V98.264ZM174.347 98.264C177.59 98.264 180.225 97.5553 182.095 95.9809L180.807 94.4511C179.434 95.6073 177.333 96.264 174.347 96.264V98.264ZM182.095 95.9809C183.981 94.3929 184.883 92.1708 184.883 89.456H182.883C182.883 91.6906 182.163 93.3085 180.807 94.4511L182.095 95.9809ZM245.665 73.2L246.583 73.5972L247.188 72.2H245.665V73.2ZM226.273 118V119H226.93L227.191 118.397L226.273 118ZM216.033 118L215.115 118.396L215.376 119H216.033V118ZM196.705 73.2V72.2H195.185L195.787 73.5961L196.705 73.2ZM207.905 73.2L208.825 72.8081L208.566 72.2H207.905V73.2ZM221.537 105.2L220.617 105.592L221.531 107.736L222.455 105.597L221.537 105.2ZM235.361 73.2V72.2H234.704L234.443 72.8034L235.361 73.2ZM244.748 72.8028L225.356 117.603L227.191 118.397L246.583 73.5972L244.748 72.8028ZM226.273 117H216.033V119H226.273V117ZM216.951 117.604L197.623 72.8039L195.787 73.5961L215.115 118.396L216.951 117.604ZM196.705 74.2H207.905V72.2H196.705V74.2ZM206.985 73.5919L220.617 105.592L222.457 104.808L208.825 72.8081L206.985 73.5919ZM222.455 105.597L236.279 73.5966L234.443 72.8034L220.619 104.803L222.455 105.597ZM235.361 74.2H245.665V72.2H235.361V74.2ZM284.094 109.68H285.094V108.68H284.094V109.68ZM284.094 118V119H285.094V118H284.094ZM249.406 118H248.406V119H249.406V118ZM249.406 73.2V72.2H248.406V73.2H249.406ZM283.262 73.2H284.262V72.2H283.262V73.2ZM283.262 81.52V82.52H284.262V81.52H283.262ZM259.71 81.52V80.52H258.71V81.52H259.71ZM259.71 91.248H258.71V92.248H259.71V91.248ZM280.51 91.248H281.51V90.248H280.51V91.248ZM280.51 99.312V100.312H281.51V99.312H280.51ZM259.71 99.312V98.312H258.71V99.312H259.71ZM259.71 109.68H258.71V110.68H259.71V109.68ZM283.094 109.68V118H285.094V109.68H283.094ZM284.094 117H249.406V119H284.094V117ZM250.406 118V73.2H248.406V118H250.406ZM249.406 74.2H283.262V72.2H249.406V74.2ZM282.262 73.2V81.52H284.262V73.2H282.262ZM283.262 80.52H259.71V82.52H283.262V80.52ZM258.71 81.52V91.248H260.71V81.52H258.71ZM259.71 92.248H280.51V90.248H259.71V92.248ZM279.51 91.248V99.312H281.51V91.248H279.51ZM280.51 98.312H259.71V100.312H280.51V98.312ZM258.71 99.312V109.68H260.71V99.312H258.71ZM259.71 110.68H284.094V108.68H259.71V110.68ZM333.431 73.2H334.431V72.2H333.431V73.2ZM333.431 118V119H334.431V118H333.431ZM324.919 118L324.146 118.635L324.446 119H324.919V118ZM302.583 90.8L303.356 90.1654L301.583 88.0065V90.8H302.583ZM302.583 118V119H303.583V118H302.583ZM292.343 118H291.343V119H292.343V118ZM292.343 73.2V72.2H291.343V73.2H292.343ZM300.919 73.2L301.693 72.5665L301.393 72.2H300.919V73.2ZM323.191 100.4L322.418 101.034L324.191 103.2V100.4H323.191ZM323.191 73.2V72.2H322.191V73.2H323.191ZM332.431 73.2V118H334.431V73.2H332.431ZM333.431 117H324.919V119H333.431V117ZM325.692 117.365L303.356 90.1654L301.81 91.4346L324.146 118.635L325.692 117.365ZM301.583 90.8V118H303.583V90.8H301.583ZM302.583 117H292.343V119H302.583V117ZM293.343 118V73.2H291.343V118H293.343ZM292.343 74.2H300.919V72.2H292.343V74.2ZM300.146 73.8335L322.418 101.034L323.965 99.7665L301.693 72.5665L300.146 73.8335ZM324.191 100.4V73.2H322.191V100.4H324.191ZM323.191 74.2H333.431V72.2H323.191V74.2ZM353.311 81.648H354.311V80.648H353.311V81.648ZM338.975 81.648H337.975V82.648H338.975V81.648ZM338.975 73.2V72.2H337.975V73.2H338.975ZM378.015 73.2H379.015V72.2H378.015V73.2ZM378.015 81.648V82.648H379.015V81.648H378.015ZM363.679 81.648V80.648H362.679V81.648H363.679ZM363.679 118V119H364.679V118H363.679ZM353.311 118H352.311V119H353.311V118ZM353.311 80.648H338.975V82.648H353.311V80.648ZM339.975 81.648V73.2H337.975V81.648H339.975ZM338.975 74.2H378.015V72.2H338.975V74.2ZM377.015 73.2V81.648H379.015V73.2H377.015ZM378.015 80.648H363.679V82.648H378.015V80.648ZM362.679 81.648V118H364.679V81.648H362.679ZM363.679 117H353.311V119H363.679V117ZM354.311 118V81.648H352.311V118H354.311ZM383.593 73.2V72.2H382.593V73.2H383.593ZM393.961 73.2H394.961V72.2H393.961V73.2ZM393.961 118V119H394.961V118H393.961ZM383.593 118H382.593V119H383.593V118ZM383.593 74.2H393.961V72.2H383.593V74.2ZM392.961 73.2V118H394.961V73.2H392.961ZM393.961 117H383.593V119H393.961V117ZM384.593 118V73.2H382.593V118H384.593ZM413.681 115.76L413.206 116.64L413.21 116.642L413.681 115.76ZM404.913 107.504L404.052 108.012L404.056 108.019L404.059 108.025L404.913 107.504ZM404.913 83.76L404.057 83.244L404.055 83.247L404.913 83.76ZM413.681 75.44L413.21 74.5579L413.206 74.5602L413.681 75.44ZM447.601 83.76L446.745 84.276L446.747 84.2806L447.601 83.76ZM447.601 107.504L448.455 108.025L448.458 108.02L447.601 107.504ZM438.833 115.76L439.309 116.64L438.833 115.76ZM433.457 108.144L433.946 109.017L433.952 109.013L433.959 109.009L433.457 108.144ZM438.449 103.024L437.58 102.53L437.576 102.536L437.573 102.543L438.449 103.024ZM438.449 88.176L437.573 88.6573L437.576 88.6638L437.58 88.6703L438.449 88.176ZM433.457 83.12L432.956 83.985L432.962 83.9888L432.969 83.9925L433.457 83.12ZM419.121 83.12L419.61 83.9925L419.616 83.9888L419.623 83.985L419.121 83.12ZM414.065 88.176L413.196 87.6817L413.192 87.6882L413.189 87.6947L414.065 88.176ZM414.065 103.024L413.189 103.505L413.192 103.512L413.196 103.518L414.065 103.024ZM419.121 108.144L418.62 109.009L418.626 109.013L418.633 109.017L419.121 108.144ZM426.289 117.768C421.787 117.768 417.749 116.799 414.152 114.878L413.21 116.642C417.123 118.732 421.49 119.768 426.289 119.768V117.768ZM414.157 114.88C410.595 112.956 407.805 110.326 405.767 106.983L404.059 108.025C406.288 111.679 409.343 114.553 413.206 116.64L414.157 114.88ZM405.774 106.996C403.781 103.619 402.777 99.8286 402.777 95.6H400.777C400.777 100.161 401.864 104.306 404.052 108.012L405.774 106.996ZM402.777 95.6C402.777 91.3713 403.781 87.6045 405.772 84.273L404.055 83.247C401.864 86.9129 400.777 91.0393 400.777 95.6H402.777ZM405.77 84.276C407.809 80.8911 410.599 78.242 414.157 76.3198L413.206 74.5602C409.34 76.6487 406.284 79.5462 404.057 83.244L405.77 84.276ZM414.152 76.3221C417.749 74.4012 421.787 73.432 426.289 73.432V71.432C421.49 71.432 417.123 72.4682 413.21 74.5579L414.152 76.3221ZM426.289 73.432C430.791 73.432 434.806 74.4012 438.358 76.3198L439.309 74.5602C435.436 72.4681 431.089 71.432 426.289 71.432V73.432ZM438.358 76.3198C441.916 78.242 444.706 80.8911 446.745 84.276L448.458 83.244C446.23 79.5462 443.174 76.6487 439.309 74.5602L438.358 76.3198ZM446.747 84.2806C448.778 87.6111 449.801 91.3752 449.801 95.6H451.801C451.801 91.0355 450.691 86.9063 448.455 83.2394L446.747 84.2806ZM449.801 95.6C449.801 99.8247 448.778 103.612 446.745 106.988L448.458 108.02C450.691 104.313 451.801 100.165 451.801 95.6H449.801ZM446.747 106.983C444.709 110.326 441.919 112.956 438.358 114.88L439.309 116.64C443.171 114.553 446.227 111.679 448.455 108.025L446.747 106.983ZM438.358 114.88C434.806 116.799 430.791 117.768 426.289 117.768V119.768C431.089 119.768 435.436 118.732 439.309 116.64L438.358 114.88ZM426.289 110.936C429.091 110.936 431.651 110.302 433.946 109.017L432.969 107.271C430.997 108.376 428.778 108.936 426.289 108.936V110.936ZM433.959 109.009C436.251 107.68 438.044 105.84 439.326 103.505L437.573 102.543C436.465 104.56 434.93 106.134 432.956 107.279L433.959 109.009ZM439.319 103.518C440.651 101.176 441.305 98.5275 441.305 95.6H439.305C439.305 98.2192 438.723 100.52 437.58 102.53L439.319 103.518ZM441.305 95.6C441.305 92.6725 440.651 90.0242 439.319 87.6817L437.58 88.6703C438.723 90.6798 439.305 92.9808 439.305 95.6H441.305ZM439.326 87.6947C438.042 85.3572 436.245 83.5351 433.946 82.2475L432.969 83.9925C434.936 85.0942 436.467 86.6428 437.573 88.6573L439.326 87.6947ZM433.959 82.255C431.662 80.9228 429.098 80.264 426.289 80.264V82.264C428.772 82.264 430.986 82.8425 432.956 83.985L433.959 82.255ZM426.289 80.264C423.481 80.264 420.916 80.9228 418.62 82.255L419.623 83.985C421.593 82.8425 423.807 82.264 426.289 82.264V80.264ZM418.633 82.2475C416.336 83.5334 414.521 85.3513 413.196 87.6817L414.935 88.6703C416.084 86.6487 417.639 85.0959 419.61 83.9925L418.633 82.2475ZM413.189 87.6947C411.904 90.0349 411.273 92.6785 411.273 95.6H413.273C413.273 92.9748 413.837 90.6691 414.942 88.6573L413.189 87.6947ZM411.273 95.6C411.273 98.5215 411.904 101.165 413.189 103.505L414.942 102.543C413.837 100.531 413.273 98.2252 413.273 95.6H411.273ZM413.196 103.518C414.519 105.846 416.331 107.681 418.62 109.009L419.623 107.279C417.645 106.132 416.086 104.554 414.935 102.53L413.196 103.518ZM418.633 109.017C420.927 110.302 423.487 110.936 426.289 110.936V108.936C423.801 108.936 421.582 108.376 419.61 107.271L418.633 109.017ZM499.681 73.2H500.681V72.2H499.681V73.2ZM499.681 118V119H500.681V118H499.681ZM491.169 118L490.396 118.635L490.696 119H491.169V118ZM468.833 90.8L469.606 90.1654L467.833 88.0065V90.8H468.833ZM468.833 118V119H469.833V118H468.833ZM458.593 118H457.593V119H458.593V118ZM458.593 73.2V72.2H457.593V73.2H458.593ZM467.169 73.2L467.943 72.5665L467.643 72.2H467.169V73.2ZM489.441 100.4L488.668 101.034L490.441 103.2V100.4H489.441ZM489.441 73.2V72.2H488.441V73.2H489.441ZM498.681 73.2V118H500.681V73.2H498.681ZM499.681 117H491.169V119H499.681V117ZM491.942 117.365L469.606 90.1654L468.06 91.4346L490.396 118.635L491.942 117.365ZM467.833 90.8V118H469.833V90.8H467.833ZM468.833 117H458.593V119H468.833V117ZM459.593 118V73.2H457.593V118H459.593ZM458.593 74.2H467.169V72.2H458.593V74.2ZM466.396 73.8335L488.668 101.034L490.215 99.7665L467.943 72.5665L466.396 73.8335ZM490.441 100.4V73.2H488.441V100.4H490.441ZM489.441 74.2H499.681V72.2H489.441V74.2Z" fill="white"/>
</svg>
