<svg width="282" height="71" viewBox="0 0 282 71" fill="none" xmlns="http://www.w3.org/2000/svg">
<path d="M0.568078 44.8H6.40008V70H0.568078V44.8ZM35.4926 44.8V70H30.7046L18.1406 54.7V70H12.3806V44.8H17.2046L29.7326 60.1V44.8H35.4926ZM46.6748 49.552H38.6108V44.8H60.5708V49.552H52.5068V70H46.6748V49.552ZM83.2207 65.32V70H63.7087V44.8H82.7527V49.48H69.5047V54.952H81.2047V59.488H69.5047V65.32H83.2207ZM103.917 70L99.057 62.98H98.769H93.693V70H87.861V44.8H98.769C101.001 44.8 102.933 45.172 104.565 45.916C106.221 46.66 107.493 47.716 108.381 49.084C109.269 50.452 109.713 52.072 109.713 53.944C109.713 55.816 109.257 57.436 108.345 58.804C107.457 60.148 106.185 61.18 104.529 61.9L110.181 70H103.917ZM103.809 53.944C103.809 52.528 103.353 51.448 102.441 50.704C101.529 49.936 100.197 49.552 98.445 49.552H93.693V58.336H98.445C100.197 58.336 101.529 57.952 102.441 57.184C103.353 56.416 103.809 55.336 103.809 53.944ZM138.562 44.8L127.654 70H121.894L111.022 44.8H117.322L124.99 62.8L132.766 44.8H138.562ZM160.178 65.32V70H140.666V44.8H159.71V49.48H146.462V54.952H158.162V59.488H146.462V65.32H160.178ZM187.93 44.8V70H183.142L170.578 54.7V70H164.818V44.8H169.642L182.17 60.1V44.8H187.93ZM199.112 49.552H191.048V44.8H213.008V49.552H204.944V70H199.112V49.552ZM216.146 44.8H221.978V70H216.146V44.8ZM240.163 70.432C237.547 70.432 235.183 69.868 233.071 68.74C230.983 67.612 229.339 66.064 228.139 64.096C226.963 62.104 226.375 59.872 226.375 57.4C226.375 54.928 226.963 52.708 228.139 50.74C229.339 48.748 230.983 47.188 233.071 46.06C235.183 44.932 237.547 44.368 240.163 44.368C242.779 44.368 245.131 44.932 247.219 46.06C249.307 47.188 250.951 48.748 252.151 50.74C253.351 52.708 253.951 54.928 253.951 57.4C253.951 59.872 253.351 62.104 252.151 64.096C250.951 66.064 249.307 67.612 247.219 68.74C245.131 69.868 242.779 70.432 240.163 70.432ZM240.163 65.464C241.651 65.464 242.995 65.128 244.195 64.456C245.395 63.76 246.331 62.8 247.003 61.576C247.699 60.352 248.047 58.96 248.047 57.4C248.047 55.84 247.699 54.448 247.003 53.224C246.331 52 245.395 51.052 244.195 50.38C242.995 49.684 241.651 49.336 240.163 49.336C238.675 49.336 237.331 49.684 236.131 50.38C234.931 51.052 233.983 52 233.287 53.224C232.615 54.448 232.279 55.84 232.279 57.4C232.279 58.96 232.615 60.352 233.287 61.576C233.983 62.8 234.931 63.76 236.131 64.456C237.331 65.128 238.675 65.464 240.163 65.464ZM281.446 44.8V70H276.658L264.094 54.7V70H258.334V44.8H263.158L275.686 60.1V44.8H281.446Z" fill="white"/>
<path d="M90.5101 13.004V12.004H89.5101V13.004H90.5101ZM95.8381 13.004H96.8381V12.004H95.8381V13.004ZM95.8381 23.228L96.4404 24.0263L96.8381 23.7262V23.228H95.8381ZM91.0861 25.604L91.3793 26.5601L91.0861 25.604ZM78.5941 24.776L78.1188 25.6559L78.1267 25.66L78.5941 24.776ZM73.6621 20.132L72.801 20.6404L72.8046 20.6465L72.8083 20.6526L73.6621 20.132ZM73.6621 6.704L72.8056 6.18798L72.8037 6.19104L73.6621 6.704ZM78.6301 2.06L79.0934 2.94626L79.1012 2.94207L78.6301 2.06ZM91.7701 1.484L92.1521 0.559832V0.559831L91.7701 1.484ZM96.3061 4.724L96.9844 5.4588L97.6956 4.8023L97.0627 4.07005L96.3061 4.724ZM92.5621 8.18L91.8369 8.86851L92.5158 9.58364L93.2404 8.9148L92.5621 8.18ZM81.7621 6.344L82.2362 7.22447L81.7621 6.344ZM78.8461 17.576L77.9769 18.0703L78.8461 17.576ZM81.7261 20.456L81.2318 21.3253L81.2419 21.331L81.252 21.3365L81.7261 20.456ZM90.5101 20.384L90.9824 21.2655L91.5101 20.9827V20.384H90.5101ZM90.5101 14.004H95.8381V12.004H90.5101V14.004ZM94.8381 13.004V23.228H96.8381V13.004H94.8381ZM95.2359 22.4297C93.9697 23.3849 92.4925 24.1268 90.793 24.6479L91.3793 26.5601C93.2798 25.9772 94.9706 25.1351 96.4404 24.0263L95.2359 22.4297ZM90.793 24.6479C89.0849 25.1718 87.3716 25.432 85.6501 25.432V27.432C87.5767 27.432 89.4874 27.1402 91.3793 26.5601L90.793 24.6479ZM85.6501 25.432C83.1792 25.432 80.9905 24.9119 79.0616 23.892L78.1267 25.66C80.3737 26.8481 82.8891 27.432 85.6501 27.432V25.432ZM79.0694 23.8962C77.1324 22.8497 75.621 21.4237 74.5159 19.6114L72.8083 20.6526C74.1033 22.7763 75.8799 24.4463 78.1188 25.6558L79.0694 23.8962ZM74.5233 19.6236C73.4453 17.7977 72.8981 15.7318 72.8981 13.4H70.8981C70.8981 16.0602 71.5269 18.4823 72.801 20.6404L74.5233 19.6236ZM72.8981 13.4C72.8981 11.0681 73.4454 9.01627 74.5206 7.21696L72.8037 6.19104C71.5269 8.32773 70.8981 10.7399 70.8981 13.4H72.8981ZM74.5187 7.22001C75.6216 5.38921 77.1397 3.96745 79.0934 2.94622L78.1669 1.17377C75.8965 2.36055 74.1027 4.03479 72.8056 6.18799L74.5187 7.22001ZM79.1012 2.94207C81.0538 1.89921 83.2653 1.368 85.7581 1.368V-0.632C82.971 -0.632 80.4304 -0.0352135 78.159 1.17792L79.1012 2.94207ZM85.7581 1.368C87.8525 1.368 89.7244 1.72049 91.3882 2.40816L92.1521 0.559831C90.2159 -0.240489 88.0798 -0.632 85.7581 -0.632V1.368ZM91.3882 2.40816C93.05 3.09505 94.4319 4.08486 95.5496 5.37795L97.0627 4.07005C95.7324 2.53114 94.0903 1.36095 92.1521 0.559832L91.3882 2.40816ZM95.6279 3.9892L91.8839 7.4452L93.2404 8.9148L96.9844 5.4588L95.6279 3.9892ZM93.2874 7.49149C91.3045 5.40282 88.8728 4.336 86.0461 4.336V6.336C88.3075 6.336 90.2198 7.16518 91.8369 8.86851L93.2874 7.49149ZM86.0461 4.336C84.2952 4.336 82.7004 4.70304 81.288 5.46353L82.2362 7.22447C83.3199 6.64095 84.5811 6.336 86.0461 6.336V4.336ZM81.288 5.46353C79.8758 6.22395 78.7663 7.30527 77.9769 8.6937L79.7154 9.6823C80.3179 8.62273 81.1525 7.80805 82.2362 7.22447L81.288 5.46353ZM77.9769 8.6937C77.1849 10.0864 76.8021 11.6648 76.8021 13.4H78.8021C78.8021 11.9672 79.1154 10.7376 79.7154 9.6823L77.9769 8.6937ZM76.8021 13.4C76.8021 15.1142 77.1862 16.6798 77.9769 18.0703L79.7154 17.0817C79.1141 16.0242 78.8021 14.8058 78.8021 13.4H76.8021ZM77.9769 18.0703C78.7618 19.4508 79.8514 20.5403 81.2318 21.3253L82.2204 19.5867C81.1529 18.9797 80.3225 18.1492 79.7154 17.0817L77.9769 18.0703ZM81.252 21.3365C82.6622 22.0958 84.2444 22.464 85.9741 22.464V20.464C84.5359 20.464 83.2861 20.1602 82.2002 19.5755L81.252 21.3365ZM85.9741 22.464C87.8018 22.464 89.4787 22.071 90.9824 21.2655L90.0379 19.5025C88.8535 20.137 87.5065 20.464 85.9741 20.464V22.464ZM91.5101 20.384V13.004H89.5101V20.384H91.5101ZM120.768 21.32H121.768V20.32H120.768V21.32ZM120.768 26V27H121.768V26H120.768ZM101.256 26H100.256V27H101.256V26ZM101.256 0.799998V-0.200002H100.256V0.799998H101.256ZM120.3 0.799998H121.3V-0.200002H120.3V0.799998ZM120.3 5.48V6.48H121.3V5.48H120.3ZM107.052 5.48V4.48H106.052V5.48H107.052ZM107.052 10.952H106.052V11.952H107.052V10.952ZM118.752 10.952H119.752V9.952H118.752V10.952ZM118.752 15.488V16.488H119.752V15.488H118.752ZM107.052 15.488V14.488H106.052V15.488H107.052ZM107.052 21.32H106.052V22.32H107.052V21.32ZM119.768 21.32V26H121.768V21.32H119.768ZM120.768 25H101.256V27H120.768V25ZM102.256 26V0.799998H100.256V26H102.256ZM101.256 1.8H120.3V-0.200002H101.256V1.8ZM119.3 0.799998V5.48H121.3V0.799998H119.3ZM120.3 4.48H107.052V6.48H120.3V4.48ZM106.052 5.48V10.952H108.052V5.48H106.052ZM107.052 11.952H118.752V9.952H107.052V11.952ZM117.752 10.952V15.488H119.752V10.952H117.752ZM118.752 14.488H107.052V16.488H118.752V14.488ZM106.052 15.488V21.32H108.052V15.488H106.052ZM107.052 22.32H120.768V20.32H107.052V22.32ZM130.628 5.552H131.628V4.552H130.628V5.552ZM122.564 5.552H121.564V6.552H122.564V5.552ZM122.564 0.799998V-0.200002H121.564V0.799998H122.564ZM144.524 0.799998H145.524V-0.200002H144.524V0.799998ZM144.524 5.552V6.552H145.524V5.552H144.524ZM136.46 5.552V4.552H135.46V5.552H136.46ZM136.46 26V27H137.46V26H136.46ZM130.628 26H129.628V27H130.628V26ZM130.628 4.552H122.564V6.552H130.628V4.552ZM123.564 5.552V0.799998H121.564V5.552H123.564ZM122.564 1.8H144.524V-0.200002H122.564V1.8ZM143.524 0.799998V5.552H145.524V0.799998H143.524ZM144.524 4.552H136.46V6.552H144.524V4.552ZM135.46 5.552V26H137.46V5.552H135.46ZM136.46 25H130.628V27H136.46V25ZM131.628 26V5.552H129.628V26H131.628ZM174.453 20.6L175.377 20.218L175.122 19.6H174.453V20.6ZM162.753 20.6V19.6H162.084L161.829 20.218L162.753 20.6ZM160.521 26V27H161.19L161.445 26.382L160.521 26ZM154.545 26L153.632 25.5929L153.005 27H154.545V26ZM165.777 0.799998V-0.200002H165.128L164.864 0.392892L165.777 0.799998ZM171.537 0.799998L172.45 0.391804L172.185 -0.200002H171.537V0.799998ZM182.805 26V27H184.348L183.718 25.5918L182.805 26ZM176.685 26L175.761 26.382L176.016 27H176.685V26ZM172.617 16.172V17.172H174.114L173.541 15.7893L172.617 16.172ZM168.621 6.524L169.545 6.14134L168.621 3.91069L167.697 6.14134L168.621 6.524ZM164.625 16.172L163.701 15.7893L163.129 17.172H164.625V16.172ZM174.453 19.6H162.753V21.6H174.453V19.6ZM161.829 20.218L159.597 25.618L161.445 26.382L163.677 20.982L161.829 20.218ZM160.521 25H154.545V27H160.521V25ZM155.459 26.4071L166.691 1.2071L164.864 0.392892L153.632 25.5929L155.459 26.4071ZM165.777 1.8H171.537V-0.200002H165.777V1.8ZM170.624 1.20819L181.892 26.4082L183.718 25.5918L172.45 0.391804L170.624 1.20819ZM182.805 25H176.685V27H182.805V25ZM177.609 25.618L175.377 20.218L173.529 20.982L175.761 26.382L177.609 25.618ZM173.541 15.7893L169.545 6.14134L167.697 6.90666L171.693 16.5547L173.541 15.7893ZM167.697 6.14134L163.701 15.7893L165.549 16.5547L169.545 6.90666L167.697 6.14134ZM164.625 17.172H172.617V15.172H164.625V17.172ZM208.532 0.799998H209.532V-0.200002H208.532V0.799998ZM208.532 26V27H209.532V26H208.532ZM203.744 26L202.971 26.6346L203.271 27H203.744V26ZM191.18 10.7L191.952 10.0654L190.18 7.9065V10.7H191.18ZM191.18 26V27H192.18V26H191.18ZM185.42 26H184.42V27H185.42V26ZM185.42 0.799998V-0.200002H184.42V0.799998H185.42ZM190.244 0.799998L191.017 0.166463L190.717 -0.200002H190.244V0.799998ZM202.772 16.1L201.998 16.7335L203.772 18.8997V16.1H202.772ZM202.772 0.799998V-0.200002H201.772V0.799998H202.772ZM207.532 0.799998V26H209.532V0.799998H207.532ZM208.532 25H203.744V27H208.532V25ZM204.516 25.3654L191.952 10.0654L190.407 11.3346L202.971 26.6346L204.516 25.3654ZM190.18 10.7V26H192.18V10.7H190.18ZM191.18 25H185.42V27H191.18V25ZM186.42 26V0.799998H184.42V26H186.42ZM185.42 1.8H190.244V-0.200002H185.42V1.8ZM189.47 1.43353L201.998 16.7335L203.545 15.4665L191.017 0.166463L189.47 1.43353ZM203.772 16.1V0.799998H201.772V16.1H203.772ZM202.772 1.8H208.532V-0.200002H202.772V1.8ZM0.568079 44.8V43.8H-0.431921V44.8H0.568079ZM6.40008 44.8H7.40008V43.8H6.40008V44.8ZM6.40008 70V71H7.40008V70H6.40008ZM0.568079 70H-0.431921V71H0.568079V70ZM0.568079 45.8H6.40008V43.8H0.568079V45.8ZM5.40008 44.8V70H7.40008V44.8H5.40008ZM6.40008 69H0.568079V71H6.40008V69ZM1.56808 70V44.8H-0.431921V70H1.56808ZM35.4926 44.8H36.4926V43.8H35.4926V44.8ZM35.4926 70V71H36.4926V70H35.4926ZM30.7046 70L29.9318 70.6346L30.2318 71H30.7046V70ZM18.1406 54.7L18.9134 54.0654L17.1406 51.9065V54.7H18.1406ZM18.1406 70V71H19.1406V70H18.1406ZM12.3806 70H11.3806V71H12.3806V70ZM12.3806 44.8V43.8H11.3806V44.8H12.3806ZM17.2046 44.8L17.9783 44.1665L17.6782 43.8H17.2046V44.8ZM29.7326 60.1L28.9589 60.7335L30.7326 62.8997V60.1H29.7326ZM29.7326 44.8V43.8H28.7326V44.8H29.7326ZM34.4926 44.8V70H36.4926V44.8H34.4926ZM35.4926 69H30.7046V71H35.4926V69ZM31.4774 69.3654L18.9134 54.0654L17.3678 55.3346L29.9318 70.6346L31.4774 69.3654ZM17.1406 54.7V70H19.1406V54.7H17.1406ZM18.1406 69H12.3806V71H18.1406V69ZM13.3806 70V44.8H11.3806V70H13.3806ZM12.3806 45.8H17.2046V43.8H12.3806V45.8ZM16.4309 45.4335L28.9589 60.7335L30.5063 59.4665L17.9783 44.1665L16.4309 45.4335ZM30.7326 60.1V44.8H28.7326V60.1H30.7326ZM29.7326 45.8H35.4926V43.8H29.7326V45.8ZM46.6748 49.552H47.6748V48.552H46.6748V49.552ZM38.6108 49.552H37.6108V50.552H38.6108V49.552ZM38.6108 44.8V43.8H37.6108V44.8H38.6108ZM60.5708 44.8H61.5708V43.8H60.5708V44.8ZM60.5708 49.552V50.552H61.5708V49.552H60.5708ZM52.5068 49.552V48.552H51.5068V49.552H52.5068ZM52.5068 70V71H53.5068V70H52.5068ZM46.6748 70H45.6748V71H46.6748V70ZM46.6748 48.552H38.6108V50.552H46.6748V48.552ZM39.6108 49.552V44.8H37.6108V49.552H39.6108ZM38.6108 45.8H60.5708V43.8H38.6108V45.8ZM59.5708 44.8V49.552H61.5708V44.8H59.5708ZM60.5708 48.552H52.5068V50.552H60.5708V48.552ZM51.5068 49.552V70H53.5068V49.552H51.5068ZM52.5068 69H46.6748V71H52.5068V69ZM47.6748 70V49.552H45.6748V70H47.6748ZM83.2207 65.32H84.2207V64.32H83.2207V65.32ZM83.2207 70V71H84.2207V70H83.2207ZM63.7087 70H62.7087V71H63.7087V70ZM63.7087 44.8V43.8H62.7087V44.8H63.7087ZM82.7527 44.8H83.7527V43.8H82.7527V44.8ZM82.7527 49.48V50.48H83.7527V49.48H82.7527ZM69.5047 49.48V48.48H68.5047V49.48H69.5047ZM69.5047 54.952H68.5047V55.952H69.5047V54.952ZM81.2047 54.952H82.2047V53.952H81.2047V54.952ZM81.2047 59.488V60.488H82.2047V59.488H81.2047ZM69.5047 59.488V58.488H68.5047V59.488H69.5047ZM69.5047 65.32H68.5047V66.32H69.5047V65.32ZM82.2207 65.32V70H84.2207V65.32H82.2207ZM83.2207 69H63.7087V71H83.2207V69ZM64.7087 70V44.8H62.7087V70H64.7087ZM63.7087 45.8H82.7527V43.8H63.7087V45.8ZM81.7527 44.8V49.48H83.7527V44.8H81.7527ZM82.7527 48.48H69.5047V50.48H82.7527V48.48ZM68.5047 49.48V54.952H70.5047V49.48H68.5047ZM69.5047 55.952H81.2047V53.952H69.5047V55.952ZM80.2047 54.952V59.488H82.2047V54.952H80.2047ZM81.2047 58.488H69.5047V60.488H81.2047V58.488ZM68.5047 59.488V65.32H70.5047V59.488H68.5047ZM69.5047 66.32H83.2207V64.32H69.5047V66.32ZM103.917 70L103.095 70.5692L103.393 71H103.917V70ZM99.057 62.98L99.8792 62.4108L99.581 61.98H99.057V62.98ZM93.693 62.98V61.98H92.693V62.98H93.693ZM93.693 70V71H94.693V70H93.693ZM87.861 70H86.861V71H87.861V70ZM87.861 44.8V43.8H86.861V44.8H87.861ZM104.565 45.916L104.15 46.8259L104.155 46.8282L104.565 45.916ZM108.345 58.804L107.513 58.2493L107.511 58.2527L108.345 58.804ZM104.529 61.9L104.13 60.9829L103.01 61.4701L103.709 62.4722L104.529 61.9ZM110.181 70V71H112.098L111.001 69.4278L110.181 70ZM102.441 50.704L101.797 51.4689L101.803 51.4739L101.809 51.4789L102.441 50.704ZM93.693 49.552V48.552H92.693V49.552H93.693ZM93.693 58.336H92.693V59.336H93.693V58.336ZM102.441 57.184L103.085 57.9489L102.441 57.184ZM104.739 69.4308L99.8792 62.4108L98.2349 63.5492L103.095 70.5692L104.739 69.4308ZM99.057 61.98H98.7691V63.98H99.057V61.98ZM98.7691 61.98H93.693V63.98H98.7691V61.98ZM92.693 62.98V70H94.693V62.98H92.693ZM93.693 69H87.861V71H93.693V69ZM88.861 70V44.8H86.861V70H88.861ZM87.861 45.8H98.7691V43.8H87.861V45.8ZM98.7691 45.8C100.892 45.8 102.676 46.1539 104.15 46.8259L104.98 45.0061C103.19 44.1901 101.11 43.8 98.7691 43.8V45.8ZM104.155 46.8282C105.656 47.5026 106.771 48.4396 107.542 49.6285L109.22 48.5395C108.216 46.9924 106.786 45.8174 104.975 45.0038L104.155 46.8282ZM107.542 49.6285C108.31 50.8114 108.713 52.236 108.713 53.944H110.713C110.713 51.908 110.228 50.0926 109.22 48.5395L107.542 49.6285ZM108.713 53.944C108.713 55.6468 108.301 57.0676 107.513 58.2493L109.177 59.3587C110.213 57.8044 110.713 55.9852 110.713 53.944H108.713ZM107.511 58.2527C106.742 59.4161 105.631 60.3305 104.13 60.9829L104.928 62.8171C106.739 62.0295 108.172 60.8799 109.179 59.3553L107.511 58.2527ZM103.709 62.4722L109.361 70.5722L111.001 69.4278L105.349 61.3278L103.709 62.4722ZM110.181 69H103.917V71H110.181V69ZM104.809 53.944C104.809 52.2951 104.266 50.902 103.073 49.9291L101.809 51.4789C102.44 51.994 102.809 52.7609 102.809 53.944H104.809ZM103.085 49.9391C101.925 48.962 100.325 48.552 98.445 48.552V50.552C100.069 50.552 101.133 50.91 101.797 51.4689L103.085 49.9391ZM98.445 48.552H93.693V50.552H98.445V48.552ZM92.693 49.552V58.336H94.693V49.552H92.693ZM93.693 59.336H98.445V57.336H93.693V59.336ZM98.445 59.336C100.325 59.336 101.925 58.926 103.085 57.9489L101.797 56.4191C101.133 56.978 100.069 57.336 98.445 57.336V59.336ZM103.085 57.9489C104.262 56.9582 104.809 55.5761 104.809 53.944H102.809C102.809 55.0959 102.444 55.8738 101.797 56.4191L103.085 57.9489ZM138.562 44.8L139.479 45.1972L140.084 43.8H138.562V44.8ZM127.654 70V71H128.311L128.571 70.3972L127.654 70ZM121.894 70L120.976 70.3961L121.236 71H121.894V70ZM111.022 44.8V43.8H109.501L110.104 45.1961L111.022 44.8ZM117.322 44.8L118.242 44.4081L117.983 43.8H117.322V44.8ZM124.99 62.8L124.07 63.1919L124.983 65.3365L125.908 63.1966L124.99 62.8ZM132.766 44.8V43.8H132.108L131.848 44.4034L132.766 44.8ZM137.644 44.4028L126.736 69.6028L128.571 70.3972L139.479 45.1972L137.644 44.4028ZM127.654 69H121.894V71H127.654V69ZM122.812 69.6039L111.94 44.4039L110.104 45.1961L120.976 70.3961L122.812 69.6039ZM111.022 45.8H117.322V43.8H111.022V45.8ZM116.402 45.1919L124.07 63.1919L125.91 62.4081L118.242 44.4081L116.402 45.1919ZM125.908 63.1966L133.684 45.1966L131.848 44.4034L124.072 62.4034L125.908 63.1966ZM132.766 45.8H138.562V43.8H132.766V45.8ZM160.178 65.32H161.178V64.32H160.178V65.32ZM160.178 70V71H161.178V70H160.178ZM140.666 70H139.666V71H140.666V70ZM140.666 44.8V43.8H139.666V44.8H140.666ZM159.71 44.8H160.71V43.8H159.71V44.8ZM159.71 49.48V50.48H160.71V49.48H159.71ZM146.462 49.48V48.48H145.462V49.48H146.462ZM146.462 54.952H145.462V55.952H146.462V54.952ZM158.162 54.952H159.162V53.952H158.162V54.952ZM158.162 59.488V60.488H159.162V59.488H158.162ZM146.462 59.488V58.488H145.462V59.488H146.462ZM146.462 65.32H145.462V66.32H146.462V65.32ZM159.178 65.32V70H161.178V65.32H159.178ZM160.178 69H140.666V71H160.178V69ZM141.666 70V44.8H139.666V70H141.666ZM140.666 45.8H159.71V43.8H140.666V45.8ZM158.71 44.8V49.48H160.71V44.8H158.71ZM159.71 48.48H146.462V50.48H159.71V48.48ZM145.462 49.48V54.952H147.462V49.48H145.462ZM146.462 55.952H158.162V53.952H146.462V55.952ZM157.162 54.952V59.488H159.162V54.952H157.162ZM158.162 58.488H146.462V60.488H158.162V58.488ZM145.462 59.488V65.32H147.462V59.488H145.462ZM146.462 66.32H160.178V64.32H146.462V66.32ZM187.93 44.8H188.93V43.8H187.93V44.8ZM187.93 70V71H188.93V70H187.93ZM183.142 70L182.369 70.6346L182.669 71H183.142V70ZM170.578 54.7L171.351 54.0654L169.578 51.9065V54.7H170.578ZM170.578 70V71H171.578V70H170.578ZM164.818 70H163.818V71H164.818V70ZM164.818 44.8V43.8H163.818V44.8H164.818ZM169.642 44.8L170.416 44.1665L170.116 43.8H169.642V44.8ZM182.17 60.1L181.396 60.7335L183.17 62.8997V60.1H182.17ZM182.17 44.8V43.8H181.17V44.8H182.17ZM186.93 44.8V70H188.93V44.8H186.93ZM187.93 69H183.142V71H187.93V69ZM183.915 69.3654L171.351 54.0654L169.805 55.3346L182.369 70.6346L183.915 69.3654ZM169.578 54.7V70H171.578V54.7H169.578ZM170.578 69H164.818V71H170.578V69ZM165.818 70V44.8H163.818V70H165.818ZM164.818 45.8H169.642V43.8H164.818V45.8ZM168.868 45.4335L181.396 60.7335L182.944 59.4665L170.416 44.1665L168.868 45.4335ZM183.17 60.1V44.8H181.17V60.1H183.17ZM182.17 45.8H187.93V43.8H182.17V45.8ZM199.112 49.552H200.112V48.552H199.112V49.552ZM191.048 49.552H190.048V50.552H191.048V49.552ZM191.048 44.8V43.8H190.048V44.8H191.048ZM213.008 44.8H214.008V43.8H213.008V44.8ZM213.008 49.552V50.552H214.008V49.552H213.008ZM204.944 49.552V48.552H203.944V49.552H204.944ZM204.944 70V71H205.944V70H204.944ZM199.112 70H198.112V71H199.112V70ZM199.112 48.552H191.048V50.552H199.112V48.552ZM192.048 49.552V44.8H190.048V49.552H192.048ZM191.048 45.8H213.008V43.8H191.048V45.8ZM212.008 44.8V49.552H214.008V44.8H212.008ZM213.008 48.552H204.944V50.552H213.008V48.552ZM203.944 49.552V70H205.944V49.552H203.944ZM204.944 69H199.112V71H204.944V69ZM200.112 70V49.552H198.112V70H200.112ZM216.146 44.8V43.8H215.146V44.8H216.146ZM221.978 44.8H222.978V43.8H221.978V44.8ZM221.978 70V71H222.978V70H221.978ZM216.146 70H215.146V71H216.146V70ZM216.146 45.8H221.978V43.8H216.146V45.8ZM220.978 44.8V70H222.978V44.8H220.978ZM221.978 69H216.146V71H221.978V69ZM217.146 70V44.8H215.146V70H217.146ZM233.071 68.74L232.595 69.6198L232.6 69.6221L233.071 68.74ZM228.139 64.096L227.278 64.6044L227.281 64.6105L227.285 64.6166L228.139 64.096ZM228.139 50.74L227.282 50.224L227.28 50.227L228.139 50.74ZM233.071 46.06L232.6 45.1779L232.595 45.1802L233.071 46.06ZM252.151 50.74L251.294 51.256L251.297 51.2606L252.151 50.74ZM252.151 64.096L253.005 64.6166L253.007 64.612L252.151 64.096ZM247.219 68.74L247.694 69.6198L247.219 68.74ZM244.195 64.456L244.683 65.3285L244.69 65.3248L244.696 65.321L244.195 64.456ZM247.003 61.576L246.133 61.0817L246.13 61.0882L246.126 61.0947L247.003 61.576ZM247.003 53.224L246.126 53.7053L246.13 53.7118L246.133 53.7183L247.003 53.224ZM244.195 50.38L243.693 51.245L243.7 51.2488L243.706 51.2525L244.195 50.38ZM236.131 50.38L236.619 51.2525L236.626 51.2488L236.632 51.245L236.131 50.38ZM233.287 53.224L232.417 52.7297L232.414 52.7362L232.41 52.7427L233.287 53.224ZM233.287 61.576L232.41 62.0573L232.414 62.0638L232.417 62.0703L233.287 61.576ZM236.131 64.456L235.629 65.321L235.636 65.3248L235.642 65.3285L236.131 64.456ZM240.163 69.432C237.695 69.432 235.496 68.9015 233.542 67.8579L232.6 69.6221C234.87 70.8345 237.398 71.432 240.163 71.432V69.432ZM233.546 67.8602C231.609 66.8137 230.098 65.3877 228.992 63.5754L227.285 64.6166C228.58 66.7403 230.356 68.4103 232.595 69.6198L233.546 67.8602ZM229 63.5876C227.921 61.7602 227.375 59.7059 227.375 57.4H225.375C225.375 60.0381 226.004 62.4478 227.278 64.6044L229 63.5876ZM227.375 57.4C227.375 55.094 227.921 53.0538 228.997 51.253L227.28 50.227C226.004 52.3622 225.375 54.762 225.375 57.4H227.375ZM228.995 51.256C230.101 49.4205 231.612 47.9847 233.546 46.9398L232.595 45.1802C230.353 46.3913 228.576 48.0755 227.282 50.224L228.995 51.256ZM233.542 46.9421C235.496 45.8985 237.695 45.368 240.163 45.368V43.368C237.398 43.368 234.87 43.9655 232.6 45.1779L233.542 46.9421ZM240.163 45.368C242.63 45.368 244.816 45.8985 246.743 46.9398L247.694 45.1802C245.445 43.9655 242.927 43.368 240.163 43.368V45.368ZM246.743 46.9398C248.677 47.9847 250.188 49.4205 251.294 51.256L253.007 50.224C251.713 48.0755 249.936 46.3913 247.694 45.1802L246.743 46.9398ZM251.297 51.2606C252.394 53.0604 252.951 55.0978 252.951 57.4H254.951C254.951 54.7582 254.307 52.3556 253.004 50.2194L251.297 51.2606ZM252.951 57.4C252.951 59.7021 252.394 61.7537 251.294 63.58L253.007 64.612C254.307 62.4543 254.951 60.0419 254.951 57.4H252.951ZM251.297 63.5754C250.192 65.3877 248.68 66.8137 246.743 67.8602L247.694 69.6198C249.933 68.4103 251.71 66.7403 253.004 64.6166L251.297 63.5754ZM246.743 67.8602C244.816 68.9015 242.63 69.432 240.163 69.432V71.432C242.927 71.432 245.445 70.8345 247.694 69.6198L246.743 67.8602ZM240.163 66.464C241.807 66.464 243.322 66.0909 244.683 65.3285L243.706 63.5835C242.667 64.1651 241.494 64.464 240.163 64.464V66.464ZM244.696 65.321C246.055 64.533 247.12 63.4398 247.879 62.0573L246.126 61.0947C245.541 62.1602 244.734 62.987 243.693 63.591L244.696 65.321ZM247.872 62.0703C248.663 60.6798 249.047 59.1142 249.047 57.4H247.047C247.047 58.8058 246.735 60.0242 246.133 61.0817L247.872 62.0703ZM249.047 57.4C249.047 55.6858 248.663 54.1202 247.872 52.7297L246.133 53.7183C246.735 54.7758 247.047 55.9942 247.047 57.4H249.047ZM247.879 52.7427C247.119 51.3572 246.049 50.2725 244.683 49.5075L243.706 51.2525C244.74 51.8315 245.543 52.6428 246.126 53.7053L247.879 52.7427ZM244.696 49.515C243.333 48.7241 241.814 48.336 240.163 48.336V50.336C241.488 50.336 242.656 50.6439 243.693 51.245L244.696 49.515ZM240.163 48.336C238.512 48.336 236.992 48.7241 235.629 49.515L236.632 51.245C237.669 50.6439 238.838 50.336 240.163 50.336V48.336ZM235.642 49.5075C234.279 50.2707 233.201 51.3513 232.417 52.7297L234.156 53.7183C234.764 52.6487 235.582 51.8333 236.619 51.2525L235.642 49.5075ZM232.41 52.7427C231.648 54.1309 231.279 55.6918 231.279 57.4H233.279C233.279 55.9882 233.581 54.7651 234.163 53.7053L232.41 52.7427ZM231.279 57.4C231.279 59.1082 231.648 60.6691 232.41 62.0573L234.163 61.0947C233.581 60.0349 233.279 58.8118 233.279 57.4H231.279ZM232.417 62.0703C233.2 63.4458 234.273 64.5348 235.629 65.321L236.632 63.591C235.588 62.9852 234.766 62.1542 234.156 61.0817L232.417 62.0703ZM235.642 65.3285C237.003 66.0909 238.518 66.464 240.163 66.464V64.464C238.831 64.464 237.658 64.1651 236.619 63.5835L235.642 65.3285ZM281.446 44.8H282.446V43.8H281.446V44.8ZM281.446 70V71H282.446V70H281.446ZM276.658 70L275.885 70.6346L276.185 71H276.658V70ZM264.094 54.7L264.867 54.0654L263.094 51.9065V54.7H264.094ZM264.094 70V71H265.094V70H264.094ZM258.334 70H257.334V71H258.334V70ZM258.334 44.8V43.8H257.334V44.8H258.334ZM263.158 44.8L263.931 44.1665L263.631 43.8H263.158V44.8ZM275.686 60.1L274.912 60.7335L276.686 62.8997V60.1H275.686ZM275.686 44.8V43.8H274.686V44.8H275.686ZM280.446 44.8V70H282.446V44.8H280.446ZM281.446 69H276.658V71H281.446V69ZM277.431 69.3654L264.867 54.0654L263.321 55.3346L275.885 70.6346L277.431 69.3654ZM263.094 54.7V70H265.094V54.7H263.094ZM264.094 69H258.334V71H264.094V69ZM259.334 70V44.8H257.334V70H259.334ZM258.334 45.8H263.158V43.8H258.334V45.8ZM262.384 45.4335L274.912 60.7335L276.459 59.4665L263.931 44.1665L262.384 45.4335ZM276.686 60.1V44.8H274.686V60.1H276.686ZM275.686 45.8H281.446V43.8H275.686V45.8Z" fill="white"/>
</svg>
