<svg width="246" height="55" viewBox="0 0 246 55" fill="none" xmlns="http://www.w3.org/2000/svg">
<path d="M60.4929 18.288C58.7809 18.288 57.2289 17.92 55.8369 17.184C54.4609 16.432 53.3729 15.4 52.5729 14.088C51.7889 12.76 51.3969 11.264 51.3969 9.6C51.3969 7.936 51.7889 6.448 52.5729 5.136C53.3729 3.808 54.4609 2.776 55.8369 2.04C57.2289 1.288 58.7889 0.912 60.5169 0.912C61.9729 0.912 63.2849 1.168 64.4529 1.68C65.6369 2.192 66.6289 2.928 67.4289 3.888L64.9329 6.192C63.7969 4.88 62.3889 4.224 60.7089 4.224C59.6689 4.224 58.7409 4.456 57.9249 4.92C57.1089 5.368 56.4689 6 56.0049 6.816C55.5569 7.632 55.3329 8.56 55.3329 9.6C55.3329 10.64 55.5569 11.568 56.0049 12.384C56.4689 13.2 57.1089 13.84 57.9249 14.304C58.7409 14.752 59.6689 14.976 60.7089 14.976C62.3889 14.976 63.7969 14.312 64.9329 12.984L67.4289 15.288C66.6289 16.264 65.6369 17.008 64.4529 17.52C63.2689 18.032 61.9489 18.288 60.4929 18.288ZM80.7904 14.4H72.9904L71.5024 18H67.5184L75.0064 1.2H78.8464L86.3584 18H82.2784L80.7904 14.4ZM79.5664 11.448L76.9024 5.016L74.2384 11.448H79.5664ZM103.509 1.2V18H100.317L91.9414 7.8V18H88.1014V1.2H91.3174L99.6694 11.4V1.2H103.509ZM122.417 18.288C120.673 18.288 119.097 17.912 117.689 17.16C116.297 16.408 115.201 15.376 114.401 14.064C113.617 12.736 113.225 11.248 113.225 9.6C113.225 7.952 113.617 6.472 114.401 5.16C115.201 3.832 116.297 2.792 117.689 2.04C119.097 1.288 120.673 0.912 122.417 0.912C124.161 0.912 125.729 1.288 127.121 2.04C128.513 2.792 129.609 3.832 130.409 5.16C131.209 6.472 131.609 7.952 131.609 9.6C131.609 11.248 131.209 12.736 130.409 14.064C129.609 15.376 128.513 16.408 127.121 17.16C125.729 17.912 124.161 18.288 122.417 18.288ZM122.417 14.976C123.409 14.976 124.305 14.752 125.105 14.304C125.905 13.84 126.529 13.2 126.977 12.384C127.441 11.568 127.673 10.64 127.673 9.6C127.673 8.56 127.441 7.632 126.977 6.816C126.529 6 125.905 5.368 125.105 4.92C124.305 4.456 123.409 4.224 122.417 4.224C121.425 4.224 120.529 4.456 119.729 4.92C118.929 5.368 118.297 6 117.833 6.816C117.385 7.632 117.161 8.56 117.161 9.6C117.161 10.64 117.385 11.568 117.833 12.384C118.297 13.2 118.929 13.84 119.729 14.304C120.529 14.752 121.425 14.976 122.417 14.976ZM145.235 18L141.995 13.32H141.803H138.419V18H134.531V1.2H141.803C143.291 1.2 144.579 1.448 145.667 1.944C146.771 2.44 147.619 3.144 148.211 4.056C148.803 4.968 149.099 6.048 149.099 7.296C149.099 8.544 148.795 9.624 148.187 10.536C147.595 11.432 146.747 12.12 145.643 12.6L149.411 18H145.235ZM145.163 7.296C145.163 6.352 144.859 5.632 144.251 5.136C143.643 4.624 142.755 4.368 141.587 4.368H138.419V10.224H141.587C142.755 10.224 143.643 9.968 144.251 9.456C144.859 8.944 145.163 8.224 145.163 7.296ZM163.532 9.336H167.084V16.152C166.172 16.84 165.116 17.368 163.916 17.736C162.716 18.104 161.508 18.288 160.292 18.288C158.548 18.288 156.98 17.92 155.588 17.184C154.196 16.432 153.1 15.4 152.3 14.088C151.516 12.76 151.124 11.264 151.124 9.6C151.124 7.936 151.516 6.448 152.3 5.136C153.1 3.808 154.204 2.776 155.612 2.04C157.02 1.288 158.604 0.912 160.364 0.912C161.836 0.912 163.172 1.16 164.372 1.656C165.572 2.152 166.58 2.872 167.396 3.816L164.9 6.12C163.7 4.856 162.252 4.224 160.556 4.224C159.484 4.224 158.532 4.448 157.7 4.896C156.868 5.344 156.22 5.976 155.756 6.792C155.292 7.608 155.06 8.544 155.06 9.6C155.06 10.64 155.292 11.568 155.756 12.384C156.22 13.2 156.86 13.84 157.676 14.304C158.508 14.752 159.452 14.976 160.508 14.976C161.628 14.976 162.636 14.736 163.532 14.256V9.336ZM181.759 14.4H173.959L172.471 18H168.487L175.975 1.2H179.815L187.327 18H183.247L181.759 14.4ZM180.535 11.448L177.871 5.016L175.207 11.448H180.535ZM204.478 1.2V18H201.286L192.91 7.8V18H189.07V1.2H192.286L200.638 11.4V1.2H204.478ZM208.453 1.2H212.341V18H208.453V1.2ZM229.936 14.832V18H215.248V15.48L224.464 4.368H215.44V1.2H229.576V3.72L220.384 14.832H229.936ZM245.438 14.88V18H232.43V1.2H245.126V4.32H236.294V7.968H244.094V10.992H236.294V14.88H245.438ZM15 50.88V54H1.992V37.2H14.688V40.32H5.856V43.968H13.656V46.992H5.856V50.88H15ZM34.0112 37.2L26.7392 54H22.8992L15.6512 37.2H19.8512L24.9632 49.2L30.1472 37.2H34.0112ZM48.4219 50.88V54H35.4139V37.2H48.1099V40.32H39.2779V43.968H47.0779V46.992H39.2779V50.88H48.4219ZM62.2194 54L58.9794 49.32H58.7874H55.4034V54H51.5154V37.2H58.7874C60.2754 37.2 61.5634 37.448 62.6514 37.944C63.7554 38.44 64.6034 39.144 65.1954 40.056C65.7874 40.968 66.0834 42.048 66.0834 43.296C66.0834 44.544 65.7794 45.624 65.1714 46.536C64.5794 47.432 63.7314 48.12 62.6274 48.6L66.3954 54H62.2194ZM62.1474 43.296C62.1474 42.352 61.8434 41.632 61.2354 41.136C60.6274 40.624 59.7394 40.368 58.5714 40.368H55.4034V46.224H58.5714C59.7394 46.224 60.6274 45.968 61.2354 45.456C61.8434 44.944 62.1474 44.224 62.1474 43.296ZM76.9935 48.048V54H73.1055V48L66.6015 37.2H70.7295L75.2175 44.664L79.7055 37.2H83.5215L76.9935 48.048ZM88.3236 40.368H82.9476V37.2H97.5876V40.368H92.2116V54H88.3236V40.368ZM115.088 37.2V54H111.2V47.112H103.568V54H99.6795V37.2H103.568V43.824H111.2V37.2H115.088ZM119.062 37.2H122.95V54H119.062V37.2ZM142.345 37.2V54H139.153L130.777 43.8V54H126.937V37.2H130.153L138.505 47.4V37.2H142.345ZM157.672 45.336H161.224V52.152C160.312 52.84 159.256 53.368 158.056 53.736C156.856 54.104 155.648 54.288 154.432 54.288C152.688 54.288 151.12 53.92 149.728 53.184C148.336 52.432 147.24 51.4 146.44 50.088C145.656 48.76 145.264 47.264 145.264 45.6C145.264 43.936 145.656 42.448 146.44 41.136C147.24 39.808 148.344 38.776 149.752 38.04C151.16 37.288 152.744 36.912 154.504 36.912C155.976 36.912 157.312 37.16 158.512 37.656C159.712 38.152 160.72 38.872 161.536 39.816L159.04 42.12C157.84 40.856 156.392 40.224 154.696 40.224C153.624 40.224 152.672 40.448 151.84 40.896C151.008 41.344 150.36 41.976 149.896 42.792C149.432 43.608 149.2 44.544 149.2 45.6C149.2 46.64 149.432 47.568 149.896 48.384C150.36 49.2 151 49.84 151.816 50.304C152.648 50.752 153.592 50.976 154.648 50.976C155.768 50.976 156.776 50.736 157.672 50.256V45.336Z" fill="#333333"/>
<path d="M27.384 1.2L28.3344 1.51093L28.7633 0.199999H27.384V1.2ZM21.888 18V19H22.613L22.8384 18.3109L21.888 18ZM17.712 18L16.7609 18.309L16.9854 19H17.712V18ZM14.016 6.624L14.9671 6.315L14.0312 3.43439L13.0679 6.30597L14.016 6.624ZM10.2 18V19H10.9193L11.1481 18.318L10.2 18ZM6.048 18L5.09797 18.3122L5.32398 19H6.048V18ZM0.528 1.2V0.199999H-0.853168L-0.422032 1.51215L0.528 1.2ZM4.56 1.2L5.51211 0.89424L5.28916 0.199999H4.56V1.2ZM8.352 13.008L7.39989 13.3138L8.33141 16.2144L9.3001 13.326L8.352 13.008ZM12.312 1.2V0.199999H11.5926L11.3639 0.882037L12.312 1.2ZM15.912 1.2L16.8637 0.892996L16.6402 0.199999H15.912V1.2ZM19.752 13.104L18.8003 13.411L19.7432 16.3339L20.702 13.4162L19.752 13.104ZM23.664 1.2V0.199999H22.94L22.714 0.887796L23.664 1.2ZM26.4336 0.889071L20.9376 17.6891L22.8384 18.3109L28.3344 1.51093L26.4336 0.889071ZM21.888 17H17.712V19H21.888V17ZM18.6631 17.691L14.9671 6.315L13.0649 6.93299L16.7609 18.309L18.6631 17.691ZM13.0679 6.30597L9.25192 17.682L11.1481 18.318L14.9641 6.94203L13.0679 6.30597ZM10.2 17H6.048V19H10.2V17ZM6.99803 17.6878L1.47803 0.887846L-0.422032 1.51215L5.09797 18.3122L6.99803 17.6878ZM0.528 2.2H4.56V0.199999H0.528V2.2ZM3.60789 1.50576L7.39989 13.3138L9.30411 12.7022L5.51211 0.89424L3.60789 1.50576ZM9.3001 13.326L13.2601 1.51796L11.3639 0.882037L7.4039 12.69L9.3001 13.326ZM12.312 2.2H15.912V0.199999H12.312V2.2ZM14.9603 1.507L18.8003 13.411L20.7037 12.797L16.8637 0.892996L14.9603 1.507ZM20.702 13.4162L24.614 1.5122L22.714 0.887796L18.802 12.7918L20.702 13.4162ZM23.664 2.2H27.384V0.199999H23.664V2.2ZM42.5625 14.88H43.5625V13.88H42.5625V14.88ZM42.5625 18V19H43.5625V18H42.5625ZM29.5545 18H28.5545V19H29.5545V18ZM29.5545 1.2V0.199999H28.5545V1.2H29.5545ZM42.2505 1.2H43.2505V0.199999H42.2505V1.2ZM42.2505 4.32V5.32H43.2505V4.32H42.2505ZM33.4185 4.32V3.32H32.4185V4.32H33.4185ZM33.4185 7.968H32.4185V8.968H33.4185V7.968ZM41.2185 7.968H42.2185V6.968H41.2185V7.968ZM41.2185 10.992V11.992H42.2185V10.992H41.2185ZM33.4185 10.992V9.992H32.4185V10.992H33.4185ZM33.4185 14.88H32.4185V15.88H33.4185V14.88ZM41.5625 14.88V18H43.5625V14.88H41.5625ZM42.5625 17H29.5545V19H42.5625V17ZM30.5545 18V1.2H28.5545V18H30.5545ZM29.5545 2.2H42.2505V0.199999H29.5545V2.2ZM41.2505 1.2V4.32H43.2505V1.2H41.2505ZM42.2505 3.32H33.4185V5.32H42.2505V3.32ZM32.4185 4.32V7.968H34.4185V4.32H32.4185ZM33.4185 8.968H41.2185V6.968H33.4185V8.968ZM40.2185 7.968V10.992H42.2185V7.968H40.2185ZM41.2185 9.992H33.4185V11.992H41.2185V9.992ZM32.4185 10.992V14.88H34.4185V10.992H32.4185ZM33.4185 15.88H42.5625V13.88H33.4185V15.88ZM55.8369 17.184L55.3573 18.0616L55.3695 18.068L55.8369 17.184ZM52.5729 14.088L51.7118 14.5964L51.7154 14.6025L51.7191 14.6086L52.5729 14.088ZM52.5729 5.136L51.7164 4.61998L51.7145 4.62304L52.5729 5.136ZM55.8369 2.04L56.3086 2.92179L56.3122 2.91982L55.8369 2.04ZM64.4529 1.68L64.0515 2.59588L64.056 2.59786L64.4529 1.68ZM67.4289 3.888L68.1072 4.6228L68.8057 3.97806L68.1972 3.24782L67.4289 3.888ZM64.9329 6.192L64.1769 6.84658L64.8527 7.627L65.6112 6.9268L64.9329 6.192ZM57.9249 4.92L58.4062 5.79658L58.4127 5.79298L58.4192 5.78929L57.9249 4.92ZM56.0049 6.816L55.1356 6.3217L55.132 6.32819L55.1284 6.33474L56.0049 6.816ZM56.0049 12.384L55.1284 12.8653L55.132 12.8718L55.1356 12.8783L56.0049 12.384ZM57.9249 14.304L57.4306 15.1733L57.4371 15.177L57.4437 15.1806L57.9249 14.304ZM64.9329 12.984L65.6112 12.2492L64.8481 11.5448L64.173 12.334L64.9329 12.984ZM67.4289 15.288L68.2023 15.9219L68.8 15.1927L68.1072 14.5532L67.4289 15.288ZM64.4529 17.52L64.056 16.6021L64.4529 17.52ZM60.4929 17.288C58.9293 17.288 57.54 16.9533 56.3044 16.3L55.3695 18.068C56.9179 18.8867 58.6326 19.288 60.4929 19.288V17.288ZM56.3165 16.3065C55.0911 15.6368 54.1335 14.7265 53.4267 13.5674L51.7191 14.6086C52.6124 16.0735 53.8308 17.2272 55.3574 18.0615L56.3165 16.3065ZM53.4341 13.5796C52.7481 12.4177 52.3969 11.0998 52.3969 9.6H50.3969C50.3969 11.4282 50.8297 13.1023 51.7118 14.5964L53.4341 13.5796ZM52.3969 9.6C52.3969 8.10007 52.7481 6.79227 53.4314 5.64896L51.7145 4.62304C50.8297 6.10373 50.3969 7.77192 50.3969 9.6H52.3969ZM53.4295 5.65201C54.1359 4.47946 55.0904 3.57336 56.3086 2.92178L55.3653 1.15821C53.8315 1.97864 52.61 3.13654 51.7164 4.61999L53.4295 5.65201ZM56.3122 2.91982C57.5451 2.25382 58.9392 1.912 60.5169 1.912V-0.0880003C58.6386 -0.0880003 56.9128 0.322178 55.3616 1.16018L56.3122 2.91982ZM60.5169 1.912C61.8542 1.912 63.0268 2.14668 64.0515 2.59587L64.8544 0.764131C63.5431 0.189315 62.0916 -0.0880003 60.5169 -0.0880003V1.912ZM64.056 2.59786C65.101 3.04974 65.9643 3.69251 66.6607 4.52818L68.1972 3.24782C67.2936 2.16349 66.1729 1.33426 64.8498 0.762143L64.056 2.59786ZM66.7507 3.1532L64.2547 5.4572L65.6112 6.9268L68.1072 4.6228L66.7507 3.1532ZM65.6889 5.53742C64.3702 4.01434 62.6899 3.224 60.7089 3.224V5.224C62.088 5.224 63.2237 5.74566 64.1769 6.84658L65.6889 5.53742ZM60.7089 3.224C59.5148 3.224 58.4131 3.49205 57.4306 4.05071L58.4192 5.78929C59.0688 5.41995 59.8231 5.224 60.7089 5.224V3.224ZM57.4437 4.04342C56.464 4.58127 55.6903 5.34625 55.1356 6.3217L56.8742 7.3103C57.2476 6.65375 57.7539 6.15473 58.4062 5.79658L57.4437 4.04342ZM55.1284 6.33474C54.5902 7.31488 54.3329 8.41183 54.3329 9.6H56.3329C56.3329 8.70817 56.5236 7.94912 56.8815 7.29726L55.1284 6.33474ZM54.3329 9.6C54.3329 10.7882 54.5902 11.8851 55.1284 12.8653L56.8815 11.9027C56.5236 11.2509 56.3329 10.4918 56.3329 9.6H54.3329ZM55.1356 12.8783C55.6886 13.8508 56.4582 14.6203 57.4306 15.1733L58.4192 13.4347C57.7597 13.0597 57.2493 12.5492 56.8742 11.8897L55.1356 12.8783ZM57.4437 15.1806C58.4238 15.7187 59.5208 15.976 60.7089 15.976V13.976C59.8171 13.976 59.0581 13.7853 58.4062 13.4274L57.4437 15.1806ZM60.7089 15.976C62.6944 15.976 64.3756 15.1739 65.6928 13.634L64.173 12.334C63.2183 13.4501 62.0835 13.976 60.7089 13.976V15.976ZM64.2547 13.7188L66.7507 16.0228L68.1072 14.5532L65.6112 12.2492L64.2547 13.7188ZM66.6555 14.6541C65.9589 15.504 65.0971 16.152 64.056 16.6021L64.8498 18.4379C66.1768 17.864 67.299 17.024 68.2023 15.9219L66.6555 14.6541ZM64.056 16.6021C63.0125 17.0534 61.83 17.288 60.4929 17.288V19.288C62.0679 19.288 63.5254 19.0106 64.8498 18.4379L64.056 16.6021ZM80.7904 14.4L81.7145 14.018L81.4591 13.4H80.7904V14.4ZM72.9904 14.4V13.4H72.3217L72.0662 14.018L72.9904 14.4ZM71.5024 18V19H72.1711L72.4265 18.382L71.5024 18ZM67.5184 18L66.605 17.5929L65.9778 19H67.5184V18ZM75.0064 1.2V0.199999H74.3573L74.093 0.792892L75.0064 1.2ZM78.8464 1.2L79.7593 0.791804L79.4947 0.199999H78.8464V1.2ZM86.3584 18V19H87.9009L87.2713 17.5918L86.3584 18ZM82.2784 18L81.3542 18.382L81.6096 19H82.2784V18ZM79.5664 11.448V12.448H81.0629L80.4903 11.0653L79.5664 11.448ZM76.9024 5.016L77.8263 4.63334L76.9024 2.40269L75.9785 4.63334L76.9024 5.016ZM74.2384 11.448L73.3145 11.0653L72.7418 12.448H74.2384V11.448ZM80.7904 13.4H72.9904V15.4H80.7904V13.4ZM72.0662 14.018L70.5782 17.618L72.4265 18.382L73.9145 14.782L72.0662 14.018ZM71.5024 17H67.5184V19H71.5024V17ZM68.4318 18.4071L75.9198 1.60711L74.093 0.792892L66.605 17.5929L68.4318 18.4071ZM75.0064 2.2H78.8464V0.199999H75.0064V2.2ZM77.9335 1.60819L85.4455 18.4082L87.2713 17.5918L79.7593 0.791804L77.9335 1.60819ZM86.3584 17H82.2784V19H86.3584V17ZM83.2025 17.618L81.7145 14.018L79.8662 14.782L81.3542 18.382L83.2025 17.618ZM80.4903 11.0653L77.8263 4.63334L75.9785 5.39866L78.6425 11.8307L80.4903 11.0653ZM75.9785 4.63334L73.3145 11.0653L75.1623 11.8307L77.8263 5.39866L75.9785 4.63334ZM74.2384 12.448H79.5664V10.448H74.2384V12.448ZM103.509 1.2H104.509V0.199999H103.509V1.2ZM103.509 18V19H104.509V18H103.509ZM100.317 18L99.5446 18.6346L99.8446 19H100.317V18ZM91.9414 7.8L92.7142 7.16538L90.9414 5.0065V7.8H91.9414ZM91.9414 18V19H92.9414V18H91.9414ZM88.1014 18H87.1014V19H88.1014V18ZM88.1014 1.2V0.199999H87.1014V1.2H88.1014ZM91.3174 1.2L92.0911 0.566463L91.791 0.199999H91.3174V1.2ZM99.6694 11.4L98.8957 12.0335L100.669 14.1997V11.4H99.6694ZM99.6694 1.2V0.199999H98.6694V1.2H99.6694ZM102.509 1.2V18H104.509V1.2H102.509ZM103.509 17H100.317V19H103.509V17ZM101.09 17.3654L92.7142 7.16538L91.1686 8.43462L99.5446 18.6346L101.09 17.3654ZM90.9414 7.8V18H92.9414V7.8H90.9414ZM91.9414 17H88.1014V19H91.9414V17ZM89.1014 18V1.2H87.1014V18H89.1014ZM88.1014 2.2H91.3174V0.199999H88.1014V2.2ZM90.5437 1.83353L98.8957 12.0335L100.443 10.7665L92.0911 0.566463L90.5437 1.83353ZM100.669 11.4V1.2H98.6694V11.4H100.669ZM99.6694 2.2H103.509V0.199999H99.6694V2.2ZM117.689 17.16L117.214 18.0398L117.218 18.0421L117.689 17.16ZM114.401 14.064L113.54 14.5724L113.544 14.5785L113.547 14.5846L114.401 14.064ZM114.401 5.16L113.544 4.64398L113.543 4.64704L114.401 5.16ZM117.689 2.04L117.218 1.15791L117.214 1.16018L117.689 2.04ZM130.409 5.16L129.552 5.67602L129.555 5.68061L130.409 5.16ZM130.409 14.064L131.263 14.5846L131.266 14.58L130.409 14.064ZM127.121 17.16L127.596 18.0398L127.121 17.16ZM125.105 14.304L125.594 15.1765L125.6 15.1728L125.607 15.169L125.105 14.304ZM126.977 12.384L126.108 11.8897L126.104 11.8962L126.1 11.9027L126.977 12.384ZM126.977 6.816L126.1 7.29726L126.104 7.30381L126.108 7.3103L126.977 6.816ZM125.105 4.92L124.603 5.78503L124.61 5.78882L124.616 5.79251L125.105 4.92ZM119.729 4.92L120.218 5.79251L120.224 5.78882L120.231 5.78503L119.729 4.92ZM117.833 6.816L116.964 6.3217L116.96 6.32819L116.956 6.33474L117.833 6.816ZM117.833 12.384L116.956 12.8653L116.96 12.8718L116.964 12.8783L117.833 12.384ZM119.729 14.304L119.227 15.169L119.234 15.1728L119.24 15.1765L119.729 14.304ZM122.417 17.288C120.822 17.288 119.41 16.9455 118.16 16.2779L117.218 18.0421C118.784 18.8785 120.524 19.288 122.417 19.288V17.288ZM118.164 16.2802C116.923 15.6097 115.96 14.6997 115.255 13.5434L113.547 14.5846C114.442 16.0523 115.671 17.2063 117.214 18.0398L118.164 16.2802ZM115.262 13.5556C114.575 12.3922 114.225 11.0819 114.225 9.6H112.225C112.225 11.4141 112.659 13.0798 113.54 14.5724L115.262 13.5556ZM114.225 9.6C114.225 8.11799 114.575 6.81779 115.259 5.67295L113.543 4.64704C112.659 6.12621 112.225 7.78601 112.225 9.6H114.225ZM115.258 5.67601C115.963 4.50446 116.926 3.58865 118.164 2.91982L117.214 1.16018C115.668 1.99535 114.439 3.15954 113.544 4.64399L115.258 5.67601ZM118.16 2.92208C119.41 2.25451 120.822 1.912 122.417 1.912V-0.0880003C120.524 -0.0880003 118.784 0.321491 117.218 1.15792L118.16 2.92208ZM122.417 1.912C124.012 1.912 125.414 2.25455 126.646 2.91982L127.596 1.16018C126.044 0.321454 124.31 -0.0880003 122.417 -0.0880003V1.912ZM126.646 2.91982C127.884 3.58865 128.847 4.50446 129.552 5.67601L131.266 4.64399C130.371 3.15954 129.142 1.99535 127.596 1.16018L126.646 2.91982ZM129.555 5.68061C130.253 6.82439 130.609 8.12184 130.609 9.6H132.609C132.609 7.78216 132.165 6.11961 131.263 4.63939L129.555 5.68061ZM130.609 9.6C130.609 11.0781 130.253 12.3857 129.552 13.548L131.266 14.58C132.165 13.0863 132.609 11.4179 132.609 9.6H130.609ZM129.555 13.5434C128.85 14.6997 127.887 15.6097 126.646 16.2802L127.596 18.0398C129.139 17.2063 130.368 16.0523 131.263 14.5846L129.555 13.5434ZM126.646 16.2802C125.414 16.9455 124.012 17.288 122.417 17.288V19.288C124.31 19.288 126.044 18.8785 127.596 18.0398L126.646 16.2802ZM122.417 15.976C123.566 15.976 124.632 15.7149 125.594 15.1765L124.616 13.4315C123.978 13.7891 123.252 13.976 122.417 13.976V15.976ZM125.607 15.169C126.565 14.613 127.319 13.8398 127.854 12.8653L126.1 11.9027C125.74 12.5602 125.245 13.067 124.603 13.439L125.607 15.169ZM127.846 12.8783C128.405 11.8958 128.673 10.7942 128.673 9.6H126.673C126.673 10.4858 126.477 11.2402 126.108 11.8897L127.846 12.8783ZM128.673 9.6C128.673 8.40584 128.405 7.30417 127.846 6.3217L126.108 7.3103C126.477 7.95983 126.673 8.71416 126.673 9.6H128.673ZM127.854 6.33474C127.317 5.35721 126.56 4.58847 125.594 4.04749L124.616 5.79251C125.25 6.14753 125.741 6.64278 126.1 7.29726L127.854 6.33474ZM125.607 4.05497C124.643 3.49614 123.572 3.224 122.417 3.224V5.224C123.246 5.224 123.967 5.41586 124.603 5.78503L125.607 4.05497ZM122.417 3.224C121.262 3.224 120.191 3.49614 119.227 4.05497L120.231 5.78503C120.867 5.41586 121.588 5.224 122.417 5.224V3.224ZM119.24 4.04749C118.278 4.58672 117.516 5.35126 116.964 6.3217L118.702 7.3103C119.079 6.64874 119.581 6.14928 120.218 5.79251L119.24 4.04749ZM116.956 6.33474C116.418 7.31488 116.161 8.41183 116.161 9.6H118.161C118.161 8.70817 118.352 7.94912 118.71 7.29726L116.956 6.33474ZM116.161 9.6C116.161 10.7882 116.418 11.8851 116.956 12.8653L118.71 11.9027C118.352 11.2509 118.161 10.4918 118.161 9.6H116.161ZM116.964 12.8783C117.514 13.8458 118.272 14.6148 119.227 15.169L120.231 13.439C119.586 13.0652 119.08 12.5542 118.702 11.8897L116.964 12.8783ZM119.24 15.1765C120.202 15.7149 121.268 15.976 122.417 15.976V13.976C121.582 13.976 120.856 13.7891 120.218 13.4315L119.24 15.1765ZM145.235 18L144.413 18.5692L144.711 19H145.235V18ZM141.995 13.32L142.817 12.7508L142.519 12.32H141.995V13.32ZM138.419 13.32V12.32H137.419V13.32H138.419ZM138.419 18V19H139.419V18H138.419ZM134.531 18H133.531V19H134.531V18ZM134.531 1.2V0.199999H133.531V1.2H134.531ZM145.667 1.944L145.252 2.85392L145.257 2.85617L145.667 1.944ZM148.187 10.536L147.355 9.98129L147.353 9.98474L148.187 10.536ZM145.643 12.6L145.244 11.6829L144.124 12.1701L144.823 13.1722L145.643 12.6ZM149.411 18V19H151.328L150.231 17.4278L149.411 18ZM144.251 5.136L143.607 5.90091L143.613 5.90593L143.619 5.91086L144.251 5.136ZM138.419 4.368V3.368H137.419V4.368H138.419ZM138.419 10.224H137.419V11.224H138.419V10.224ZM144.251 9.456L144.895 10.2209L144.251 9.456ZM146.057 17.4308L142.817 12.7508L141.173 13.8892L144.413 18.5692L146.057 17.4308ZM141.995 12.32H141.803V14.32H141.995V12.32ZM141.803 12.32H138.419V14.32H141.803V12.32ZM137.419 13.32V18H139.419V13.32H137.419ZM138.419 17H134.531V19H138.419V17ZM135.531 18V1.2H133.531V18H135.531ZM134.531 2.2H141.803V0.199999H134.531V2.2ZM141.803 2.2C143.182 2.2 144.322 2.42993 145.252 2.85391L146.082 1.03409C144.836 0.466067 143.4 0.199999 141.803 0.199999V2.2ZM145.257 2.85617C146.206 3.2826 146.897 3.86761 147.372 4.60047L149.05 3.51153C148.342 2.42039 147.336 1.5974 146.077 1.03183L145.257 2.85617ZM147.372 4.60047C147.844 5.32743 148.099 6.21195 148.099 7.296H150.099C150.099 5.88405 149.762 4.60857 149.05 3.51153L147.372 4.60047ZM148.099 7.296C148.099 8.37479 147.839 9.25557 147.355 9.9813L149.019 11.0907C149.751 9.99243 150.099 8.71321 150.099 7.296H148.099ZM147.353 9.98474C146.88 10.7001 146.193 11.2705 145.244 11.6829L146.042 13.5171C147.301 12.9695 148.31 12.1639 149.021 11.0873L147.353 9.98474ZM144.823 13.1722L148.591 18.5722L150.231 17.4278L146.463 12.0278L144.823 13.1722ZM149.411 17H145.235V19H149.411V17ZM146.163 7.296C146.163 6.11907 145.772 5.08596 144.883 4.36113L143.619 5.91086C143.946 6.17804 144.163 6.58493 144.163 7.296H146.163ZM144.895 4.37109C144.039 3.64999 142.883 3.368 141.587 3.368V5.368C142.627 5.368 143.247 5.59801 143.607 5.90091L144.895 4.37109ZM141.587 3.368H138.419V5.368H141.587V3.368ZM137.419 4.368V10.224H139.419V4.368H137.419ZM138.419 11.224H141.587V9.224H138.419V11.224ZM141.587 11.224C142.883 11.224 144.039 10.942 144.895 10.2209L143.607 8.69109C143.247 8.99399 142.627 9.224 141.587 9.224V11.224ZM144.895 10.2209C145.768 9.48619 146.163 8.4641 146.163 7.296H144.163C144.163 7.9839 143.95 8.40181 143.607 8.69109L144.895 10.2209ZM163.531 9.336V8.336H162.531V9.336H163.531ZM167.083 9.336H168.083V8.336H167.083V9.336ZM167.083 16.152L167.686 16.9503L168.083 16.6503V16.152H167.083ZM163.915 17.736L164.209 18.6921L163.915 17.736ZM155.587 17.184L155.112 18.0639L155.12 18.068L155.587 17.184ZM152.299 14.088L151.438 14.5964L151.442 14.6025L151.446 14.6086L152.299 14.088ZM152.299 5.136L151.443 4.61998L151.441 4.62304L152.299 5.136ZM155.611 2.04L156.075 2.92626L156.083 2.92208L155.611 2.04ZM164.372 1.656L164.753 0.731832L164.372 1.656ZM167.396 3.816L168.074 4.5508L168.785 3.8943L168.152 3.16205L167.396 3.816ZM164.9 6.12L164.174 6.80851L164.853 7.52365L165.578 6.8548L164.9 6.12ZM157.699 4.896L158.174 5.77647L157.699 4.896ZM155.755 12.384L154.886 12.8783L155.755 12.384ZM157.676 14.304L157.181 15.1733L157.191 15.179L157.201 15.1845L157.676 14.304ZM163.531 14.256L164.004 15.1375L164.531 14.8547V14.256H163.531ZM163.531 10.336H167.083V8.336H163.531V10.336ZM166.083 9.336V16.152H168.083V9.336H166.083ZM166.481 15.3537C165.671 15.9649 164.722 16.4427 163.622 16.7799L164.209 18.6921C165.509 18.2933 166.672 17.7151 167.686 16.9503L166.481 15.3537ZM163.622 16.7799C162.514 17.1198 161.405 17.288 160.292 17.288V19.288C161.61 19.288 162.917 19.0882 164.209 18.6921L163.622 16.7799ZM160.292 17.288C158.693 17.288 157.288 16.9519 156.055 16.3L155.12 18.068C156.671 18.8881 158.402 19.288 160.292 19.288V17.288ZM156.063 16.3042C154.822 15.6337 153.858 14.7237 153.153 13.5674L151.446 14.6086C152.341 16.0763 153.569 17.2303 155.112 18.0638L156.063 16.3042ZM153.161 13.5796C152.475 12.4177 152.124 11.0998 152.124 9.6H150.124C150.124 11.4282 150.556 13.1023 151.438 14.5964L153.161 13.5796ZM152.124 9.6C152.124 8.10007 152.475 6.79227 153.158 5.64896L151.441 4.62304C150.556 6.10373 150.124 7.77192 150.124 9.6H152.124ZM153.156 5.65201C153.859 4.48521 154.825 3.57945 156.075 2.92622L155.148 1.15377C153.582 1.97255 152.34 3.13079 151.443 4.61999L153.156 5.65201ZM156.083 2.92208C157.331 2.25521 158.751 1.912 160.363 1.912V-0.0880003C158.456 -0.0880003 156.708 0.320786 155.14 1.15792L156.083 2.92208ZM160.363 1.912C161.722 1.912 162.926 2.14049 163.99 2.58017L164.753 0.731832C163.417 0.179511 161.949 -0.0880003 160.363 -0.0880003V1.912ZM163.99 2.58017C165.051 3.01905 165.929 3.64886 166.639 4.46995L168.152 3.16205C167.23 2.09514 166.092 1.28495 164.753 0.731832L163.99 2.58017ZM166.717 3.0812L164.221 5.3852L165.578 6.8548L168.074 4.5508L166.717 3.0812ZM165.625 5.43149C164.242 3.97482 162.534 3.224 160.555 3.224V5.224C161.969 5.224 163.157 5.73718 164.174 6.80851L165.625 5.43149ZM160.555 3.224C159.341 3.224 158.222 3.47904 157.225 4.01553L158.174 5.77647C158.841 5.41695 159.626 5.224 160.555 5.224V3.224ZM157.225 4.01553C156.229 4.55195 155.444 5.31727 154.886 6.2977L156.625 7.2863C156.995 6.63473 157.506 6.13605 158.174 5.77647L157.225 4.01553ZM154.886 6.2977C154.326 7.28245 154.059 8.39277 154.059 9.6H156.059C156.059 8.69523 156.257 7.93355 156.625 7.2863L154.886 6.2977ZM154.059 9.6C154.059 10.7942 154.328 11.8958 154.886 12.8783L156.625 11.8897C156.255 11.2402 156.059 10.4858 156.059 9.6H154.059ZM154.886 12.8783C155.439 13.8508 156.209 14.6203 157.181 15.1733L158.17 13.4347C157.51 13.0597 157 12.5492 156.625 11.8897L154.886 12.8783ZM157.201 15.1845C158.196 15.7198 159.306 15.976 160.508 15.976V13.976C159.597 13.976 158.819 13.7842 158.15 13.4235L157.201 15.1845ZM160.508 15.976C161.775 15.976 162.948 15.703 164.004 15.1375L163.059 13.3745C162.323 13.769 161.48 13.976 160.508 13.976V15.976ZM164.531 14.256V9.336H162.531V14.256H164.531ZM181.759 14.4L182.683 14.018L182.428 13.4H181.759V14.4ZM173.959 14.4V13.4H173.29L173.035 14.018L173.959 14.4ZM172.471 18V19H173.14L173.395 18.382L172.471 18ZM168.487 18L167.574 17.5929L166.947 19H168.487V18ZM175.975 1.2V0.199999H175.326L175.062 0.792892L175.975 1.2ZM179.815 1.2L180.728 0.791804L180.463 0.199999H179.815V1.2ZM187.327 18V19H188.87L188.24 17.5918L187.327 18ZM183.247 18L182.323 18.382L182.578 19H183.247V18ZM180.535 11.448V12.448H182.032L181.459 11.0653L180.535 11.448ZM177.871 5.016L178.795 4.63334L177.871 2.40269L176.947 4.63334L177.871 5.016ZM175.207 11.448L174.283 11.0653L173.711 12.448H175.207V11.448ZM181.759 13.4H173.959V15.4H181.759V13.4ZM173.035 14.018L171.547 17.618L173.395 18.382L174.883 14.782L173.035 14.018ZM172.471 17H168.487V19H172.471V17ZM169.401 18.4071L176.889 1.60711L175.062 0.792892L167.574 17.5929L169.401 18.4071ZM175.975 2.2H179.815V0.199999H175.975V2.2ZM178.902 1.60819L186.414 18.4082L188.24 17.5918L180.728 0.791804L178.902 1.60819ZM187.327 17H183.247V19H187.327V17ZM184.171 17.618L182.683 14.018L180.835 14.782L182.323 18.382L184.171 17.618ZM181.459 11.0653L178.795 4.63334L176.947 5.39866L179.611 11.8307L181.459 11.0653ZM176.947 4.63334L174.283 11.0653L176.131 11.8307L178.795 5.39866L176.947 4.63334ZM175.207 12.448H180.535V10.448H175.207V12.448ZM204.478 1.2H205.478V0.199999H204.478V1.2ZM204.478 18V19H205.478V18H204.478ZM201.286 18L200.513 18.6346L200.813 19H201.286V18ZM192.91 7.8L193.683 7.16538L191.91 5.0065V7.8H192.91ZM192.91 18V19H193.91V18H192.91ZM189.07 18H188.07V19H189.07V18ZM189.07 1.2V0.199999H188.07V1.2H189.07ZM192.286 1.2L193.06 0.566463L192.76 0.199999H192.286V1.2ZM200.638 11.4L199.864 12.0335L201.638 14.1997V11.4H200.638ZM200.638 1.2V0.199999H199.638V1.2H200.638ZM203.478 1.2V18H205.478V1.2H203.478ZM204.478 17H201.286V19H204.478V17ZM202.059 17.3654L193.683 7.16538L192.137 8.43462L200.513 18.6346L202.059 17.3654ZM191.91 7.8V18H193.91V7.8H191.91ZM192.91 17H189.07V19H192.91V17ZM190.07 18V1.2H188.07V18H190.07ZM189.07 2.2H192.286V0.199999H189.07V2.2ZM191.512 1.83353L199.864 12.0335L201.412 10.7665L193.06 0.566463L191.512 1.83353ZM201.638 11.4V1.2H199.638V11.4H201.638ZM200.638 2.2H204.478V0.199999H200.638V2.2ZM208.453 1.2V0.199999H207.453V1.2H208.453ZM212.341 1.2H213.341V0.199999H212.341V1.2ZM212.341 18V19H213.341V18H212.341ZM208.453 18H207.453V19H208.453V18ZM208.453 2.2H212.341V0.199999H208.453V2.2ZM211.341 1.2V18H213.341V1.2H211.341ZM212.341 17H208.453V19H212.341V17ZM209.453 18V1.2H207.453V18H209.453ZM229.936 14.832H230.936V13.832H229.936V14.832ZM229.936 18V19H230.936V18H229.936ZM215.248 18H214.248V19H215.248V18ZM215.248 15.48L214.478 14.8416L214.248 15.1193V15.48H215.248ZM224.464 4.368L225.234 5.00638L226.592 3.368H224.464V4.368ZM215.44 4.368H214.44V5.368H215.44V4.368ZM215.44 1.2V0.199999H214.44V1.2H215.44ZM229.576 1.2H230.576V0.199999H229.576V1.2ZM229.576 3.72L230.346 4.3574L230.576 4.08V3.72H229.576ZM220.384 14.832L219.613 14.1946L218.259 15.832H220.384V14.832ZM228.936 14.832V18H230.936V14.832H228.936ZM229.936 17H215.248V19H229.936V17ZM216.248 18V15.48H214.248V18H216.248ZM216.018 16.1184L225.234 5.00638L223.694 3.72962L214.478 14.8416L216.018 16.1184ZM224.464 3.368H215.44V5.368H224.464V3.368ZM216.44 4.368V1.2H214.44V4.368H216.44ZM215.44 2.2H229.576V0.199999H215.44V2.2ZM228.576 1.2V3.72H230.576V1.2H228.576ZM228.805 3.0826L219.613 14.1946L221.154 15.4694L230.346 4.3574L228.805 3.0826ZM220.384 15.832H229.936V13.832H220.384V15.832ZM245.438 14.88H246.438V13.88H245.438V14.88ZM245.438 18V19H246.438V18H245.438ZM232.43 18H231.43V19H232.43V18ZM232.43 1.2V0.199999H231.43V1.2H232.43ZM245.126 1.2H246.126V0.199999H245.126V1.2ZM245.126 4.32V5.32H246.126V4.32H245.126ZM236.294 4.32V3.32H235.294V4.32H236.294ZM236.294 7.968H235.294V8.968H236.294V7.968ZM244.094 7.968H245.094V6.968H244.094V7.968ZM244.094 10.992V11.992H245.094V10.992H244.094ZM236.294 10.992V9.992H235.294V10.992H236.294ZM236.294 14.88H235.294V15.88H236.294V14.88ZM244.438 14.88V18H246.438V14.88H244.438ZM245.438 17H232.43V19H245.438V17ZM233.43 18V1.2H231.43V18H233.43ZM232.43 2.2H245.126V0.199999H232.43V2.2ZM244.126 1.2V4.32H246.126V1.2H244.126ZM245.126 3.32H236.294V5.32H245.126V3.32ZM235.294 4.32V7.968H237.294V4.32H235.294ZM236.294 8.968H244.094V6.968H236.294V8.968ZM243.094 7.968V10.992H245.094V7.968H243.094ZM244.094 9.992H236.294V11.992H244.094V9.992ZM235.294 10.992V14.88H237.294V10.992H235.294ZM236.294 15.88H245.438V13.88H236.294V15.88ZM15 50.88H16V49.88H15V50.88ZM15 54V55H16V54H15ZM1.992 54H0.992V55H1.992V54ZM1.992 37.2V36.2H0.992V37.2H1.992ZM14.688 37.2H15.688V36.2H14.688V37.2ZM14.688 40.32V41.32H15.688V40.32H14.688ZM5.856 40.32V39.32H4.856V40.32H5.856ZM5.856 43.968H4.856V44.968H5.856V43.968ZM13.656 43.968H14.656V42.968H13.656V43.968ZM13.656 46.992V47.992H14.656V46.992H13.656ZM5.856 46.992V45.992H4.856V46.992H5.856ZM5.856 50.88H4.856V51.88H5.856V50.88ZM14 50.88V54H16V50.88H14ZM15 53H1.992V55H15V53ZM2.992 54V37.2H0.992V54H2.992ZM1.992 38.2H14.688V36.2H1.992V38.2ZM13.688 37.2V40.32H15.688V37.2H13.688ZM14.688 39.32H5.856V41.32H14.688V39.32ZM4.856 40.32V43.968H6.856V40.32H4.856ZM5.856 44.968H13.656V42.968H5.856V44.968ZM12.656 43.968V46.992H14.656V43.968H12.656ZM13.656 45.992H5.856V47.992H13.656V45.992ZM4.856 46.992V50.88H6.856V46.992H4.856ZM5.856 51.88H15V49.88H5.856V51.88ZM34.0112 37.2L34.9289 37.5972L35.5337 36.2H34.0112V37.2ZM26.7392 54V55H27.396L27.6569 54.3972L26.7392 54ZM22.8992 54L21.981 54.3961L22.2415 55H22.8992V54ZM15.6512 37.2V36.2H14.1307L14.733 37.5961L15.6512 37.2ZM19.8512 37.2L20.7712 36.8081L20.5121 36.2H19.8512V37.2ZM24.9632 49.2L24.0432 49.5919L24.9568 51.7365L25.8812 49.5966L24.9632 49.2ZM30.1472 37.2V36.2H29.4899L29.2292 36.8034L30.1472 37.2ZM33.0935 36.8028L25.8215 53.6028L27.6569 54.3972L34.9289 37.5972L33.0935 36.8028ZM26.7392 53H22.8992V55H26.7392V53ZM23.8174 53.6039L16.5694 36.8039L14.733 37.5961L21.981 54.3961L23.8174 53.6039ZM15.6512 38.2H19.8512V36.2H15.6512V38.2ZM18.9312 37.5919L24.0432 49.5919L25.8832 48.8081L20.7712 36.8081L18.9312 37.5919ZM25.8812 49.5966L31.0652 37.5966L29.2292 36.8034L24.0452 48.8034L25.8812 49.5966ZM30.1472 38.2H34.0112V36.2H30.1472V38.2ZM48.4219 50.88H49.4219V49.88H48.4219V50.88ZM48.4219 54V55H49.4219V54H48.4219ZM35.4139 54H34.4139V55H35.4139V54ZM35.4139 37.2V36.2H34.4139V37.2H35.4139ZM48.1099 37.2H49.1099V36.2H48.1099V37.2ZM48.1099 40.32V41.32H49.1099V40.32H48.1099ZM39.2779 40.32V39.32H38.2779V40.32H39.2779ZM39.2779 43.968H38.2779V44.968H39.2779V43.968ZM47.0779 43.968H48.0779V42.968H47.0779V43.968ZM47.0779 46.992V47.992H48.0779V46.992H47.0779ZM39.2779 46.992V45.992H38.2779V46.992H39.2779ZM39.2779 50.88H38.2779V51.88H39.2779V50.88ZM47.4219 50.88V54H49.4219V50.88H47.4219ZM48.4219 53H35.4139V55H48.4219V53ZM36.4139 54V37.2H34.4139V54H36.4139ZM35.4139 38.2H48.1099V36.2H35.4139V38.2ZM47.1099 37.2V40.32H49.1099V37.2H47.1099ZM48.1099 39.32H39.2779V41.32H48.1099V39.32ZM38.2779 40.32V43.968H40.2779V40.32H38.2779ZM39.2779 44.968H47.0779V42.968H39.2779V44.968ZM46.0779 43.968V46.992H48.0779V43.968H46.0779ZM47.0779 45.992H39.2779V47.992H47.0779V45.992ZM38.2779 46.992V50.88H40.2779V46.992H38.2779ZM39.2779 51.88H48.4219V49.88H39.2779V51.88ZM62.2194 54L61.3972 54.5692L61.6955 55H62.2194V54ZM58.9794 49.32L59.8016 48.7508L59.5034 48.32H58.9794V49.32ZM55.4034 49.32V48.32H54.4034V49.32H55.4034ZM55.4034 54V55H56.4034V54H55.4034ZM51.5154 54H50.5154V55H51.5154V54ZM51.5154 37.2V36.2H50.5154V37.2H51.5154ZM62.6514 37.944L62.2366 38.8539L62.2416 38.8562L62.6514 37.944ZM65.1714 46.536L64.3394 45.9813L64.3371 45.9847L65.1714 46.536ZM62.6274 48.6L62.2287 47.6829L61.1081 48.1701L61.8074 49.1722L62.6274 48.6ZM66.3954 54V55H68.3126L67.2155 53.4278L66.3954 54ZM61.2354 41.136L60.5913 41.9009L60.5973 41.9059L60.6033 41.9109L61.2354 41.136ZM55.4034 40.368V39.368H54.4034V40.368H55.4034ZM55.4034 46.224H54.4034V47.224H55.4034V46.224ZM61.2354 45.456L61.8796 46.2209V46.2209L61.2354 45.456ZM63.0416 53.4308L59.8016 48.7508L58.1572 49.8892L61.3972 54.5692L63.0416 53.4308ZM58.9794 48.32H58.7874V50.32H58.9794V48.32ZM58.7874 48.32H55.4034V50.32H58.7874V48.32ZM54.4034 49.32V54H56.4034V49.32H54.4034ZM55.4034 53H51.5154V55H55.4034V53ZM52.5154 54V37.2H50.5154V54H52.5154ZM51.5154 38.2H58.7874V36.2H51.5154V38.2ZM58.7874 38.2C60.1663 38.2 61.3066 38.4299 62.2366 38.8539L63.0662 37.0341C61.8203 36.4661 60.3845 36.2 58.7874 36.2V38.2ZM62.2416 38.8562C63.1908 39.2826 63.8809 39.8676 64.3567 40.6005L66.0342 39.5115C65.3259 38.4204 64.3201 37.5974 63.0613 37.0318L62.2416 38.8562ZM64.3567 40.6005C64.8285 41.3274 65.0834 42.212 65.0834 43.296H67.0834C67.0834 41.884 66.7463 40.6086 66.0342 39.5115L64.3567 40.6005ZM65.0834 43.296C65.0834 44.3748 64.8232 45.2556 64.3394 45.9813L66.0035 47.0907C66.7357 45.9924 67.0834 44.7132 67.0834 43.296H65.0834ZM64.3371 45.9847C63.8644 46.7001 63.1774 47.2705 62.2287 47.6829L63.0262 49.5171C64.2855 48.9695 65.2944 48.1639 66.0058 47.0873L64.3371 45.9847ZM61.8074 49.1722L65.5753 54.5722L67.2155 53.4278L63.4475 48.0278L61.8074 49.1722ZM66.3954 53H62.2194V55H66.3954V53ZM63.1474 43.296C63.1474 42.1191 62.7561 41.086 61.8676 40.3611L60.6033 41.9109C60.9308 42.178 61.1474 42.5849 61.1474 43.296H63.1474ZM61.8796 40.3711C61.0233 39.65 59.8676 39.368 58.5714 39.368V41.368C59.6113 41.368 60.2316 41.598 60.5913 41.9009L61.8796 40.3711ZM58.5714 39.368H55.4034V41.368H58.5714V39.368ZM54.4034 40.368V46.224H56.4034V40.368H54.4034ZM55.4034 47.224H58.5714V45.224H55.4034V47.224ZM58.5714 47.224C59.8676 47.224 61.0233 46.942 61.8796 46.2209L60.5913 44.6911C60.2316 44.994 59.6113 45.224 58.5714 45.224V47.224ZM61.8796 46.2209C62.7521 45.4862 63.1474 44.4641 63.1474 43.296H61.1474C61.1474 43.9839 60.9348 44.4018 60.5913 44.6911L61.8796 46.2209ZM76.9935 48.048L76.1367 47.5324L75.9935 47.7703V48.048H76.9935ZM76.9935 54V55H77.9935V54H76.9935ZM73.1055 54H72.1055V55H73.1055V54ZM73.1055 48H74.1055V47.7221L73.9622 47.4841L73.1055 48ZM66.6015 37.2V36.2H64.8319L65.7449 37.7159L66.6015 37.2ZM70.7295 37.2L71.5865 36.6847L71.2951 36.2H70.7295V37.2ZM75.2175 44.664L74.3605 45.1793L75.2175 46.6046L76.0745 45.1793L75.2175 44.664ZM79.7055 37.2V36.2H79.1399L78.8485 36.6847L79.7055 37.2ZM83.5215 37.2L84.3783 37.7156L85.2904 36.2H83.5215V37.2ZM75.9935 48.048V54H77.9935V48.048H75.9935ZM76.9935 53H73.1055V55H76.9935V53ZM74.1055 54V48H72.1055V54H74.1055ZM73.9622 47.4841L67.4582 36.6841L65.7449 37.7159L72.2488 48.5159L73.9622 47.4841ZM66.6015 38.2H70.7295V36.2H66.6015V38.2ZM69.8725 37.7153L74.3605 45.1793L76.0745 44.1487L71.5865 36.6847L69.8725 37.7153ZM76.0745 45.1793L80.5625 37.7153L78.8485 36.6847L74.3605 44.1487L76.0745 45.1793ZM79.7055 38.2H83.5215V36.2H79.7055V38.2ZM82.6647 36.6844L76.1367 47.5324L77.8503 48.5636L84.3783 37.7156L82.6647 36.6844ZM88.3236 40.368H89.3236V39.368H88.3236V40.368ZM82.9476 40.368H81.9476V41.368H82.9476V40.368ZM82.9476 37.2V36.2H81.9476V37.2H82.9476ZM97.5876 37.2H98.5876V36.2H97.5876V37.2ZM97.5876 40.368V41.368H98.5876V40.368H97.5876ZM92.2116 40.368V39.368H91.2116V40.368H92.2116ZM92.2116 54V55H93.2116V54H92.2116ZM88.3236 54H87.3236V55H88.3236V54ZM88.3236 39.368H82.9476V41.368H88.3236V39.368ZM83.9476 40.368V37.2H81.9476V40.368H83.9476ZM82.9476 38.2H97.5876V36.2H82.9476V38.2ZM96.5876 37.2V40.368H98.5876V37.2H96.5876ZM97.5876 39.368H92.2116V41.368H97.5876V39.368ZM91.2116 40.368V54H93.2116V40.368H91.2116ZM92.2116 53H88.3236V55H92.2116V53ZM89.3236 54V40.368H87.3236V54H89.3236ZM115.088 37.2H116.088V36.2H115.088V37.2ZM115.088 54V55H116.088V54H115.088ZM111.2 54H110.2V55H111.2V54ZM111.2 47.112H112.2V46.112H111.2V47.112ZM103.567 47.112V46.112H102.567V47.112H103.567ZM103.567 54V55H104.567V54H103.567ZM99.6795 54H98.6795V55H99.6795V54ZM99.6795 37.2V36.2H98.6795V37.2H99.6795ZM103.567 37.2H104.567V36.2H103.567V37.2ZM103.567 43.824H102.567V44.824H103.567V43.824ZM111.2 43.824V44.824H112.2V43.824H111.2ZM111.2 37.2V36.2H110.2V37.2H111.2ZM114.088 37.2V54H116.088V37.2H114.088ZM115.088 53H111.2V55H115.088V53ZM112.2 54V47.112H110.2V54H112.2ZM111.2 46.112H103.567V48.112H111.2V46.112ZM102.567 47.112V54H104.567V47.112H102.567ZM103.567 53H99.6795V55H103.567V53ZM100.679 54V37.2H98.6795V54H100.679ZM99.6795 38.2H103.567V36.2H99.6795V38.2ZM102.567 37.2V43.824H104.567V37.2H102.567ZM103.567 44.824H111.2V42.824H103.567V44.824ZM112.2 43.824V37.2H110.2V43.824H112.2ZM111.2 38.2H115.088V36.2H111.2V38.2ZM119.062 37.2V36.2H118.062V37.2H119.062ZM122.95 37.2H123.95V36.2H122.95V37.2ZM122.95 54V55H123.95V54H122.95ZM119.062 54H118.062V55H119.062V54ZM119.062 38.2H122.95V36.2H119.062V38.2ZM121.95 37.2V54H123.95V37.2H121.95ZM122.95 53H119.062V55H122.95V53ZM120.062 54V37.2H118.062V54H120.062ZM142.345 37.2H143.345V36.2H142.345V37.2ZM142.345 54V55H143.345V54H142.345ZM139.153 54L138.38 54.6346L138.681 55H139.153V54ZM130.777 43.8L131.55 43.1654L129.777 41.0065V43.8H130.777ZM130.777 54V55H131.777V54H130.777ZM126.937 54H125.937V55H126.937V54ZM126.937 37.2V36.2H125.937V37.2H126.937ZM130.153 37.2L130.927 36.5665L130.627 36.2H130.153V37.2ZM138.505 47.4L137.732 48.0335L139.505 50.1997V47.4H138.505ZM138.505 37.2V36.2H137.505V37.2H138.505ZM141.345 37.2V54H143.345V37.2H141.345ZM142.345 53H139.153V55H142.345V53ZM139.926 53.3654L131.55 43.1654L130.004 44.4346L138.38 54.6346L139.926 53.3654ZM129.777 43.8V54H131.777V43.8H129.777ZM130.777 53H126.937V55H130.777V53ZM127.937 54V37.2H125.937V54H127.937ZM126.937 38.2H130.153V36.2H126.937V38.2ZM129.38 37.8335L137.732 48.0335L139.279 46.7665L130.927 36.5665L129.38 37.8335ZM139.505 47.4V37.2H137.505V47.4H139.505ZM138.505 38.2H142.345V36.2H138.505V38.2ZM157.672 45.336V44.336H156.672V45.336H157.672ZM161.224 45.336H162.224V44.336H161.224V45.336ZM161.224 52.152L161.826 52.9503L162.224 52.6502V52.152H161.224ZM158.056 53.736L158.349 54.6921L158.056 53.736ZM149.728 53.184L149.253 54.0639L149.261 54.068L149.728 53.184ZM146.44 50.088L145.579 50.5964L145.583 50.6025L145.586 50.6086L146.44 50.088ZM146.44 41.136L145.584 40.62L145.582 40.623L146.44 41.136ZM149.752 38.04L150.215 38.9263L150.223 38.9221L149.752 38.04ZM158.512 37.656L158.894 36.7318L158.512 37.656ZM161.536 39.816L162.214 40.5508L162.926 39.8943L162.293 39.162L161.536 39.816ZM159.04 42.12L158.315 42.8085L158.994 43.5236L159.718 42.8548L159.04 42.12ZM151.84 40.896L152.314 41.7765L151.84 40.896ZM149.896 48.384L149.027 48.8783L149.896 48.384ZM151.816 50.304L151.322 51.1733L151.332 51.179L151.342 51.1845L151.816 50.304ZM157.672 50.256L158.144 51.1375L158.672 50.8547V50.256H157.672ZM157.672 46.336H161.224V44.336H157.672V46.336ZM160.224 45.336V52.152H162.224V45.336H160.224ZM160.622 51.3537C159.812 51.9649 158.862 52.4427 157.763 52.7799L158.349 54.6921C159.65 54.2933 160.813 53.7151 161.826 52.9503L160.622 51.3537ZM157.763 52.7799C156.655 53.1198 155.546 53.288 154.432 53.288V55.288C155.751 55.288 157.057 55.0882 158.349 54.6921L157.763 52.7799ZM154.432 53.288C152.833 53.288 151.429 52.9519 150.196 52.3L149.261 54.068C150.812 54.8881 152.543 55.288 154.432 55.288V53.288ZM150.203 52.3042C148.962 51.6337 147.999 50.7237 147.294 49.5674L145.586 50.6086C146.481 52.0763 147.71 53.2303 149.253 54.0638L150.203 52.3042ZM147.301 49.5796C146.615 48.4177 146.264 47.0998 146.264 45.6H144.264C144.264 47.4282 144.697 49.1023 145.579 50.5964L147.301 49.5796ZM146.264 45.6C146.264 44.1001 146.615 42.7923 147.299 41.649L145.582 40.623C144.697 42.1037 144.264 43.7719 144.264 45.6H146.264ZM147.297 41.652C148 40.4852 148.966 39.5795 150.215 38.9262L149.289 37.1538C147.723 37.9725 146.481 39.1308 145.584 40.62L147.297 41.652ZM150.223 38.9221C151.472 38.2552 152.891 37.912 154.504 37.912V35.912C152.597 35.912 150.848 36.3208 149.281 37.1579L150.223 38.9221ZM154.504 37.912C155.862 37.912 157.066 38.1405 158.13 38.5802L158.894 36.7318C157.558 36.1795 156.09 35.912 154.504 35.912V37.912ZM158.13 38.5802C159.192 39.0191 160.07 39.6489 160.78 40.47L162.293 39.162C161.37 38.0951 160.232 37.2849 158.894 36.7318L158.13 38.5802ZM160.858 39.0812L158.362 41.3852L159.718 42.8548L162.214 40.5508L160.858 39.0812ZM159.765 41.4315C158.382 39.9748 156.675 39.224 154.696 39.224V41.224C156.109 41.224 157.298 41.7372 158.315 42.8085L159.765 41.4315ZM154.696 39.224C153.481 39.224 152.362 39.479 151.366 40.0155L152.314 41.7765C152.982 41.417 153.767 41.224 154.696 41.224V39.224ZM151.366 40.0155C150.37 40.552 149.584 41.3173 149.027 42.2977L150.765 43.2863C151.136 42.6347 151.646 42.136 152.314 41.7765L151.366 40.0155ZM149.027 42.2977C148.467 43.2824 148.2 44.3928 148.2 45.6H150.2C150.2 44.6952 150.397 43.9336 150.765 43.2863L149.027 42.2977ZM148.2 45.6C148.2 46.7942 148.468 47.8958 149.027 48.8783L150.765 47.8897C150.396 47.2402 150.2 46.4858 150.2 45.6H148.2ZM149.027 48.8783C149.58 49.8508 150.349 50.6203 151.322 51.1733L152.31 49.4347C151.651 49.0597 151.14 48.5492 150.765 47.8897L149.027 48.8783ZM151.342 51.1845C152.336 51.7198 153.446 51.976 154.648 51.976V49.976C153.738 49.976 152.96 49.7842 152.29 49.4235L151.342 51.1845ZM154.648 51.976C155.916 51.976 157.089 51.703 158.144 51.1375L157.2 49.3745C156.464 49.769 155.62 49.976 154.648 49.976V51.976ZM158.672 50.256V45.336H156.672V50.256H158.672Z" fill="#333333"/>
</svg>
