<svg width="623" height="27" viewBox="0 0 623 27" fill="none" xmlns="http://www.w3.org/2000/svg">
<path d="M90.7394 26.432C88.1714 26.432 85.8434 25.88 83.7554 24.776C81.6914 23.648 80.0594 22.1 78.8594 20.132C77.6834 18.14 77.0954 15.896 77.0954 13.4C77.0954 10.904 77.6834 8.672 78.8594 6.704C80.0594 4.712 81.6914 3.164 83.7554 2.06C85.8434 0.931999 88.1834 0.368 90.7754 0.368C92.9594 0.368 94.9274 0.752 96.6794 1.52C98.4554 2.288 99.9434 3.392 101.143 4.832L97.3994 8.288C95.6954 6.32 93.5834 5.336 91.0634 5.336C89.5034 5.336 88.1114 5.684 86.8874 6.38C85.6634 7.052 84.7034 8 84.0074 9.224C83.3354 10.448 82.9994 11.84 82.9994 13.4C82.9994 14.96 83.3354 16.352 84.0074 17.576C84.7034 18.8 85.6634 19.76 86.8874 20.456C88.1114 21.128 89.5034 21.464 91.0634 21.464C93.5834 21.464 95.6954 20.468 97.3994 18.476L101.143 21.932C99.9434 23.396 98.4554 24.512 96.6794 25.28C94.9034 26.048 92.9234 26.432 90.7394 26.432ZM121.186 20.6H109.486L107.254 26H101.278L112.51 0.799998H118.27L129.538 26H123.418L121.186 20.6ZM119.35 16.172L115.354 6.524L111.358 16.172H119.35ZM155.264 0.799998V26H150.476L137.912 10.7V26H132.152V0.799998H136.976L149.504 16.1V0.799998H155.264ZM183.626 26.432C181.01 26.432 178.646 25.868 176.534 24.74C174.446 23.612 172.802 22.064 171.602 20.096C170.426 18.104 169.838 15.872 169.838 13.4C169.838 10.928 170.426 8.708 171.602 6.74C172.802 4.748 174.446 3.188 176.534 2.06C178.646 0.931999 181.01 0.368 183.626 0.368C186.242 0.368 188.594 0.931999 190.682 2.06C192.77 3.188 194.414 4.748 195.614 6.74C196.814 8.708 197.414 10.928 197.414 13.4C197.414 15.872 196.814 18.104 195.614 20.096C194.414 22.064 192.77 23.612 190.682 24.74C188.594 25.868 186.242 26.432 183.626 26.432ZM183.626 21.464C185.114 21.464 186.458 21.128 187.658 20.456C188.858 19.76 189.794 18.8 190.466 17.576C191.162 16.352 191.51 14.96 191.51 13.4C191.51 11.84 191.162 10.448 190.466 9.224C189.794 8 188.858 7.052 187.658 6.38C186.458 5.684 185.114 5.336 183.626 5.336C182.138 5.336 180.794 5.684 179.594 6.38C178.394 7.052 177.446 8 176.75 9.224C176.078 10.448 175.742 11.84 175.742 13.4C175.742 14.96 176.078 16.352 176.75 17.576C177.446 18.8 178.394 19.76 179.594 20.456C180.794 21.128 182.138 21.464 183.626 21.464ZM217.853 26L212.993 18.98H212.705H207.629V26H201.797V0.799998H212.705C214.937 0.799998 216.869 1.172 218.501 1.916C220.157 2.66 221.429 3.716 222.317 5.084C223.205 6.452 223.649 8.072 223.649 9.944C223.649 11.816 223.193 13.436 222.281 14.804C221.393 16.148 220.121 17.18 218.465 17.9L224.117 26H217.853ZM217.745 9.944C217.745 8.528 217.289 7.448 216.377 6.704C215.465 5.936 214.133 5.552 212.381 5.552H207.629V14.336H212.381C214.133 14.336 215.465 13.952 216.377 13.184C217.289 12.416 217.745 11.336 217.745 9.944ZM245.297 13.004H250.625V23.228C249.257 24.26 247.673 25.052 245.873 25.604C244.073 26.156 242.261 26.432 240.437 26.432C237.821 26.432 235.469 25.88 233.381 24.776C231.293 23.648 229.649 22.1 228.449 20.132C227.273 18.14 226.685 15.896 226.685 13.4C226.685 10.904 227.273 8.672 228.449 6.704C229.649 4.712 231.305 3.164 233.417 2.06C235.529 0.931999 237.905 0.368 240.545 0.368C242.753 0.368 244.757 0.739999 246.557 1.484C248.357 2.228 249.869 3.308 251.093 4.724L247.349 8.18C245.549 6.284 243.377 5.336 240.833 5.336C239.225 5.336 237.797 5.672 236.549 6.344C235.301 7.016 234.329 7.964 233.633 9.188C232.937 10.412 232.589 11.816 232.589 13.4C232.589 14.96 232.937 16.352 233.633 17.576C234.329 18.8 235.289 19.76 236.513 20.456C237.761 21.128 239.177 21.464 240.761 21.464C242.441 21.464 243.953 21.104 245.297 20.384V13.004ZM272.639 20.6H260.939L258.707 26H252.731L263.963 0.799998H269.723L280.991 26H274.871L272.639 20.6ZM270.803 16.172L266.807 6.524L262.811 16.172H270.803ZM306.717 0.799998V26H301.929L289.365 10.7V26H283.605V0.799998H288.429L300.957 16.1V0.799998H306.717ZM312.679 0.799998H318.511V26H312.679V0.799998ZM344.904 21.248V26H322.872V22.22L336.696 5.552H323.16V0.799998H344.364V4.58L330.576 21.248H344.904ZM368.156 21.32V26H348.644V0.799998H367.688V5.48H354.44V10.952H366.14V15.488H354.44V21.32H368.156ZM402.504 21.32V26H382.992V0.799998H402.036V5.48H388.788V10.952H400.488V15.488H388.788V21.32H402.504ZM431.021 0.799998L420.113 26H414.353L403.481 0.799998H409.781L417.449 18.8L425.225 0.799998H431.021ZM452.637 21.32V26H433.125V0.799998H452.169V5.48H438.921V10.952H450.621V15.488H438.921V21.32H452.637ZM473.333 26L468.473 18.98H468.185H463.109V26H457.277V0.799998H468.185C470.417 0.799998 472.349 1.172 473.981 1.916C475.637 2.66 476.909 3.716 477.797 5.084C478.685 6.452 479.129 8.072 479.129 9.944C479.129 11.816 478.673 13.436 477.761 14.804C476.873 16.148 475.601 17.18 473.945 17.9L479.597 26H473.333ZM473.225 9.944C473.225 8.528 472.769 7.448 471.857 6.704C470.945 5.936 469.613 5.552 467.861 5.552H463.109V14.336H467.861C469.613 14.336 470.945 13.952 471.857 13.184C472.769 12.416 473.225 11.336 473.225 9.944ZM495.494 17.072V26H489.662V17L479.906 0.799998H486.098L492.83 11.996L499.562 0.799998H505.286L495.494 17.072ZM512.489 5.552H504.425V0.799998H526.385V5.552H518.321V26H512.489V5.552ZM552.635 0.799998V26H546.803V15.668H535.355V26H529.523V0.799998H535.355V10.736H546.803V0.799998H552.635ZM558.597 0.799998H564.429V26H558.597V0.799998ZM593.522 0.799998V26H588.734L576.17 10.7V26H570.41V0.799998H575.234L587.762 16.1V0.799998H593.522ZM616.512 13.004H621.84V23.228C620.472 24.26 618.888 25.052 617.088 25.604C615.288 26.156 613.476 26.432 611.652 26.432C609.036 26.432 606.684 25.88 604.596 24.776C602.508 23.648 600.864 22.1 599.664 20.132C598.488 18.14 597.9 15.896 597.9 13.4C597.9 10.904 598.488 8.672 599.664 6.704C600.864 4.712 602.52 3.164 604.632 2.06C606.744 0.931999 609.12 0.368 611.76 0.368C613.968 0.368 615.972 0.739999 617.772 1.484C619.572 2.228 621.084 3.308 622.308 4.724L618.564 8.18C616.764 6.284 614.592 5.336 612.048 5.336C610.44 5.336 609.012 5.672 607.764 6.344C606.516 7.016 605.544 7.964 604.848 9.188C604.152 10.412 603.804 11.816 603.804 13.4C603.804 14.96 604.152 16.352 604.848 17.576C605.544 18.8 606.504 19.76 607.728 20.456C608.976 21.128 610.392 21.464 611.976 21.464C613.656 21.464 615.168 21.104 616.512 20.384V13.004Z" fill="#333333"/>
<path d="M41.076 0.799998L42.0264 1.11093L42.4553 -0.200002H41.076V0.799998ZM32.832 26V27H33.557L33.7824 26.3109L32.832 26ZM26.568 26L25.6169 26.309L25.8414 27H26.568V26ZM21.024 8.936L21.9751 8.627L21.0392 5.74639L20.0759 8.61797L21.024 8.936ZM15.3 26V27H16.0193L16.2481 26.318L15.3 26ZM9.072 26L8.12197 26.3122L8.34797 27H9.072V26ZM0.792 0.799998V-0.200002H-0.589168L-0.158032 1.11215L0.792 0.799998ZM6.84 0.799998L7.79211 0.49424L7.56916 -0.200002H6.84V0.799998ZM12.528 18.512L11.5759 18.8178L12.5074 21.7184L13.4761 18.83L12.528 18.512ZM18.468 0.799998V-0.200002H17.7486L17.5199 0.482037L18.468 0.799998ZM23.868 0.799998L24.8197 0.492995L24.5962 -0.200002H23.868V0.799998ZM29.628 18.656L28.6763 18.963L29.6192 21.8859L30.578 18.9682L29.628 18.656ZM35.496 0.799998V-0.200002H34.772L34.546 0.487796L35.496 0.799998ZM40.1256 0.489071L31.8816 25.6891L33.7824 26.3109L42.0264 1.11093L40.1256 0.489071ZM32.832 25H26.568V27H32.832V25ZM27.5191 25.691L21.9751 8.627L20.0729 9.24499L25.6169 26.309L27.5191 25.691ZM20.0759 8.61797L14.3519 25.682L16.2481 26.318L21.9721 9.25403L20.0759 8.61797ZM15.3 25H9.072V27H15.3V25ZM10.022 25.6878L1.74203 0.487845L-0.158032 1.11215L8.12197 26.3122L10.022 25.6878ZM0.792 1.8H6.84V-0.200002H0.792V1.8ZM5.88789 1.10576L11.5759 18.8178L13.4801 18.2062L7.79211 0.49424L5.88789 1.10576ZM13.4761 18.83L19.4161 1.11796L17.5199 0.482037L11.5799 18.194L13.4761 18.83ZM18.468 1.8H23.868V-0.200002H18.468V1.8ZM22.9163 1.107L28.6763 18.963L30.5797 18.349L24.8197 0.492995L22.9163 1.107ZM30.578 18.9682L36.446 1.1122L34.546 0.487796L28.678 18.3438L30.578 18.9682ZM35.496 1.8H41.076V-0.200002H35.496V1.8ZM63.8438 21.32H64.8438V20.32H63.8438V21.32ZM63.8438 26V27H64.8438V26H63.8438ZM44.3317 26H43.3317V27H44.3317V26ZM44.3317 0.799998V-0.200002H43.3317V0.799998H44.3317ZM63.3758 0.799998H64.3758V-0.200002H63.3758V0.799998ZM63.3758 5.48V6.48H64.3758V5.48H63.3758ZM50.1278 5.48V4.48H49.1278V5.48H50.1278ZM50.1278 10.952H49.1278V11.952H50.1278V10.952ZM61.8278 10.952H62.8278V9.952H61.8278V10.952ZM61.8278 15.488V16.488H62.8278V15.488H61.8278ZM50.1278 15.488V14.488H49.1278V15.488H50.1278ZM50.1278 21.32H49.1278V22.32H50.1278V21.32ZM62.8438 21.32V26H64.8438V21.32H62.8438ZM63.8438 25H44.3317V27H63.8438V25ZM45.3317 26V0.799998H43.3317V26H45.3317ZM44.3317 1.8H63.3758V-0.200002H44.3317V1.8ZM62.3758 0.799998V5.48H64.3758V0.799998H62.3758ZM63.3758 4.48H50.1278V6.48H63.3758V4.48ZM49.1278 5.48V10.952H51.1278V5.48H49.1278ZM50.1278 11.952H61.8278V9.952H50.1278V11.952ZM60.8278 10.952V15.488H62.8278V10.952H60.8278ZM61.8278 14.488H50.1278V16.488H61.8278V14.488ZM49.1278 15.488V21.32H51.1278V15.488H49.1278ZM50.1278 22.32H63.8438V20.32H50.1278V22.32ZM83.7554 24.776L83.2758 25.6536L83.288 25.66L83.7554 24.776ZM78.8594 20.132L77.9983 20.6404L78.0019 20.6465L78.0056 20.6526L78.8594 20.132ZM78.8594 6.704L78.0028 6.18798L78.001 6.19104L78.8594 6.704ZM83.7554 2.06L84.2271 2.94179L84.2307 2.93982L83.7554 2.06ZM96.6794 1.52L96.2779 2.43588L96.2825 2.43786L96.6794 1.52ZM101.143 4.832L101.822 5.5668L102.52 4.92206L101.912 4.19182L101.143 4.832ZM97.3994 8.288L96.6434 8.94258L97.3191 9.723L98.0777 9.0228L97.3994 8.288ZM86.8874 6.38L87.3687 7.25658L87.3752 7.25298L87.3817 7.24929L86.8874 6.38ZM84.0074 9.224L83.1381 8.7297L83.1344 8.73619L83.1308 8.74274L84.0074 9.224ZM84.0074 17.576L83.1308 18.0573L83.1344 18.0638L83.1381 18.0703L84.0074 17.576ZM86.8874 20.456L86.3931 21.3253L86.3996 21.329L86.4062 21.3326L86.8874 20.456ZM97.3994 18.476L98.0777 17.7412L97.3146 17.0368L96.6395 17.826L97.3994 18.476ZM101.143 21.932L101.917 22.5659L102.515 21.8367L101.822 21.1972L101.143 21.932ZM96.6794 25.28L96.2825 24.3621L96.6794 25.28ZM90.7394 25.432C88.3198 25.432 86.1545 24.9133 84.2228 23.892L83.288 25.66C85.5323 26.8467 88.023 27.432 90.7394 27.432V25.432ZM84.235 23.8985C82.3216 22.8528 80.82 21.4265 79.7132 19.6114L78.0056 20.6526C79.2988 22.7735 81.0613 24.4432 83.2758 25.6535L84.235 23.8985ZM79.7205 19.6236C78.6426 17.7977 78.0954 15.7318 78.0954 13.4H76.0954C76.0954 16.0602 76.7242 18.4823 77.9983 20.6404L79.7205 19.6236ZM78.0954 13.4C78.0954 11.0681 78.6426 9.01627 79.7178 7.21696L78.001 6.19104C76.7242 8.32773 76.0954 10.7399 76.0954 13.4H78.0954ZM79.716 7.22001C80.8223 5.38346 82.3209 3.96136 84.2271 2.94178L83.2838 1.17822C81.0619 2.36664 79.2965 4.04054 78.0028 6.18799L79.716 7.22001ZM84.2307 2.93982C86.1595 1.89782 88.3337 1.368 90.7754 1.368V-0.632C88.0331 -0.632 85.5273 -0.0338221 83.2801 1.18018L84.2307 2.93982ZM90.7754 1.368C92.8407 1.368 94.6692 1.73069 96.2779 2.43587L97.0809 0.604131C95.1856 -0.226686 93.0781 -0.632 90.7754 -0.632V1.368ZM96.2825 2.43786C97.9195 3.14574 99.2788 4.15651 100.375 5.47218L101.912 4.19182C100.608 2.62749 98.9913 1.43026 97.0763 0.602142L96.2825 2.43786ZM100.465 4.0972L96.7211 7.5532L98.0777 9.0228L101.822 5.5668L100.465 4.0972ZM98.1554 7.63342C96.2686 5.45434 93.8844 4.336 91.0634 4.336V6.336C93.2824 6.336 95.1222 7.18566 96.6434 8.94258L98.1554 7.63342ZM91.0634 4.336C89.3492 4.336 87.7836 4.72005 86.3931 5.51071L87.3817 7.24929C88.4392 6.64795 89.6576 6.336 91.0634 6.336V4.336ZM86.4062 5.50342C85.0185 6.26527 83.9248 7.34625 83.1381 8.7297L84.8767 9.7183C85.482 8.65375 86.3083 7.83873 87.3687 7.25658L86.4062 5.50342ZM83.1308 8.74274C82.3687 10.1309 81.9994 11.6918 81.9994 13.4H83.9994C83.9994 11.9882 84.3021 10.7651 84.884 9.70526L83.1308 8.74274ZM81.9994 13.4C81.9994 15.1082 82.3687 16.6691 83.1308 18.0573L84.884 17.0947C84.3021 16.0349 83.9994 14.8118 83.9994 13.4H81.9994ZM83.1381 18.0703C83.9231 19.4508 85.0126 20.5403 86.3931 21.3253L87.3817 19.5867C86.3142 18.9797 85.4837 18.1492 84.8767 17.0817L83.1381 18.0703ZM86.4062 21.3326C87.7943 22.0947 89.3552 22.464 91.0634 22.464V20.464C89.6516 20.464 88.4285 20.1613 87.3687 19.5794L86.4062 21.3326ZM91.0634 22.464C93.8889 22.464 96.2741 21.3299 98.1593 19.126L96.6395 17.826C95.1167 19.6061 93.2779 20.464 91.0634 20.464V22.464ZM96.7211 19.2108L100.465 22.6668L101.822 21.1972L98.0777 17.7412L96.7211 19.2108ZM100.37 21.2981C99.2734 22.636 97.9155 23.656 96.2825 24.3621L97.0763 26.1979C98.9953 25.368 100.613 24.156 101.917 22.5659L100.37 21.2981ZM96.2825 24.3621C94.647 25.0694 92.8044 25.432 90.7394 25.432V27.432C93.0424 27.432 95.1598 27.0266 97.0763 26.1979L96.2825 24.3621ZM121.186 20.6L122.11 20.218L121.854 19.6H121.186V20.6ZM109.486 20.6V19.6H108.817L108.561 20.218L109.486 20.6ZM107.254 26V27H107.922L108.178 26.382L107.254 26ZM101.278 26L100.364 25.5929L99.737 27H101.278V26ZM112.51 0.799998V-0.200002H111.86L111.596 0.392892L112.51 0.799998ZM118.27 0.799998L119.182 0.391804L118.918 -0.200002H118.27V0.799998ZM129.538 26V27H131.08L130.45 25.5918L129.538 26ZM123.418 26L122.493 26.382L122.749 27H123.418V26ZM119.35 16.172V17.172H120.846L120.273 15.7893L119.35 16.172ZM115.354 6.524L116.277 6.14134L115.354 3.91069L114.43 6.14134L115.354 6.524ZM111.358 16.172L110.434 15.7893L109.861 17.172H111.358V16.172ZM121.186 19.6H109.486V21.6H121.186V19.6ZM108.561 20.218L106.329 25.618L108.178 26.382L110.41 20.982L108.561 20.218ZM107.254 25H101.278V27H107.254V25ZM102.191 26.4071L113.423 1.2071L111.596 0.392892L100.364 25.5929L102.191 26.4071ZM112.51 1.8H118.27V-0.200002H112.51V1.8ZM117.357 1.20819L128.625 26.4082L130.45 25.5918L119.182 0.391804L117.357 1.20819ZM129.538 25H123.418V27H129.538V25ZM124.342 25.618L122.11 20.218L120.261 20.982L122.493 26.382L124.342 25.618ZM120.273 15.7893L116.277 6.14134L114.43 6.90666L118.426 16.5547L120.273 15.7893ZM114.43 6.14134L110.434 15.7893L112.281 16.5547L116.277 6.90666L114.43 6.14134ZM111.358 17.172H119.35V15.172H111.358V17.172ZM155.264 0.799998H156.264V-0.200002H155.264V0.799998ZM155.264 26V27H156.264V26H155.264ZM150.476 26L149.703 26.6346L150.003 27H150.476V26ZM137.912 10.7L138.685 10.0654L136.912 7.9065V10.7H137.912ZM137.912 26V27H138.912V26H137.912ZM132.152 26H131.152V27H132.152V26ZM132.152 0.799998V-0.200002H131.152V0.799998H132.152ZM136.976 0.799998L137.75 0.166463L137.45 -0.200002H136.976V0.799998ZM149.504 16.1L148.73 16.7335L150.504 18.8997V16.1H149.504ZM149.504 0.799998V-0.200002H148.504V0.799998H149.504ZM154.264 0.799998V26H156.264V0.799998H154.264ZM155.264 25H150.476V27H155.264V25ZM151.249 25.3654L138.685 10.0654L137.139 11.3346L149.703 26.6346L151.249 25.3654ZM136.912 10.7V26H138.912V10.7H136.912ZM137.912 25H132.152V27H137.912V25ZM133.152 26V0.799998H131.152V26H133.152ZM132.152 1.8H136.976V-0.200002H132.152V1.8ZM136.202 1.43353L148.73 16.7335L150.278 15.4665L137.75 0.166463L136.202 1.43353ZM150.504 16.1V0.799998H148.504V16.1H150.504ZM149.504 1.8H155.264V-0.200002H149.504V1.8ZM176.534 24.74L176.058 25.6198L176.062 25.6221L176.534 24.74ZM171.602 20.096L170.74 20.6044L170.744 20.6105L170.748 20.6166L171.602 20.096ZM171.602 6.74L170.745 6.22398L170.743 6.22704L171.602 6.74ZM176.534 2.06L176.062 1.17791L176.058 1.18018L176.534 2.06ZM195.614 6.74L194.757 7.25602L194.76 7.26061L195.614 6.74ZM195.614 20.096L196.467 20.6166L196.47 20.612L195.614 20.096ZM190.682 24.74L191.157 25.6198L190.682 24.74ZM187.658 20.456L188.146 21.3285L188.153 21.3248L188.159 21.321L187.658 20.456ZM190.466 17.576L189.596 17.0817L189.593 17.0882L189.589 17.0947L190.466 17.576ZM190.466 9.224L189.589 9.70526L189.593 9.71181L189.596 9.7183L190.466 9.224ZM187.658 6.38L187.156 7.24503L187.162 7.24882L187.169 7.25251L187.658 6.38ZM179.594 6.38L180.082 7.25251L180.089 7.24882L180.095 7.24503L179.594 6.38ZM176.75 9.224L175.88 8.7297L175.877 8.73619L175.873 8.74274L176.75 9.224ZM176.75 17.576L175.873 18.0573L175.877 18.0638L175.88 18.0703L176.75 17.576ZM179.594 20.456L179.092 21.321L179.098 21.3248L179.105 21.3285L179.594 20.456ZM183.626 25.432C181.158 25.432 178.959 24.9015 177.005 23.8579L176.062 25.6221C178.333 26.8345 180.861 27.432 183.626 27.432V25.432ZM177.009 23.8602C175.072 22.8137 173.56 21.3877 172.455 19.5754L170.748 20.6166C172.043 22.7403 173.819 24.4103 176.058 25.6198L177.009 23.8602ZM172.463 19.5876C171.384 17.7602 170.838 15.7059 170.838 13.4H168.838C168.838 16.0381 169.467 18.4478 170.74 20.6044L172.463 19.5876ZM170.838 13.4C170.838 11.094 171.384 9.05379 172.46 7.25295L170.743 6.22704C169.467 8.36221 168.838 10.762 168.838 13.4H170.838ZM172.458 7.25601C173.564 5.42046 175.075 3.98465 177.009 2.93982L176.058 1.18018C173.816 2.39135 172.039 4.07554 170.745 6.22399L172.458 7.25601ZM177.005 2.94207C178.959 1.89851 181.158 1.368 183.626 1.368V-0.632C180.861 -0.632 178.333 -0.0345097 176.062 1.17792L177.005 2.94207ZM183.626 1.368C186.093 1.368 188.279 1.89855 190.206 2.93982L191.157 1.18018C188.908 -0.0345469 186.39 -0.632 183.626 -0.632V1.368ZM190.206 2.93982C192.14 3.98465 193.651 5.42046 194.757 7.25601L196.47 6.22399C195.176 4.07554 193.399 2.39135 191.157 1.18018L190.206 2.93982ZM194.76 7.26061C195.857 9.06038 196.414 11.0978 196.414 13.4H198.414C198.414 10.7582 197.77 8.35561 196.467 6.21939L194.76 7.26061ZM196.414 13.4C196.414 15.7021 195.857 17.7537 194.757 19.58L196.47 20.612C197.77 18.4543 198.414 16.0419 198.414 13.4H196.414ZM194.76 19.5754C193.655 21.3877 192.143 22.8137 190.206 23.8602L191.157 25.6198C193.396 24.4103 195.172 22.7403 196.467 20.6166L194.76 19.5754ZM190.206 23.8602C188.279 24.9015 186.093 25.432 183.626 25.432V27.432C186.39 27.432 188.908 26.8345 191.157 25.6198L190.206 23.8602ZM183.626 22.464C185.27 22.464 186.785 22.0909 188.146 21.3285L187.169 19.5835C186.13 20.1651 184.957 20.464 183.626 20.464V22.464ZM188.159 21.321C189.518 20.533 190.583 19.4398 191.342 18.0573L189.589 17.0947C189.004 18.1602 188.197 18.987 187.156 19.591L188.159 21.321ZM191.335 18.0703C192.126 16.6798 192.51 15.1142 192.51 13.4H190.51C190.51 14.8058 190.198 16.0242 189.596 17.0817L191.335 18.0703ZM192.51 13.4C192.51 11.6858 192.126 10.1202 191.335 8.7297L189.596 9.7183C190.198 10.7758 190.51 11.9942 190.51 13.4H192.51ZM191.342 8.74274C190.581 7.35721 189.512 6.27247 188.146 5.50749L187.169 7.25251C188.203 7.83153 189.006 8.64278 189.589 9.70526L191.342 8.74274ZM188.159 5.51497C186.796 4.72414 185.277 4.336 183.626 4.336V6.336C184.951 6.336 186.119 6.64385 187.156 7.24503L188.159 5.51497ZM183.626 4.336C181.975 4.336 180.455 4.72414 179.092 5.51497L180.095 7.24503C181.132 6.64385 182.301 6.336 183.626 6.336V4.336ZM179.105 5.50749C177.742 6.27072 176.664 7.35126 175.88 8.7297L177.619 9.7183C178.227 8.64874 179.045 7.83327 180.082 7.25251L179.105 5.50749ZM175.873 8.74274C175.111 10.1309 174.742 11.6918 174.742 13.4H176.742C176.742 11.9882 177.044 10.7651 177.626 9.70526L175.873 8.74274ZM174.742 13.4C174.742 15.1082 175.111 16.6691 175.873 18.0573L177.626 17.0947C177.044 16.0349 176.742 14.8118 176.742 13.4H174.742ZM175.88 18.0703C176.662 19.4458 177.736 20.5348 179.092 21.321L180.095 19.591C179.051 18.9852 178.229 18.1542 177.619 17.0817L175.88 18.0703ZM179.105 21.3285C180.466 22.0909 181.981 22.464 183.626 22.464V20.464C182.294 20.464 181.121 20.1651 180.082 19.5835L179.105 21.3285ZM217.853 26L217.03 26.5692L217.329 27H217.853V26ZM212.993 18.98L213.815 18.4108L213.517 17.98H212.993V18.98ZM207.629 18.98V17.98H206.629V18.98H207.629ZM207.629 26V27H208.629V26H207.629ZM201.797 26H200.797V27H201.797V26ZM201.797 0.799998V-0.200002H200.797V0.799998H201.797ZM218.501 1.916L218.086 2.82592L218.091 2.82817L218.501 1.916ZM222.281 14.804L221.449 14.2493L221.446 14.2527L222.281 14.804ZM218.465 17.9L218.066 16.9829L216.945 17.4701L217.645 18.4722L218.465 17.9ZM224.117 26V27H226.034L224.937 25.4278L224.117 26ZM216.377 6.704L215.732 7.46891L215.738 7.47393L215.744 7.47886L216.377 6.704ZM207.629 5.552V4.552H206.629V5.552H207.629ZM207.629 14.336H206.629V15.336H207.629V14.336ZM216.377 13.184L217.021 13.9489L216.377 13.184ZM218.675 25.4308L213.815 18.4108L212.17 19.5492L217.03 26.5692L218.675 25.4308ZM212.993 17.98H212.705V19.98H212.993V17.98ZM212.705 17.98H207.629V19.98H212.705V17.98ZM206.629 18.98V26H208.629V18.98H206.629ZM207.629 25H201.797V27H207.629V25ZM202.797 26V0.799998H200.797V26H202.797ZM201.797 1.8H212.705V-0.200002H201.797V1.8ZM212.705 1.8C214.827 1.8 216.612 2.15393 218.086 2.82591L218.915 1.00609C217.125 0.190066 215.046 -0.200002 212.705 -0.200002V1.8ZM218.091 2.82817C219.592 3.5026 220.706 4.43961 221.478 5.62847L223.155 4.53953C222.151 2.99239 220.721 1.8174 218.91 1.00383L218.091 2.82817ZM221.478 5.62847C222.246 6.81143 222.649 8.23595 222.649 9.944H224.649C224.649 7.90805 224.163 6.09257 223.155 4.53953L221.478 5.62847ZM222.649 9.944C222.649 11.6468 222.236 13.0676 221.449 14.2493L223.113 15.3587C224.149 13.8044 224.649 11.9852 224.649 9.944H222.649ZM221.446 14.2527C220.678 15.4161 219.567 16.3305 218.066 16.9829L218.863 18.8171C220.675 18.0295 222.108 16.8799 223.115 15.3553L221.446 14.2527ZM217.645 18.4722L223.297 26.5722L224.937 25.4278L219.285 17.3278L217.645 18.4722ZM224.117 25H217.853V27H224.117V25ZM218.745 9.944C218.745 8.29507 218.201 6.90196 217.009 5.92913L215.744 7.47886C216.376 7.99404 216.745 8.76093 216.745 9.944H218.745ZM217.021 5.93909C215.86 4.96199 214.261 4.552 212.381 4.552V6.552C214.004 6.552 215.069 6.91001 215.732 7.46891L217.021 5.93909ZM212.381 4.552H207.629V6.552H212.381V4.552ZM206.629 5.552V14.336H208.629V5.552H206.629ZM207.629 15.336H212.381V13.336H207.629V15.336ZM212.381 15.336C214.261 15.336 215.86 14.926 217.021 13.9489L215.732 12.4191C215.069 12.978 214.004 13.336 212.381 13.336V15.336ZM217.021 13.9489C218.197 12.9582 218.745 11.5761 218.745 9.944H216.745C216.745 11.0959 216.38 11.8738 215.732 12.4191L217.021 13.9489ZM245.297 13.004V12.004H244.297V13.004H245.297ZM250.625 13.004H251.625V12.004H250.625V13.004ZM250.625 23.228L251.227 24.0263L251.625 23.7262V23.228H250.625ZM245.873 25.604L246.166 26.5601L245.873 25.604ZM233.381 24.776L232.906 25.6559L232.914 25.66L233.381 24.776ZM228.449 20.132L227.588 20.6404L227.592 20.6465L227.595 20.6526L228.449 20.132ZM228.449 6.704L227.593 6.18798L227.591 6.19104L228.449 6.704ZM233.417 2.06L233.881 2.94626L233.888 2.94207L233.417 2.06ZM246.557 1.484L246.939 0.559832V0.559831L246.557 1.484ZM251.093 4.724L251.772 5.4588L252.483 4.8023L251.85 4.07005L251.093 4.724ZM247.349 8.18L246.624 8.86851L247.303 9.58364L248.028 8.9148L247.349 8.18ZM236.549 6.344L237.023 7.22447L236.549 6.344ZM233.633 17.576L232.764 18.0703L233.633 17.576ZM236.513 20.456L236.019 21.3253L236.029 21.331L236.039 21.3365L236.513 20.456ZM245.297 20.384L245.769 21.2655L246.297 20.9827V20.384H245.297ZM245.297 14.004H250.625V12.004H245.297V14.004ZM249.625 13.004V23.228H251.625V13.004H249.625ZM250.023 22.4297C248.757 23.3849 247.28 24.1268 245.58 24.6479L246.166 26.5601C248.067 25.9772 249.758 25.1351 251.227 24.0263L250.023 22.4297ZM245.58 24.6479C243.872 25.1718 242.159 25.432 240.437 25.432V27.432C242.364 27.432 244.275 27.1402 246.166 26.5601L245.58 24.6479ZM240.437 25.432C237.966 25.432 235.778 24.9119 233.849 23.892L232.914 25.66C235.161 26.8481 237.676 27.432 240.437 27.432V25.432ZM233.857 23.8962C231.919 22.8497 230.408 21.4237 229.303 19.6114L227.595 20.6526C228.89 22.7763 230.667 24.4463 232.906 25.6558L233.857 23.8962ZM229.31 19.6236C228.232 17.7977 227.685 15.7318 227.685 13.4H225.685C225.685 16.0602 226.314 18.4823 227.588 20.6404L229.31 19.6236ZM227.685 13.4C227.685 11.0681 228.232 9.01627 229.308 7.21696L227.591 6.19104C226.314 8.32773 225.685 10.7399 225.685 13.4H227.685ZM229.306 7.22001C230.409 5.38921 231.927 3.96745 233.881 2.94622L232.954 1.17377C230.684 2.36055 228.89 4.03479 227.593 6.18799L229.306 7.22001ZM233.888 2.94207C235.841 1.89921 238.052 1.368 240.545 1.368V-0.632C237.758 -0.632 235.218 -0.0352135 232.946 1.17792L233.888 2.94207ZM240.545 1.368C242.64 1.368 244.512 1.72049 246.175 2.40816L246.939 0.559831C245.003 -0.240489 242.867 -0.632 240.545 -0.632V1.368ZM246.175 2.40816C247.837 3.09505 249.219 4.08486 250.337 5.37795L251.85 4.07005C250.52 2.53114 248.877 1.36095 246.939 0.559832L246.175 2.40816ZM250.415 3.9892L246.671 7.4452L248.028 8.9148L251.772 5.4588L250.415 3.9892ZM248.074 7.49149C246.092 5.40282 243.66 4.336 240.833 4.336V6.336C243.095 6.336 245.007 7.16518 246.624 8.86851L248.074 7.49149ZM240.833 4.336C239.082 4.336 237.487 4.70304 236.075 5.46353L237.023 7.22447C238.107 6.64095 239.368 6.336 240.833 6.336V4.336ZM236.075 5.46353C234.663 6.22395 233.553 7.30527 232.764 8.6937L234.503 9.6823C235.105 8.62273 235.94 7.80805 237.023 7.22447L236.075 5.46353ZM232.764 8.6937C231.972 10.0864 231.589 11.6648 231.589 13.4H233.589C233.589 11.9672 233.902 10.7376 234.503 9.6823L232.764 8.6937ZM231.589 13.4C231.589 15.1142 231.973 16.6798 232.764 18.0703L234.503 17.0817C233.901 16.0242 233.589 14.8058 233.589 13.4H231.589ZM232.764 18.0703C233.549 19.4508 234.638 20.5403 236.019 21.3253L237.008 19.5867C235.94 18.9797 235.11 18.1492 234.503 17.0817L232.764 18.0703ZM236.039 21.3365C237.449 22.0958 239.032 22.464 240.761 22.464V20.464C239.323 20.464 238.073 20.1602 236.987 19.5755L236.039 21.3365ZM240.761 22.464C242.589 22.464 244.266 22.071 245.769 21.2655L244.825 19.5025C243.641 20.137 242.294 20.464 240.761 20.464V22.464ZM246.297 20.384V13.004H244.297V20.384H246.297ZM272.639 20.6L273.563 20.218L273.307 19.6H272.639V20.6ZM260.939 20.6V19.6H260.27L260.015 20.218L260.939 20.6ZM258.707 26V27H259.375L259.631 26.382L258.707 26ZM252.731 26L251.817 25.5929L251.19 27H252.731V26ZM263.963 0.799998V-0.200002H263.314L263.049 0.392892L263.963 0.799998ZM269.723 0.799998L270.636 0.391804L270.371 -0.200002H269.723V0.799998ZM280.991 26V27H282.533L281.904 25.5918L280.991 26ZM274.871 26L273.947 26.382L274.202 27H274.871V26ZM270.803 16.172V17.172H272.299L271.727 15.7893L270.803 16.172ZM266.807 6.524L267.731 6.14134L266.807 3.91069L265.883 6.14134L266.807 6.524ZM262.811 16.172L261.887 15.7893L261.314 17.172H262.811V16.172ZM272.639 19.6H260.939V21.6H272.639V19.6ZM260.015 20.218L257.783 25.618L259.631 26.382L261.863 20.982L260.015 20.218ZM258.707 25H252.731V27H258.707V25ZM253.644 26.4071L264.876 1.2071L263.049 0.392892L251.817 25.5929L253.644 26.4071ZM263.963 1.8H269.723V-0.200002H263.963V1.8ZM268.81 1.20819L280.078 26.4082L281.904 25.5918L270.636 0.391804L268.81 1.20819ZM280.991 25H274.871V27H280.991V25ZM275.795 25.618L273.563 20.218L271.715 20.982L273.947 26.382L275.795 25.618ZM271.727 15.7893L267.731 6.14134L265.883 6.90666L269.879 16.5547L271.727 15.7893ZM265.883 6.14134L261.887 15.7893L263.735 16.5547L267.731 6.90666L265.883 6.14134ZM262.811 17.172H270.803V15.172H262.811V17.172ZM306.717 0.799998H307.717V-0.200002H306.717V0.799998ZM306.717 26V27H307.717V26H306.717ZM301.929 26L301.156 26.6346L301.456 27H301.929V26ZM289.365 10.7L290.138 10.0654L288.365 7.9065V10.7H289.365ZM289.365 26V27H290.365V26H289.365ZM283.605 26H282.605V27H283.605V26ZM283.605 0.799998V-0.200002H282.605V0.799998H283.605ZM288.429 0.799998L289.203 0.166463L288.903 -0.200002H288.429V0.799998ZM300.957 16.1L300.183 16.7335L301.957 18.8997V16.1H300.957ZM300.957 0.799998V-0.200002H299.957V0.799998H300.957ZM305.717 0.799998V26H307.717V0.799998H305.717ZM306.717 25H301.929V27H306.717V25ZM302.702 25.3654L290.138 10.0654L288.592 11.3346L301.156 26.6346L302.702 25.3654ZM288.365 10.7V26H290.365V10.7H288.365ZM289.365 25H283.605V27H289.365V25ZM284.605 26V0.799998H282.605V26H284.605ZM283.605 1.8H288.429V-0.200002H283.605V1.8ZM287.655 1.43353L300.183 16.7335L301.731 15.4665L289.203 0.166463L287.655 1.43353ZM301.957 16.1V0.799998H299.957V16.1H301.957ZM300.957 1.8H306.717V-0.200002H300.957V1.8ZM312.679 0.799998V-0.200002H311.679V0.799998H312.679ZM318.511 0.799998H319.511V-0.200002H318.511V0.799998ZM318.511 26V27H319.511V26H318.511ZM312.679 26H311.679V27H312.679V26ZM312.679 1.8H318.511V-0.200002H312.679V1.8ZM317.511 0.799998V26H319.511V0.799998H317.511ZM318.511 25H312.679V27H318.511V25ZM313.679 26V0.799998H311.679V26H313.679ZM344.904 21.248H345.904V20.248H344.904V21.248ZM344.904 26V27H345.904V26H344.904ZM322.872 26H321.872V27H322.872V26ZM322.872 22.22L322.102 21.5816L321.872 21.8593V22.22H322.872ZM336.696 5.552L337.466 6.19038L338.824 4.552H336.696V5.552ZM323.16 5.552H322.16V6.552H323.16V5.552ZM323.16 0.799998V-0.200002H322.16V0.799998H323.16ZM344.364 0.799998H345.364V-0.200002H344.364V0.799998ZM344.364 4.58L345.134 5.2174L345.364 4.94V4.58H344.364ZM330.576 21.248L329.805 20.6106L328.451 22.248H330.576V21.248ZM343.904 21.248V26H345.904V21.248H343.904ZM344.904 25H322.872V27H344.904V25ZM323.872 26V22.22H321.872V26H323.872ZM323.642 22.8584L337.466 6.19038L335.926 4.91362L322.102 21.5816L323.642 22.8584ZM336.696 4.552H323.16V6.552H336.696V4.552ZM324.16 5.552V0.799998H322.16V5.552H324.16ZM323.16 1.8H344.364V-0.200002H323.16V1.8ZM343.364 0.799998V4.58H345.364V0.799998H343.364ZM343.593 3.9426L329.805 20.6106L331.346 21.8854L345.134 5.2174L343.593 3.9426ZM330.576 22.248H344.904V20.248H330.576V22.248ZM368.156 21.32H369.156V20.32H368.156V21.32ZM368.156 26V27H369.156V26H368.156ZM348.644 26H347.644V27H348.644V26ZM348.644 0.799998V-0.200002H347.644V0.799998H348.644ZM367.688 0.799998H368.688V-0.200002H367.688V0.799998ZM367.688 5.48V6.48H368.688V5.48H367.688ZM354.44 5.48V4.48H353.44V5.48H354.44ZM354.44 10.952H353.44V11.952H354.44V10.952ZM366.14 10.952H367.14V9.952H366.14V10.952ZM366.14 15.488V16.488H367.14V15.488H366.14ZM354.44 15.488V14.488H353.44V15.488H354.44ZM354.44 21.32H353.44V22.32H354.44V21.32ZM367.156 21.32V26H369.156V21.32H367.156ZM368.156 25H348.644V27H368.156V25ZM349.644 26V0.799998H347.644V26H349.644ZM348.644 1.8H367.688V-0.200002H348.644V1.8ZM366.688 0.799998V5.48H368.688V0.799998H366.688ZM367.688 4.48H354.44V6.48H367.688V4.48ZM353.44 5.48V10.952H355.44V5.48H353.44ZM354.44 11.952H366.14V9.952H354.44V11.952ZM365.14 10.952V15.488H367.14V10.952H365.14ZM366.14 14.488H354.44V16.488H366.14V14.488ZM353.44 15.488V21.32H355.44V15.488H353.44ZM354.44 22.32H368.156V20.32H354.44V22.32ZM402.504 21.32H403.504V20.32H402.504V21.32ZM402.504 26V27H403.504V26H402.504ZM382.992 26H381.992V27H382.992V26ZM382.992 0.799998V-0.200002H381.992V0.799998H382.992ZM402.036 0.799998H403.036V-0.200002H402.036V0.799998ZM402.036 5.48V6.48H403.036V5.48H402.036ZM388.788 5.48V4.48H387.788V5.48H388.788ZM388.788 10.952H387.788V11.952H388.788V10.952ZM400.488 10.952H401.488V9.952H400.488V10.952ZM400.488 15.488V16.488H401.488V15.488H400.488ZM388.788 15.488V14.488H387.788V15.488H388.788ZM388.788 21.32H387.788V22.32H388.788V21.32ZM401.504 21.32V26H403.504V21.32H401.504ZM402.504 25H382.992V27H402.504V25ZM383.992 26V0.799998H381.992V26H383.992ZM382.992 1.8H402.036V-0.200002H382.992V1.8ZM401.036 0.799998V5.48H403.036V0.799998H401.036ZM402.036 4.48H388.788V6.48H402.036V4.48ZM387.788 5.48V10.952H389.788V5.48H387.788ZM388.788 11.952H400.488V9.952H388.788V11.952ZM399.488 10.952V15.488H401.488V10.952H399.488ZM400.488 14.488H388.788V16.488H400.488V14.488ZM387.788 15.488V21.32H389.788V15.488H387.788ZM388.788 22.32H402.504V20.32H388.788V22.32ZM431.021 0.799998L431.938 1.19724L432.543 -0.200002H431.021V0.799998ZM420.113 26V27H420.77L421.03 26.3972L420.113 26ZM414.353 26L413.435 26.3961L413.695 27H414.353V26ZM403.481 0.799998V-0.200002H401.96L402.562 1.19613L403.481 0.799998ZM409.781 0.799998L410.701 0.408078L410.442 -0.200002H409.781V0.799998ZM417.449 18.8L416.529 19.1919L417.442 21.3365L418.367 19.1966L417.449 18.8ZM425.225 0.799998V-0.200002H424.567L424.307 0.403421L425.225 0.799998ZM430.103 0.402759L419.195 25.6028L421.03 26.3972L431.938 1.19724L430.103 0.402759ZM420.113 25H414.353V27H420.113V25ZM415.271 25.6039L404.399 0.403864L402.562 1.19613L413.435 26.3961L415.271 25.6039ZM403.481 1.8H409.781V-0.200002H403.481V1.8ZM408.861 1.19192L416.529 19.1919L418.369 18.4081L410.701 0.408078L408.861 1.19192ZM418.367 19.1966L426.143 1.19658L424.307 0.403421L416.531 18.4034L418.367 19.1966ZM425.225 1.8H431.021V-0.200002H425.225V1.8ZM452.637 21.32H453.637V20.32H452.637V21.32ZM452.637 26V27H453.637V26H452.637ZM433.125 26H432.125V27H433.125V26ZM433.125 0.799998V-0.200002H432.125V0.799998H433.125ZM452.169 0.799998H453.169V-0.200002H452.169V0.799998ZM452.169 5.48V6.48H453.169V5.48H452.169ZM438.921 5.48V4.48H437.921V5.48H438.921ZM438.921 10.952H437.921V11.952H438.921V10.952ZM450.621 10.952H451.621V9.952H450.621V10.952ZM450.621 15.488V16.488H451.621V15.488H450.621ZM438.921 15.488V14.488H437.921V15.488H438.921ZM438.921 21.32H437.921V22.32H438.921V21.32ZM451.637 21.32V26H453.637V21.32H451.637ZM452.637 25H433.125V27H452.637V25ZM434.125 26V0.799998H432.125V26H434.125ZM433.125 1.8H452.169V-0.200002H433.125V1.8ZM451.169 0.799998V5.48H453.169V0.799998H451.169ZM452.169 4.48H438.921V6.48H452.169V4.48ZM437.921 5.48V10.952H439.921V5.48H437.921ZM438.921 11.952H450.621V9.952H438.921V11.952ZM449.621 10.952V15.488H451.621V10.952H449.621ZM450.621 14.488H438.921V16.488H450.621V14.488ZM437.921 15.488V21.32H439.921V15.488H437.921ZM438.921 22.32H452.637V20.32H438.921V22.32ZM473.333 26L472.511 26.5692L472.809 27H473.333V26ZM468.473 18.98L469.295 18.4108L468.997 17.98H468.473V18.98ZM463.109 18.98V17.98H462.109V18.98H463.109ZM463.109 26V27H464.109V26H463.109ZM457.277 26H456.277V27H457.277V26ZM457.277 0.799998V-0.200002H456.277V0.799998H457.277ZM473.981 1.916L473.566 2.82592L473.571 2.82817L473.981 1.916ZM477.761 14.804L476.929 14.2493L476.927 14.2527L477.761 14.804ZM473.945 17.9L473.546 16.9829L472.426 17.4701L473.125 18.4722L473.945 17.9ZM479.597 26V27H481.514L480.417 25.4278L479.597 26ZM471.857 6.704L471.213 7.46891L471.219 7.47393L471.225 7.47886L471.857 6.704ZM463.109 5.552V4.552H462.109V5.552H463.109ZM463.109 14.336H462.109V15.336H463.109V14.336ZM471.857 13.184L472.501 13.9489L471.857 13.184ZM474.155 25.4308L469.295 18.4108L467.651 19.5492L472.511 26.5692L474.155 25.4308ZM468.473 17.98H468.185V19.98H468.473V17.98ZM468.185 17.98H463.109V19.98H468.185V17.98ZM462.109 18.98V26H464.109V18.98H462.109ZM463.109 25H457.277V27H463.109V25ZM458.277 26V0.799998H456.277V26H458.277ZM457.277 1.8H468.185V-0.200002H457.277V1.8ZM468.185 1.8C470.308 1.8 472.092 2.15393 473.566 2.82591L474.396 1.00609C472.606 0.190066 470.526 -0.200002 468.185 -0.200002V1.8ZM473.571 2.82817C475.072 3.5026 476.187 4.43961 476.958 5.62847L478.636 4.53953C477.632 2.99239 476.202 1.8174 474.391 1.00383L473.571 2.82817ZM476.958 5.62847C477.726 6.81143 478.129 8.23595 478.129 9.944H480.129C480.129 7.90805 479.644 6.09257 478.636 4.53953L476.958 5.62847ZM478.129 9.944C478.129 11.6468 477.717 13.0676 476.929 14.2493L478.593 15.3587C479.629 13.8044 480.129 11.9852 480.129 9.944H478.129ZM476.927 14.2527C476.158 15.4161 475.047 16.3305 473.546 16.9829L474.344 18.8171C476.155 18.0295 477.588 16.8799 478.595 15.3553L476.927 14.2527ZM473.125 18.4722L478.777 26.5722L480.417 25.4278L474.765 17.3278L473.125 18.4722ZM479.597 25H473.333V27H479.597V25ZM474.225 9.944C474.225 8.29507 473.682 6.90196 472.489 5.92913L471.225 7.47886C471.856 7.99404 472.225 8.76093 472.225 9.944H474.225ZM472.501 5.93909C471.341 4.96199 469.741 4.552 467.861 4.552V6.552C469.485 6.552 470.549 6.91001 471.213 7.46891L472.501 5.93909ZM467.861 4.552H463.109V6.552H467.861V4.552ZM462.109 5.552V14.336H464.109V5.552H462.109ZM463.109 15.336H467.861V13.336H463.109V15.336ZM467.861 15.336C469.741 15.336 471.341 14.926 472.501 13.9489L471.213 12.4191C470.549 12.978 469.485 13.336 467.861 13.336V15.336ZM472.501 13.9489C473.678 12.9582 474.225 11.5761 474.225 9.944H472.225C472.225 11.0959 471.86 11.8738 471.213 12.4191L472.501 13.9489ZM495.494 17.072L494.637 16.5564L494.494 16.7943V17.072H495.494ZM495.494 26V27H496.494V26H495.494ZM489.662 26H488.662V27H489.662V26ZM489.662 17H490.662V16.7221L490.519 16.4841L489.662 17ZM479.906 0.799998V-0.200002H478.137L479.049 1.31589L479.906 0.799998ZM486.098 0.799998L486.955 0.284692L486.664 -0.200002H486.098V0.799998ZM492.83 11.996L491.973 12.5113L492.83 13.9366L493.687 12.5113L492.83 11.996ZM499.562 0.799998V-0.200002H498.997L498.705 0.284693L499.562 0.799998ZM505.286 0.799998L506.143 1.31561L507.055 -0.200002H505.286V0.799998ZM494.494 17.072V26H496.494V17.072H494.494ZM495.494 25H489.662V27H495.494V25ZM490.662 26V17H488.662V26H490.662ZM490.519 16.4841L480.763 0.284103L479.049 1.31589L488.806 17.5159L490.519 16.4841ZM479.906 1.8H486.098V-0.200002H479.906V1.8ZM485.241 1.3153L491.973 12.5113L493.687 11.4807L486.955 0.284692L485.241 1.3153ZM493.687 12.5113L500.419 1.3153L498.705 0.284693L491.973 11.4807L493.687 12.5113ZM499.562 1.8H505.286V-0.200002H499.562V1.8ZM504.429 0.284388L494.637 16.5564L496.351 17.5876L506.143 1.31561L504.429 0.284388ZM512.489 5.552H513.489V4.552H512.489V5.552ZM504.425 5.552H503.425V6.552H504.425V5.552ZM504.425 0.799998V-0.200002H503.425V0.799998H504.425ZM526.385 0.799998H527.385V-0.200002H526.385V0.799998ZM526.385 5.552V6.552H527.385V5.552H526.385ZM518.321 5.552V4.552H517.321V5.552H518.321ZM518.321 26V27H519.321V26H518.321ZM512.489 26H511.489V27H512.489V26ZM512.489 4.552H504.425V6.552H512.489V4.552ZM505.425 5.552V0.799998H503.425V5.552H505.425ZM504.425 1.8H526.385V-0.200002H504.425V1.8ZM525.385 0.799998V5.552H527.385V0.799998H525.385ZM526.385 4.552H518.321V6.552H526.385V4.552ZM517.321 5.552V26H519.321V5.552H517.321ZM518.321 25H512.489V27H518.321V25ZM513.489 26V5.552H511.489V26H513.489ZM552.635 0.799998H553.635V-0.200002H552.635V0.799998ZM552.635 26V27H553.635V26H552.635ZM546.803 26H545.803V27H546.803V26ZM546.803 15.668H547.803V14.668H546.803V15.668ZM535.355 15.668V14.668H534.355V15.668H535.355ZM535.355 26V27H536.355V26H535.355ZM529.523 26H528.523V27H529.523V26ZM529.523 0.799998V-0.200002H528.523V0.799998H529.523ZM535.355 0.799998H536.355V-0.200002H535.355V0.799998ZM535.355 10.736H534.355V11.736H535.355V10.736ZM546.803 10.736V11.736H547.803V10.736H546.803ZM546.803 0.799998V-0.200002H545.803V0.799998H546.803ZM551.635 0.799998V26H553.635V0.799998H551.635ZM552.635 25H546.803V27H552.635V25ZM547.803 26V15.668H545.803V26H547.803ZM546.803 14.668H535.355V16.668H546.803V14.668ZM534.355 15.668V26H536.355V15.668H534.355ZM535.355 25H529.523V27H535.355V25ZM530.523 26V0.799998H528.523V26H530.523ZM529.523 1.8H535.355V-0.200002H529.523V1.8ZM534.355 0.799998V10.736H536.355V0.799998H534.355ZM535.355 11.736H546.803V9.736H535.355V11.736ZM547.803 10.736V0.799998H545.803V10.736H547.803ZM546.803 1.8H552.635V-0.200002H546.803V1.8ZM558.597 0.799998V-0.200002H557.597V0.799998H558.597ZM564.429 0.799998H565.429V-0.200002H564.429V0.799998ZM564.429 26V27H565.429V26H564.429ZM558.597 26H557.597V27H558.597V26ZM558.597 1.8H564.429V-0.200002H558.597V1.8ZM563.429 0.799998V26H565.429V0.799998H563.429ZM564.429 25H558.597V27H564.429V25ZM559.597 26V0.799998H557.597V26H559.597ZM593.522 0.799998H594.522V-0.200002H593.522V0.799998ZM593.522 26V27H594.522V26H593.522ZM588.734 26L587.961 26.6346L588.261 27H588.734V26ZM576.17 10.7L576.943 10.0654L575.17 7.9065V10.7H576.17ZM576.17 26V27H577.17V26H576.17ZM570.41 26H569.41V27H570.41V26ZM570.41 0.799998V-0.200002H569.41V0.799998H570.41ZM575.234 0.799998L576.008 0.166463L575.708 -0.200002H575.234V0.799998ZM587.762 16.1L586.988 16.7335L588.762 18.8997V16.1H587.762ZM587.762 0.799998V-0.200002H586.762V0.799998H587.762ZM592.522 0.799998V26H594.522V0.799998H592.522ZM593.522 25H588.734V27H593.522V25ZM589.507 25.3654L576.943 10.0654L575.397 11.3346L587.961 26.6346L589.507 25.3654ZM575.17 10.7V26H577.17V10.7H575.17ZM576.17 25H570.41V27H576.17V25ZM571.41 26V0.799998H569.41V26H571.41ZM570.41 1.8H575.234V-0.200002H570.41V1.8ZM574.46 1.43353L586.988 16.7335L588.536 15.4665L576.008 0.166463L574.46 1.43353ZM588.762 16.1V0.799998H586.762V16.1H588.762ZM587.762 1.8H593.522V-0.200002H587.762V1.8ZM616.512 13.004V12.004H615.512V13.004H616.512ZM621.84 13.004H622.84V12.004H621.84V13.004ZM621.84 23.228L622.442 24.0263L622.84 23.7262V23.228H621.84ZM617.088 25.604L617.381 26.5601L617.088 25.604ZM604.596 24.776L604.121 25.6559L604.129 25.66L604.596 24.776ZM599.664 20.132L598.803 20.6404L598.807 20.6465L598.81 20.6526L599.664 20.132ZM599.664 6.704L598.807 6.18798L598.806 6.19104L599.664 6.704ZM604.632 2.06L605.095 2.94626L605.103 2.94207L604.632 2.06ZM617.772 1.484L618.154 0.559832L618.154 0.559831L617.772 1.484ZM622.308 4.724L622.986 5.4588L623.698 4.8023L623.065 4.07005L622.308 4.724ZM618.564 8.18L617.839 8.86851L618.518 9.58364L619.242 8.9148L618.564 8.18ZM607.764 6.344L608.238 7.22447L607.764 6.344ZM604.848 17.576L603.979 18.0703L604.848 17.576ZM607.728 20.456L607.234 21.3253L607.244 21.331L607.254 21.3365L607.728 20.456ZM616.512 20.384L616.984 21.2655L617.512 20.9827V20.384H616.512ZM616.512 14.004H621.84V12.004H616.512V14.004ZM620.84 13.004V23.228H622.84V13.004H620.84ZM621.238 22.4297C619.972 23.3849 618.494 24.1268 616.795 24.6479L617.381 26.5601C619.282 25.9772 620.973 25.1351 622.442 24.0263L621.238 22.4297ZM616.795 24.6479C615.087 25.1718 613.374 25.432 611.652 25.432V27.432C613.579 27.432 615.489 27.1402 617.381 26.5601L616.795 24.6479ZM611.652 25.432C609.181 25.432 606.992 24.9119 605.064 23.892L604.129 25.66C606.376 26.8481 608.891 27.432 611.652 27.432V25.432ZM605.071 23.8962C603.134 22.8497 601.623 21.4237 600.518 19.6114L598.81 20.6526C600.105 22.7763 601.882 24.4463 604.121 25.6558L605.071 23.8962ZM600.525 19.6236C599.447 17.7977 598.9 15.7318 598.9 13.4H596.9C596.9 16.0602 597.529 18.4823 598.803 20.6404L600.525 19.6236ZM598.9 13.4C598.9 11.0681 599.447 9.01627 600.523 7.21696L598.806 6.19104C597.529 8.32773 596.9 10.7399 596.9 13.4H598.9ZM600.521 7.22001C601.624 5.38921 603.142 3.96745 605.095 2.94622L604.169 1.17377C601.898 2.36055 600.105 4.03479 598.807 6.18799L600.521 7.22001ZM605.103 2.94207C607.056 1.89921 609.267 1.368 611.76 1.368V-0.632C608.973 -0.632 606.432 -0.0352135 604.161 1.17792L605.103 2.94207ZM611.76 1.368C613.854 1.368 615.726 1.72049 617.39 2.40816L618.154 0.559831C616.218 -0.240489 614.082 -0.632 611.76 -0.632V1.368ZM617.39 2.40816C619.052 3.09505 620.434 4.08486 621.552 5.37795L623.065 4.07005C621.734 2.53114 620.092 1.36095 618.154 0.559832L617.39 2.40816ZM621.63 3.9892L617.886 7.4452L619.242 8.9148L622.986 5.4588L621.63 3.9892ZM619.289 7.49149C617.306 5.40282 614.875 4.336 612.048 4.336V6.336C614.309 6.336 616.222 7.16518 617.839 8.86851L619.289 7.49149ZM612.048 4.336C610.297 4.336 608.702 4.70304 607.29 5.46353L608.238 7.22447C609.322 6.64095 610.583 6.336 612.048 6.336V4.336ZM607.29 5.46353C605.878 6.22395 604.768 7.30527 603.979 8.6937L605.717 9.6823C606.32 8.62273 607.154 7.80805 608.238 7.22447L607.29 5.46353ZM603.979 8.6937C603.187 10.0864 602.804 11.6648 602.804 13.4H604.804C604.804 11.9672 605.117 10.7376 605.717 9.6823L603.979 8.6937ZM602.804 13.4C602.804 15.1142 603.188 16.6798 603.979 18.0703L605.717 17.0817C605.116 16.0242 604.804 14.8058 604.804 13.4H602.804ZM603.979 18.0703C604.764 19.4508 605.853 20.5403 607.234 21.3253L608.222 19.5867C607.155 18.9797 606.324 18.1492 605.717 17.0817L603.979 18.0703ZM607.254 21.3365C608.664 22.0958 610.246 22.464 611.976 22.464V20.464C610.538 20.464 609.288 20.1602 608.202 19.5755L607.254 21.3365ZM611.976 22.464C613.804 22.464 615.481 22.071 616.984 21.2655L616.04 19.5025C614.855 20.137 613.508 20.464 611.976 20.464V22.464ZM617.512 20.384V13.004H615.512V20.384H617.512Z" fill="#333333"/>
</svg>
