<svg width="229" height="75" viewBox="0 0 229 75" fill="none" xmlns="http://www.w3.org/2000/svg">
<path d="M162.653 5.552H154.589V0.799998H176.549V5.552H168.485V26H162.653V5.552ZM202.799 0.799998V26H196.967V15.668H185.519V26H179.687V0.799998H185.519V10.736H196.967V0.799998H202.799ZM228.273 21.32V26H208.761V0.799998H227.805V5.48H214.557V10.952H226.257V15.488H214.557V21.32H228.273ZM81.0441 48.8L70.1361 74H64.3761L53.5041 48.8H59.8041L67.4721 66.8L75.2481 48.8H81.0441ZM83.1482 48.8H88.9802V74H83.1482V48.8ZM94.9607 48.8H106.409C109.145 48.8 111.557 49.328 113.645 50.384C115.757 51.416 117.389 52.88 118.541 54.776C119.717 56.672 120.305 58.88 120.305 61.4C120.305 63.92 119.717 66.128 118.541 68.024C117.389 69.92 115.757 71.396 113.645 72.452C111.557 73.484 109.145 74 106.409 74H94.9607V48.8ZM106.121 69.212C108.641 69.212 110.645 68.516 112.133 67.124C113.645 65.708 114.401 63.8 114.401 61.4C114.401 59 113.645 57.104 112.133 55.712C110.645 54.296 108.641 53.588 106.121 53.588H100.793V69.212H106.121ZM144.215 69.32V74H124.703V48.8H143.747V53.48H130.499V58.952H142.199V63.488H130.499V69.32H144.215ZM160.989 74.432C158.373 74.432 156.009 73.868 153.897 72.74C151.809 71.612 150.165 70.064 148.965 68.096C147.789 66.104 147.201 63.872 147.201 61.4C147.201 58.928 147.789 56.708 148.965 54.74C150.165 52.748 151.809 51.188 153.897 50.06C156.009 48.932 158.373 48.368 160.989 48.368C163.605 48.368 165.957 48.932 168.045 50.06C170.133 51.188 171.777 52.748 172.977 54.74C174.177 56.708 174.777 58.928 174.777 61.4C174.777 63.872 174.177 66.104 172.977 68.096C171.777 70.064 170.133 71.612 168.045 72.74C165.957 73.868 163.605 74.432 160.989 74.432ZM160.989 69.464C162.477 69.464 163.821 69.128 165.021 68.456C166.221 67.76 167.157 66.8 167.829 65.576C168.525 64.352 168.873 62.96 168.873 61.4C168.873 59.84 168.525 58.448 167.829 57.224C167.157 56 166.221 55.052 165.021 54.38C163.821 53.684 162.477 53.336 160.989 53.336C159.501 53.336 158.157 53.684 156.957 54.38C155.757 55.052 154.809 56 154.113 57.224C153.441 58.448 153.105 59.84 153.105 61.4C153.105 62.96 153.441 64.352 154.113 65.576C154.809 66.8 155.757 67.76 156.957 68.456C158.157 69.128 159.501 69.464 160.989 69.464Z" fill="white"/>
<path d="M41.1502 0.799998L42.1007 1.11093L42.5295 -0.200002H41.1502V0.799998ZM32.9062 26V27H33.6312L33.8567 26.3109L32.9062 26ZM26.6422 26L25.6912 26.309L25.9157 27H26.6422V26ZM21.0982 8.936L22.0493 8.627L21.1134 5.74639L20.1501 8.61797L21.0982 8.936ZM15.3742 26V27H16.0935L16.3223 26.318L15.3742 26ZM9.14622 26L8.19619 26.3122L8.4222 27H9.14622V26ZM0.866219 0.799998V-0.200002H-0.51495L-0.0838127 1.11215L0.866219 0.799998ZM6.91422 0.799998L7.86633 0.49424L7.64338 -0.200002H6.91422V0.799998ZM12.6022 18.512L11.6501 18.8178L12.5816 21.7184L13.5503 18.83L12.6022 18.512ZM18.5422 0.799998V-0.200002H17.8228L17.5941 0.482037L18.5422 0.799998ZM23.9422 0.799998L24.8939 0.492995L24.6704 -0.200002H23.9422V0.799998ZM29.7022 18.656L28.7505 18.963L29.6934 21.8859L30.6522 18.9682L29.7022 18.656ZM35.5702 0.799998V-0.200002H34.8462L34.6202 0.487796L35.5702 0.799998ZM40.1998 0.489071L31.9558 25.6891L33.8567 26.3109L42.1007 1.11093L40.1998 0.489071ZM32.9062 25H26.6422V27H32.9062V25ZM27.5933 25.691L22.0493 8.627L20.1472 9.24499L25.6912 26.309L27.5933 25.691ZM20.1501 8.61797L14.4261 25.682L16.3223 26.318L22.0463 9.25403L20.1501 8.61797ZM15.3742 25H9.14622V27H15.3742V25ZM10.0963 25.6878L1.81625 0.487845L-0.0838127 1.11215L8.19619 26.3122L10.0963 25.6878ZM0.866219 1.8H6.91422V-0.200002H0.866219V1.8ZM5.96211 1.10576L11.6501 18.8178L13.5543 18.2062L7.86633 0.49424L5.96211 1.10576ZM13.5503 18.83L19.4903 1.11796L17.5941 0.482037L11.6541 18.194L13.5503 18.83ZM18.5422 1.8H23.9422V-0.200002H18.5422V1.8ZM22.9905 1.107L28.7505 18.963L30.6539 18.349L24.8939 0.492995L22.9905 1.107ZM30.6522 18.9682L36.5202 1.1122L34.6202 0.487796L28.7522 18.3438L30.6522 18.9682ZM35.5702 1.8H41.1502V-0.200002H35.5702V1.8ZM60.1582 20.6L61.0824 20.218L60.8269 19.6H60.1582V20.6ZM48.4582 20.6V19.6H47.7895L47.534 20.218L48.4582 20.6ZM46.2262 26V27H46.8949L47.1504 26.382L46.2262 26ZM40.2502 26L39.3368 25.5929L38.7097 27H40.2502V26ZM51.4822 0.799998V-0.200002H50.8331L50.5688 0.392892L51.4822 0.799998ZM57.2422 0.799998L58.1551 0.391804L57.8905 -0.200002H57.2422V0.799998ZM68.5102 26V27H70.0528L69.4231 25.5918L68.5102 26ZM62.3902 26L61.466 26.382L61.7215 27H62.3902V26ZM58.3222 16.172V17.172H59.8188L59.2461 15.7893L58.3222 16.172ZM54.3262 6.524L55.2501 6.14134L54.3262 3.91069L53.4023 6.14134L54.3262 6.524ZM50.3302 16.172L49.4063 15.7893L48.8337 17.172H50.3302V16.172ZM60.1582 19.6H48.4582V21.6H60.1582V19.6ZM47.534 20.218L45.3021 25.618L47.1504 26.382L49.3824 20.982L47.534 20.218ZM46.2262 25H40.2502V27H46.2262V25ZM41.1636 26.4071L52.3956 1.2071L50.5688 0.392892L39.3368 25.5929L41.1636 26.4071ZM51.4822 1.8H57.2422V-0.200002H51.4822V1.8ZM56.3293 1.20819L67.5973 26.4082L69.4231 25.5918L58.1551 0.391804L56.3293 1.20819ZM68.5102 25H62.3902V27H68.5102V25ZM63.3144 25.618L61.0824 20.218L59.2341 20.982L61.466 26.382L63.3144 25.618ZM59.2461 15.7893L55.2501 6.14134L53.4023 6.90666L57.3983 16.5547L59.2461 15.7893ZM53.4023 6.14134L49.4063 15.7893L51.2541 16.5547L55.2501 6.90666L53.4023 6.14134ZM50.3302 17.172H58.3222V15.172H50.3302V17.172ZM75.0791 5.552H76.0791V4.552H75.0791V5.552ZM67.0151 5.552H66.0151V6.552H67.0151V5.552ZM67.0151 0.799998V-0.200002H66.0151V0.799998H67.0151ZM88.9751 0.799998H89.9751V-0.200002H88.9751V0.799998ZM88.9751 5.552V6.552H89.9751V5.552H88.9751ZM80.9111 5.552V4.552H79.9111V5.552H80.9111ZM80.9111 26V27H81.9111V26H80.9111ZM75.0791 26H74.0791V27H75.0791V26ZM75.0791 4.552H67.0151V6.552H75.0791V4.552ZM68.0151 5.552V0.799998H66.0151V5.552H68.0151ZM67.0151 1.8H88.9751V-0.200002H67.0151V1.8ZM87.9751 0.799998V5.552H89.9751V0.799998H87.9751ZM88.9751 4.552H80.9111V6.552H88.9751V4.552ZM79.9111 5.552V26H81.9111V5.552H79.9111ZM80.9111 25H75.0791V27H80.9111V25ZM76.0791 26V5.552H74.0791V26H76.0791ZM96.8374 24.776L96.3578 25.6536L96.37 25.66L96.8374 24.776ZM91.9414 20.132L91.0803 20.6404L91.0839 20.6465L91.0876 20.6526L91.9414 20.132ZM91.9414 6.704L91.0849 6.18798L91.083 6.19104L91.9414 6.704ZM96.8374 2.06L97.3091 2.94179L97.3127 2.93982L96.8374 2.06ZM109.761 1.52L109.36 2.43588L109.365 2.43786L109.761 1.52ZM114.225 4.832L114.904 5.5668L115.602 4.92206L114.994 4.19182L114.225 4.832ZM110.481 8.288L109.725 8.94258L110.401 9.723L111.16 9.0228L110.481 8.288ZM99.9694 6.38L100.451 7.25658L100.457 7.25298L100.464 7.24929L99.9694 6.38ZM97.0894 9.224L96.2202 8.7297L96.2165 8.73619L96.2129 8.74274L97.0894 9.224ZM97.0894 17.576L96.2129 18.0573L96.2165 18.0638L96.2202 18.0703L97.0894 17.576ZM99.9694 20.456L99.4751 21.3253L99.4816 21.329L99.4882 21.3326L99.9694 20.456ZM110.481 18.476L111.16 17.7412L110.397 17.0368L109.722 17.826L110.481 18.476ZM114.225 21.932L114.999 22.5659L115.597 21.8367L114.904 21.1972L114.225 21.932ZM109.761 25.28L109.365 24.3621L109.761 25.28ZM103.821 25.432C101.402 25.432 99.2365 24.9133 97.3049 23.892L96.37 25.66C98.6144 26.8467 101.105 27.432 103.821 27.432V25.432ZM97.317 23.8985C95.4036 22.8528 93.902 21.4265 92.7952 19.6114L91.0876 20.6526C92.3809 22.7735 94.1433 24.4432 96.3579 25.6535L97.317 23.8985ZM92.8026 19.6236C91.7246 17.7977 91.1774 15.7318 91.1774 13.4H89.1774C89.1774 16.0602 89.8062 18.4823 91.0803 20.6404L92.8026 19.6236ZM91.1774 13.4C91.1774 11.0681 91.7247 9.01627 92.7999 7.21696L91.083 6.19104C89.8062 8.32773 89.1774 10.7399 89.1774 13.4H91.1774ZM92.798 7.22001C93.9044 5.38346 95.4029 3.96136 97.3091 2.94178L96.3658 1.17822C94.144 2.36664 92.3785 4.04054 91.0849 6.18799L92.798 7.22001ZM97.3127 2.93982C99.2415 1.89782 101.416 1.368 103.857 1.368V-0.632C101.115 -0.632 98.6093 -0.0338221 96.3621 1.18018L97.3127 2.93982ZM103.857 1.368C105.923 1.368 107.751 1.73069 109.36 2.43587L110.163 0.604131C108.268 -0.226686 106.16 -0.632 103.857 -0.632V1.368ZM109.365 2.43786C111.002 3.14574 112.361 4.15651 113.457 5.47219L114.994 4.19182C113.69 2.62749 112.073 1.43026 110.158 0.602142L109.365 2.43786ZM113.547 4.0972L109.803 7.5532L111.16 9.0228L114.904 5.5668L113.547 4.0972ZM111.237 7.63342C109.351 5.45434 106.966 4.336 104.145 4.336V6.336C106.364 6.336 108.204 7.18566 109.725 8.94258L111.237 7.63342ZM104.145 4.336C102.431 4.336 100.866 4.72005 99.4751 5.51071L100.464 7.24929C101.521 6.64795 102.74 6.336 104.145 6.336V4.336ZM99.4882 5.50342C98.1005 6.26527 97.0068 7.34625 96.2202 8.7297L97.9587 9.7183C98.5641 8.65375 99.3904 7.83873 100.451 7.25658L99.4882 5.50342ZM96.2129 8.74274C95.4507 10.1309 95.0814 11.6918 95.0814 13.4H97.0814C97.0814 11.9882 97.3841 10.7651 97.966 9.70526L96.2129 8.74274ZM95.0814 13.4C95.0814 15.1082 95.4507 16.6691 96.2129 18.0573L97.966 17.0947C97.3841 16.0349 97.0814 14.8118 97.0814 13.4H95.0814ZM96.2202 18.0703C97.0051 19.4508 98.0947 20.5403 99.4751 21.3253L100.464 19.5867C99.3962 18.9797 98.5658 18.1492 97.9587 17.0817L96.2202 18.0703ZM99.4882 21.3326C100.876 22.0947 102.437 22.464 104.145 22.464V20.464C102.734 20.464 101.511 20.1613 100.451 19.5794L99.4882 21.3326ZM104.145 22.464C106.971 22.464 109.356 21.3299 111.241 19.126L109.722 17.826C108.199 19.6061 106.36 20.464 104.145 20.464V22.464ZM109.803 19.2108L113.547 22.6668L114.904 21.1972L111.16 17.7412L109.803 19.2108ZM113.452 21.2981C112.355 22.636 110.998 23.656 109.365 24.3621L110.158 26.1979C112.077 25.368 113.695 24.156 114.999 22.5659L113.452 21.2981ZM109.365 24.3621C107.729 25.0694 105.886 25.432 103.821 25.432V27.432C106.124 27.432 108.242 27.0266 110.158 26.1979L109.365 24.3621ZM141.276 0.799998H142.276V-0.200002H141.276V0.799998ZM141.276 26V27H142.276V26H141.276ZM135.444 26H134.444V27H135.444V26ZM135.444 15.668H136.444V14.668H135.444V15.668ZM123.996 15.668V14.668H122.996V15.668H123.996ZM123.996 26V27H124.996V26H123.996ZM118.164 26H117.164V27H118.164V26ZM118.164 0.799998V-0.200002H117.164V0.799998H118.164ZM123.996 0.799998H124.996V-0.200002H123.996V0.799998ZM123.996 10.736H122.996V11.736H123.996V10.736ZM135.444 10.736V11.736H136.444V10.736H135.444ZM135.444 0.799998V-0.200002H134.444V0.799998H135.444ZM140.276 0.799998V26H142.276V0.799998H140.276ZM141.276 25H135.444V27H141.276V25ZM136.444 26V15.668H134.444V26H136.444ZM135.444 14.668H123.996V16.668H135.444V14.668ZM122.996 15.668V26H124.996V15.668H122.996ZM123.996 25H118.164V27H123.996V25ZM119.164 26V0.799998H117.164V26H119.164ZM118.164 1.8H123.996V-0.200002H118.164V1.8ZM122.996 0.799998V10.736H124.996V0.799998H122.996ZM123.996 11.736H135.444V9.736H123.996V11.736ZM136.444 10.736V0.799998H134.444V10.736H136.444ZM135.444 1.8H141.276V-0.200002H135.444V1.8ZM162.653 5.552H163.653V4.552H162.653V5.552ZM154.589 5.552H153.589V6.552H154.589V5.552ZM154.589 0.799998V-0.200002H153.589V0.799998H154.589ZM176.549 0.799998H177.549V-0.200002H176.549V0.799998ZM176.549 5.552V6.552H177.549V5.552H176.549ZM168.485 5.552V4.552H167.485V5.552H168.485ZM168.485 26V27H169.485V26H168.485ZM162.653 26H161.653V27H162.653V26ZM162.653 4.552H154.589V6.552H162.653V4.552ZM155.589 5.552V0.799998H153.589V5.552H155.589ZM154.589 1.8H176.549V-0.200002H154.589V1.8ZM175.549 0.799998V5.552H177.549V0.799998H175.549ZM176.549 4.552H168.485V6.552H176.549V4.552ZM167.485 5.552V26H169.485V5.552H167.485ZM168.485 25H162.653V27H168.485V25ZM163.653 26V5.552H161.653V26H163.653ZM202.799 0.799998H203.799V-0.200002H202.799V0.799998ZM202.799 26V27H203.799V26H202.799ZM196.967 26H195.967V27H196.967V26ZM196.967 15.668H197.967V14.668H196.967V15.668ZM185.519 15.668V14.668H184.519V15.668H185.519ZM185.519 26V27H186.519V26H185.519ZM179.687 26H178.687V27H179.687V26ZM179.687 0.799998V-0.200002H178.687V0.799998H179.687ZM185.519 0.799998H186.519V-0.200002H185.519V0.799998ZM185.519 10.736H184.519V11.736H185.519V10.736ZM196.967 10.736V11.736H197.967V10.736H196.967ZM196.967 0.799998V-0.200002H195.967V0.799998H196.967ZM201.799 0.799998V26H203.799V0.799998H201.799ZM202.799 25H196.967V27H202.799V25ZM197.967 26V15.668H195.967V26H197.967ZM196.967 14.668H185.519V16.668H196.967V14.668ZM184.519 15.668V26H186.519V15.668H184.519ZM185.519 25H179.687V27H185.519V25ZM180.687 26V0.799998H178.687V26H180.687ZM179.687 1.8H185.519V-0.200002H179.687V1.8ZM184.519 0.799998V10.736H186.519V0.799998H184.519ZM185.519 11.736H196.967V9.736H185.519V11.736ZM197.967 10.736V0.799998H195.967V10.736H197.967ZM196.967 1.8H202.799V-0.200002H196.967V1.8ZM228.273 21.32H229.273V20.32H228.273V21.32ZM228.273 26V27H229.273V26H228.273ZM208.761 26H207.761V27H208.761V26ZM208.761 0.799998V-0.200002H207.761V0.799998H208.761ZM227.805 0.799998H228.805V-0.200002H227.805V0.799998ZM227.805 5.48V6.48H228.805V5.48H227.805ZM214.557 5.48V4.48H213.557V5.48H214.557ZM214.557 10.952H213.557V11.952H214.557V10.952ZM226.257 10.952H227.257V9.952H226.257V10.952ZM226.257 15.488V16.488H227.257V15.488H226.257ZM214.557 15.488V14.488H213.557V15.488H214.557ZM214.557 21.32H213.557V22.32H214.557V21.32ZM227.273 21.32V26H229.273V21.32H227.273ZM228.273 25H208.761V27H228.273V25ZM209.761 26V0.799998H207.761V26H209.761ZM208.761 1.8H227.805V-0.200002H208.761V1.8ZM226.805 0.799998V5.48H228.805V0.799998H226.805ZM227.805 4.48H214.557V6.48H227.805V4.48ZM213.557 5.48V10.952H215.557V5.48H213.557ZM214.557 11.952H226.257V9.952H214.557V11.952ZM225.257 10.952V15.488H227.257V10.952H225.257ZM226.257 14.488H214.557V16.488H226.257V14.488ZM213.557 15.488V21.32H215.557V15.488H213.557ZM214.557 22.32H228.273V20.32H214.557V22.32ZM81.0441 48.8L81.9618 49.1972L82.5667 47.8H81.0441V48.8ZM70.1361 74V75H70.7929L71.0538 74.3972L70.1361 74ZM64.3761 74L63.4579 74.3961L63.7185 75H64.3761V74ZM53.5041 48.8V47.8H51.9836L52.5859 49.1961L53.5041 48.8ZM59.8041 48.8L60.7241 48.4081L60.4651 47.8H59.8041V48.8ZM67.4721 66.8L66.5521 67.1919L67.4657 69.3365L68.3901 67.1966L67.4721 66.8ZM75.2481 48.8V47.8H74.5908L74.3301 48.4034L75.2481 48.8ZM80.1264 48.4028L69.2184 73.6028L71.0538 74.3972L81.9618 49.1972L80.1264 48.4028ZM70.1361 73H64.3761V75H70.1361V73ZM65.2943 73.6039L54.4223 48.4039L52.5859 49.1961L63.4579 74.3961L65.2943 73.6039ZM53.5041 49.8H59.8041V47.8H53.5041V49.8ZM58.8841 49.1919L66.5521 67.1919L68.3921 66.4081L60.7241 48.4081L58.8841 49.1919ZM68.3901 67.1966L76.1661 49.1966L74.3301 48.4034L66.5541 66.4034L68.3901 67.1966ZM75.2481 49.8H81.0441V47.8H75.2481V49.8ZM83.1482 48.8V47.8H82.1482V48.8H83.1482ZM88.9802 48.8H89.9802V47.8H88.9802V48.8ZM88.9802 74V75H89.9802V74H88.9802ZM83.1482 74H82.1482V75H83.1482V74ZM83.1482 49.8H88.9802V47.8H83.1482V49.8ZM87.9802 48.8V74H89.9802V48.8H87.9802ZM88.9802 73H83.1482V75H88.9802V73ZM84.1482 74V48.8H82.1482V74H84.1482ZM94.9607 48.8V47.8H93.9607V48.8H94.9607ZM113.645 50.384L113.193 51.2765L113.206 51.2825L113.645 50.384ZM118.541 54.776L117.686 55.2953L117.691 55.3031L118.541 54.776ZM118.541 68.024L117.691 67.4969L117.686 67.5047L118.541 68.024ZM113.645 72.452L114.088 73.3485L114.092 73.3464L113.645 72.452ZM94.9607 74H93.9607V75H94.9607V74ZM112.133 67.124L112.816 67.8543L112.816 67.8539L112.133 67.124ZM112.133 55.712L111.443 56.4364L111.449 56.4421L111.455 56.4477L112.133 55.712ZM100.793 53.588V52.588H99.7927V53.588H100.793ZM100.793 69.212H99.7927V70.212H100.793V69.212ZM94.9607 49.8H106.409V47.8H94.9607V49.8ZM106.409 49.8C109.014 49.8 111.267 50.3022 113.193 51.2764L114.096 49.4916C111.846 48.3538 109.275 47.8 106.409 47.8V49.8ZM113.206 51.2825C115.156 52.2357 116.639 53.5727 117.686 55.2953L119.395 54.2567C118.138 52.1872 116.357 50.5963 114.084 49.4855L113.206 51.2825ZM117.691 55.3031C118.756 57.021 119.305 59.0415 119.305 61.4H121.305C121.305 58.7185 120.677 56.323 119.39 54.2489L117.691 55.3031ZM119.305 61.4C119.305 63.7585 118.756 65.779 117.691 67.4969L119.39 68.5511C120.677 66.477 121.305 64.0815 121.305 61.4H119.305ZM117.686 67.5047C116.638 69.2293 115.152 70.5801 113.197 71.5576L114.092 73.3464C116.361 72.2119 118.139 70.6107 119.395 68.5433L117.686 67.5047ZM113.202 71.5555C111.273 72.5085 109.018 73 106.409 73V75C109.272 75 111.84 74.4595 114.088 73.3485L113.202 71.5555ZM106.409 73H94.9607V75H106.409V73ZM95.9607 74V48.8H93.9607V74H95.9607ZM106.121 70.212C108.831 70.212 111.101 69.4583 112.816 67.8543L111.449 66.3937C110.188 67.5737 108.45 68.212 106.121 68.212V70.212ZM112.816 67.8539C114.563 66.2184 115.401 64.0286 115.401 61.4H113.401C113.401 63.5714 112.727 65.1976 111.449 66.3941L112.816 67.8539ZM115.401 61.4C115.401 58.7718 114.563 56.5898 112.81 54.9763L111.455 56.4477C112.727 57.6182 113.401 59.2282 113.401 61.4H115.401ZM112.822 54.9876C111.108 53.3564 108.836 52.588 106.121 52.588V54.588C108.445 54.588 110.181 55.2356 111.443 56.4364L112.822 54.9876ZM106.121 52.588H100.793V54.588H106.121V52.588ZM99.7927 53.588V69.212H101.793V53.588H99.7927ZM100.793 70.212H106.121V68.212H100.793V70.212ZM144.215 69.32H145.215V68.32H144.215V69.32ZM144.215 74V75H145.215V74H144.215ZM124.703 74H123.703V75H124.703V74ZM124.703 48.8V47.8H123.703V48.8H124.703ZM143.747 48.8H144.747V47.8H143.747V48.8ZM143.747 53.48V54.48H144.747V53.48H143.747ZM130.499 53.48V52.48H129.499V53.48H130.499ZM130.499 58.952H129.499V59.952H130.499V58.952ZM142.199 58.952H143.199V57.952H142.199V58.952ZM142.199 63.488V64.488H143.199V63.488H142.199ZM130.499 63.488V62.488H129.499V63.488H130.499ZM130.499 69.32H129.499V70.32H130.499V69.32ZM143.215 69.32V74H145.215V69.32H143.215ZM144.215 73H124.703V75H144.215V73ZM125.703 74V48.8H123.703V74H125.703ZM124.703 49.8H143.747V47.8H124.703V49.8ZM142.747 48.8V53.48H144.747V48.8H142.747ZM143.747 52.48H130.499V54.48H143.747V52.48ZM129.499 53.48V58.952H131.499V53.48H129.499ZM130.499 59.952H142.199V57.952H130.499V59.952ZM141.199 58.952V63.488H143.199V58.952H141.199ZM142.199 62.488H130.499V64.488H142.199V62.488ZM129.499 63.488V69.32H131.499V63.488H129.499ZM130.499 70.32H144.215V68.32H130.499V70.32ZM153.897 72.74L153.422 73.6198L153.426 73.6221L153.897 72.74ZM148.965 68.096L148.104 68.6044L148.107 68.6105L148.111 68.6166L148.965 68.096ZM148.965 54.74L148.108 54.224L148.106 54.227L148.965 54.74ZM153.897 50.06L153.426 49.1779L153.422 49.1802L153.897 50.06ZM172.977 54.74L172.12 55.256L172.123 55.2606L172.977 54.74ZM172.977 68.096L173.831 68.6166L173.833 68.612L172.977 68.096ZM168.045 72.74L168.52 73.6198L168.045 72.74ZM165.021 68.456L165.509 69.3285L165.516 69.3248L165.523 69.321L165.021 68.456ZM167.829 65.576L166.96 65.0817L166.956 65.0882L166.952 65.0947L167.829 65.576ZM167.829 57.224L166.952 57.7053L166.956 57.7118L166.96 57.7183L167.829 57.224ZM165.021 54.38L164.519 55.245L164.526 55.2488L164.532 55.2525L165.021 54.38ZM156.957 54.38L157.445 55.2525L157.452 55.2488L157.459 55.245L156.957 54.38ZM154.113 57.224L153.244 56.7297L153.24 56.7362L153.236 56.7427L154.113 57.224ZM154.113 65.576L153.236 66.0573L153.24 66.0638L153.244 66.0703L154.113 65.576ZM156.957 68.456L156.455 69.321L156.462 69.3248L156.468 69.3285L156.957 68.456ZM160.989 73.432C158.522 73.432 156.322 72.9015 154.368 71.8579L153.426 73.6221C155.696 74.8345 158.224 75.432 160.989 75.432V73.432ZM154.372 71.8602C152.435 70.8137 150.924 69.3877 149.819 67.5754L148.111 68.6166C149.406 70.7403 151.183 72.4103 153.422 73.6198L154.372 71.8602ZM149.826 67.5876C148.747 65.7602 148.201 63.7059 148.201 61.4H146.201C146.201 64.0381 146.831 66.4478 148.104 68.6044L149.826 67.5876ZM148.201 61.4C148.201 59.094 148.747 57.0538 149.823 55.253L148.106 54.227C146.831 56.3622 146.201 58.762 146.201 61.4H148.201ZM149.821 55.256C150.927 53.4205 152.438 51.9847 154.372 50.9398L153.422 49.1802C151.18 50.3913 149.403 52.0755 148.108 54.224L149.821 55.256ZM154.368 50.9421C156.322 49.8985 158.522 49.368 160.989 49.368V47.368C158.224 47.368 155.696 47.9655 153.426 49.1779L154.368 50.9421ZM160.989 49.368C163.456 49.368 165.642 49.8985 167.57 50.9398L168.52 49.1802C166.272 47.9655 163.753 47.368 160.989 47.368V49.368ZM167.57 50.9398C169.504 51.9847 171.015 53.4205 172.12 55.256L173.833 54.224C172.539 52.0755 170.762 50.3913 168.52 49.1802L167.57 50.9398ZM172.123 55.2606C173.221 57.0604 173.777 59.0978 173.777 61.4H175.777C175.777 58.7582 175.133 56.3556 173.831 54.2194L172.123 55.2606ZM173.777 61.4C173.777 63.7021 173.22 65.7537 172.12 67.58L173.833 68.612C175.133 66.4543 175.777 64.0419 175.777 61.4H173.777ZM172.123 67.5754C171.018 69.3877 169.507 70.8137 167.57 71.8602L168.52 73.6198C170.759 72.4103 172.536 70.7403 173.831 68.6166L172.123 67.5754ZM167.57 71.8602C165.642 72.9015 163.456 73.432 160.989 73.432V75.432C163.753 75.432 166.272 74.8345 168.52 73.6198L167.57 71.8602ZM160.989 70.464C162.634 70.464 164.148 70.0909 165.509 69.3285L164.532 67.5835C163.494 68.1651 162.32 68.464 160.989 68.464V70.464ZM165.523 69.321C166.881 68.533 167.946 67.4398 168.705 66.0573L166.952 65.0947C166.367 66.1602 165.561 66.987 164.519 67.591L165.523 69.321ZM168.698 66.0703C169.489 64.6798 169.873 63.1142 169.873 61.4H167.873C167.873 62.8058 167.561 64.0242 166.96 65.0817L168.698 66.0703ZM169.873 61.4C169.873 59.6858 169.489 58.1202 168.698 56.7297L166.96 57.7183C167.561 58.7758 167.873 59.9942 167.873 61.4H169.873ZM168.705 56.7427C167.945 55.3572 166.876 54.2725 165.509 53.5075L164.532 55.2525C165.566 55.8315 166.369 56.6428 166.952 57.7053L168.705 56.7427ZM165.523 53.515C164.159 52.7241 162.64 52.336 160.989 52.336V54.336C162.314 54.336 163.483 54.6439 164.519 55.245L165.523 53.515ZM160.989 52.336C159.338 52.336 157.819 52.7241 156.455 53.515L157.459 55.245C158.495 54.6439 159.664 54.336 160.989 54.336V52.336ZM156.468 53.5075C155.105 54.2707 154.027 55.3513 153.244 56.7297L154.982 57.7183C155.59 56.6487 156.408 55.8333 157.445 55.2525L156.468 53.5075ZM153.236 56.7427C152.474 58.1309 152.105 59.6918 152.105 61.4H154.105C154.105 59.9882 154.408 58.7651 154.989 57.7053L153.236 56.7427ZM152.105 61.4C152.105 63.1082 152.474 64.6691 153.236 66.0573L154.989 65.0947C154.408 64.0349 154.105 62.8118 154.105 61.4H152.105ZM153.244 66.0703C154.026 67.4458 155.1 68.5348 156.455 69.321L157.459 67.591C156.414 66.9852 155.592 66.1542 154.982 65.0817L153.244 66.0703ZM156.468 69.3285C157.83 70.0909 159.344 70.464 160.989 70.464V68.464C159.658 68.464 158.484 68.1651 157.445 67.5835L156.468 69.3285Z" fill="white"/>
</svg>
