<svg width="442" height="33" viewBox="0 0 442 33" fill="none" xmlns="http://www.w3.org/2000/svg">
<path d="M198.708 7.008H188.852V1.2H215.692V7.008H205.836V32H198.708V7.008ZM247.775 1.2V32H240.647V19.372H226.655V32H219.527V1.2H226.655V13.344H240.647V1.2H247.775ZM278.91 26.28V32H255.062V1.2H278.338V6.92H262.146V13.608H276.446V19.152H262.146V26.28H278.91ZM326.655 1.2L313.323 32H306.283L292.995 1.2H300.695L310.067 23.2L319.571 1.2H326.655ZM329.226 1.2H336.354V32H329.226V1.2ZM343.664 1.2H357.656C361 1.2 363.948 1.84533 366.5 3.136C369.081 4.39733 371.076 6.18667 372.484 8.504C373.921 10.8213 374.64 13.52 374.64 16.6C374.64 19.68 373.921 22.3787 372.484 24.696C371.076 27.0133 369.081 28.8173 366.5 30.108C363.948 31.3693 361 32 357.656 32H343.664V1.2ZM357.304 26.148C360.384 26.148 362.833 25.2973 364.652 23.596C366.5 21.8653 367.424 19.5333 367.424 16.6C367.424 13.6667 366.5 11.3493 364.652 9.648C362.833 7.91733 360.384 7.052 357.304 7.052H350.792V26.148H357.304ZM403.863 26.28V32H380.015V1.2H403.291V6.92H387.099V13.608H401.399V19.152H387.099V26.28H403.863ZM424.365 32.528C421.168 32.528 418.278 31.8387 415.697 30.46C413.145 29.0813 411.136 27.1893 409.669 24.784C408.232 22.3493 407.513 19.6213 407.513 16.6C407.513 13.5787 408.232 10.8653 409.669 8.46C411.136 6.02533 413.145 4.11867 415.697 2.74C418.278 1.36133 421.168 0.671999 424.365 0.671999C427.562 0.671999 430.437 1.36133 432.989 2.74C435.541 4.11867 437.55 6.02533 439.017 8.46C440.484 10.8653 441.217 13.5787 441.217 16.6C441.217 19.6213 440.484 22.3493 439.017 24.784C437.55 27.1893 435.541 29.0813 432.989 30.46C430.437 31.8387 427.562 32.528 424.365 32.528ZM424.365 26.456C426.184 26.456 427.826 26.0453 429.293 25.224C430.76 24.3733 431.904 23.2 432.725 21.704C433.576 20.208 434.001 18.5067 434.001 16.6C434.001 14.6933 433.576 12.992 432.725 11.496C431.904 10 430.76 8.84133 429.293 8.02C427.826 7.16933 426.184 6.744 424.365 6.744C422.546 6.744 420.904 7.16933 419.437 8.02C417.97 8.84133 416.812 10 415.961 11.496C415.14 12.992 414.729 14.6933 414.729 16.6C414.729 18.5067 415.14 20.208 415.961 21.704C416.812 23.2 417.97 24.3733 419.437 25.224C420.904 26.0453 422.546 26.456 424.365 26.456Z" fill="white"/>
<path d="M50.204 1.2L51.1544 1.51093L51.5833 0.199998H50.204V1.2ZM40.128 32V33H40.853L41.0784 32.3109L40.128 32ZM32.472 32L31.5209 32.309L31.7454 33H32.472V32ZM25.696 11.144L26.6471 10.835L25.7112 7.95439L24.7479 10.826L25.696 11.144ZM18.7 32V33H19.4193L19.6481 32.318L18.7 32ZM11.088 32L10.138 32.3122L10.364 33H11.088V32ZM0.968 1.2V0.199998H-0.413168L0.0179683 1.51215L0.968 1.2ZM8.36 1.2L9.31211 0.894239L9.08916 0.199998H8.36V1.2ZM15.312 22.848L14.3599 23.1538L15.2914 26.0544L16.2601 23.166L15.312 22.848ZM22.572 1.2V0.199998H21.8526L21.6239 0.882036L22.572 1.2ZM29.172 1.2L30.1237 0.892995L29.9002 0.199998H29.172V1.2ZM36.212 23.024L35.2603 23.331L36.2032 26.2539L37.162 23.3362L36.212 23.024ZM43.384 1.2V0.199998H42.66L42.434 0.887795L43.384 1.2ZM49.2536 0.889071L39.1776 31.6891L41.0784 32.3109L51.1544 1.51093L49.2536 0.889071ZM40.128 31H32.472V33H40.128V31ZM33.4231 31.691L26.6471 10.835L24.7449 11.453L31.5209 32.309L33.4231 31.691ZM24.7479 10.826L17.7519 31.682L19.6481 32.318L26.6441 11.462L24.7479 10.826ZM18.7 31H11.088V33H18.7V31ZM12.038 31.6878L1.91803 0.887845L0.0179683 1.51215L10.138 32.3122L12.038 31.6878ZM0.968 2.2H8.36V0.199998H0.968V2.2ZM7.40789 1.50576L14.3599 23.1538L16.2641 22.5422L9.31211 0.894239L7.40789 1.50576ZM16.2601 23.166L23.5201 1.51796L21.6239 0.882036L14.3639 22.53L16.2601 23.166ZM22.572 2.2H29.172V0.199998H22.572V2.2ZM28.2203 1.507L35.2603 23.331L37.1637 22.717L30.1237 0.892995L28.2203 1.507ZM37.162 23.3362L44.334 1.5122L42.434 0.887795L35.262 22.7118L37.162 23.3362ZM43.384 2.2H50.204V0.199998H43.384V2.2ZM73.436 25.4L74.3602 25.018L74.1047 24.4H73.436V25.4ZM59.136 25.4V24.4H58.4673L58.2118 25.018L59.136 25.4ZM56.408 32V33H57.0767L57.3322 32.382L56.408 32ZM49.104 32L48.1906 31.5929L47.5635 33H49.104V32ZM62.832 1.2V0.199998H62.1829L61.9186 0.792892L62.832 1.2ZM69.872 1.2L70.7849 0.791803L70.5203 0.199998H69.872V1.2ZM83.644 32V33H85.1866L84.5569 31.5918L83.644 32ZM76.164 32L75.2398 32.382L75.4953 33H76.164V32ZM71.192 19.988V20.988H72.6886L72.1159 19.6053L71.192 19.988ZM66.308 8.196L67.2319 7.81334L66.308 5.58269L65.3841 7.81334L66.308 8.196ZM61.424 19.988L60.5001 19.6053L59.9274 20.988H61.424V19.988ZM73.436 24.4H59.136V26.4H73.436V24.4ZM58.2118 25.018L55.4838 31.618L57.3322 32.382L60.0602 25.782L58.2118 25.018ZM56.408 31H49.104V33H56.408V31ZM50.0174 32.4071L63.7454 1.6071L61.9186 0.792892L48.1906 31.5929L50.0174 32.4071ZM62.832 2.2H69.872V0.199998H62.832V2.2ZM68.9591 1.60819L82.7311 32.4082L84.5569 31.5918L70.7849 0.791803L68.9591 1.60819ZM83.644 31H76.164V33H83.644V31ZM77.0882 31.618L74.3602 25.018L72.5118 25.782L75.2398 32.382L77.0882 31.618ZM72.1159 19.6053L67.2319 7.81334L65.3841 8.57866L70.2681 20.3707L72.1159 19.6053ZM65.3841 7.81334L60.5001 19.6053L62.3479 20.3707L67.2319 8.57866L65.3841 7.81334ZM61.424 20.988H71.192V18.988H61.424V20.988ZM91.6726 7.008H92.6726V6.008H91.6726V7.008ZM81.8166 7.008H80.8166V8.008H81.8166V7.008ZM81.8166 1.2V0.199998H80.8166V1.2H81.8166ZM108.657 1.2H109.657V0.199998H108.657V1.2ZM108.657 7.008V8.008H109.657V7.008H108.657ZM98.8006 7.008V6.008H97.8006V7.008H98.8006ZM98.8006 32V33H99.8006V32H98.8006ZM91.6726 32H90.6726V33H91.6726V32ZM91.6726 6.008H81.8166V8.008H91.6726V6.008ZM82.8166 7.008V1.2H80.8166V7.008H82.8166ZM81.8166 2.2H108.657V0.199998H81.8166V2.2ZM107.657 1.2V7.008H109.657V1.2H107.657ZM108.657 6.008H98.8006V8.008H108.657V6.008ZM97.8006 7.008V32H99.8006V7.008H97.8006ZM98.8006 31H91.6726V33H98.8006V31ZM92.6726 32V7.008H90.6726V32H92.6726ZM118.266 30.504L117.787 31.3816L117.799 31.388L118.266 30.504ZM112.282 24.828L111.421 25.3364L111.425 25.3425L111.428 25.3486L112.282 24.828ZM112.282 8.416L111.426 7.89998L111.424 7.90304L112.282 8.416ZM118.266 2.74L118.738 3.62179L118.741 3.61982L118.266 2.74ZM134.062 2.08L133.661 2.99588L133.665 2.99786L134.062 2.08ZM139.518 6.128L140.196 6.8628L140.895 6.21806L140.286 5.48782L139.518 6.128ZM134.942 10.352L134.186 11.0066L134.862 11.787L135.62 11.0868L134.942 10.352ZM122.094 8.02L122.575 8.89658L122.582 8.89298L122.588 8.88929L122.094 8.02ZM118.574 11.496L117.705 11.0017L117.701 11.0082L117.698 11.0147L118.574 11.496ZM118.574 21.704L117.698 22.1853L117.701 22.1918L117.705 22.1983L118.574 21.704ZM122.094 25.224L121.6 26.0933L121.606 26.097L121.613 26.1006L122.094 25.224ZM134.942 22.804L135.62 22.0692L134.857 21.3648L134.182 22.154L134.942 22.804ZM139.518 27.028L140.292 27.6619L140.889 26.9327L140.196 26.2932L139.518 27.028ZM134.062 31.12L133.665 30.2021L134.062 31.12ZM126.802 31.528C123.812 31.528 121.129 30.8866 118.734 29.62L117.799 31.388C120.507 32.82 123.515 33.528 126.802 33.528V31.528ZM118.746 29.6265C116.374 28.3301 114.509 26.5598 113.136 24.3074L111.428 25.3486C112.988 27.9068 115.113 29.9205 117.787 31.3815L118.746 29.6265ZM113.143 24.3196C111.804 22.0511 111.126 19.4865 111.126 16.6H109.126C109.126 19.8149 109.886 22.7356 111.421 25.3364L113.143 24.3196ZM111.126 16.6C111.126 13.7134 111.804 11.1656 113.141 8.92896L111.424 7.90304C109.886 10.4771 109.126 13.3853 109.126 16.6H111.126ZM113.139 8.93201C114.512 6.65279 116.373 4.88669 118.738 3.62178L117.795 1.85821C115.114 3.29197 112.986 5.30988 111.426 7.89999L113.139 8.93201ZM118.741 3.61982C121.134 2.32715 123.828 1.672 126.846 1.672V-0.328001C123.528 -0.328001 120.502 0.395512 117.791 1.86018L118.741 3.61982ZM126.846 1.672C129.397 1.672 131.663 2.12002 133.661 2.99587L134.464 1.16413C132.179 0.162647 129.634 -0.328001 126.846 -0.328001V1.672ZM133.665 2.99786C135.697 3.87641 137.387 5.13251 138.75 6.76818L140.286 5.48782C138.716 3.60349 136.769 2.16092 134.459 1.16214L133.665 2.99786ZM138.84 5.3932L134.264 9.6172L135.62 11.0868L140.196 6.8628L138.84 5.3932ZM135.698 9.69742C133.433 7.081 130.579 5.744 127.198 5.744V7.744C129.977 7.744 132.286 8.81233 134.186 11.0066L135.698 9.69742ZM127.198 5.744C125.137 5.744 123.262 6.20538 121.6 7.15071L122.588 8.88929C123.918 8.13328 125.446 7.744 127.198 7.744V5.744ZM121.613 7.14342C119.953 8.05461 118.646 9.34625 117.705 11.0017L119.443 11.9903C120.203 10.6538 121.243 9.62806 122.575 8.89658L121.613 7.14342ZM117.698 11.0147C116.786 12.6749 116.342 14.5452 116.342 16.6H118.342C118.342 14.8415 118.72 13.3091 119.451 11.9773L117.698 11.0147ZM116.342 16.6C116.342 18.6548 116.786 20.5251 117.698 22.1853L119.451 21.2227C118.72 19.8909 118.342 18.3585 118.342 16.6H116.342ZM117.705 22.1983C118.645 23.8508 119.947 25.1537 121.6 26.0933L122.588 24.3547C121.249 23.593 120.205 22.5492 119.443 21.2097L117.705 22.1983ZM121.613 26.1006C123.273 27.012 125.143 27.456 127.198 27.456V25.456C125.44 25.456 123.907 25.0786 122.575 24.3474L121.613 26.1006ZM127.198 27.456C130.584 27.456 133.438 26.1006 135.702 23.454L134.182 22.154C132.281 24.3768 129.973 25.456 127.198 25.456V27.456ZM134.264 23.5388L138.84 27.7628L140.196 26.2932L135.62 22.0692L134.264 23.5388ZM138.745 26.3941C137.381 28.0573 135.693 29.3253 133.665 30.2021L134.459 32.0379C136.773 31.0374 138.722 29.5774 140.292 27.6619L138.745 26.3941ZM133.665 30.2021C131.635 31.0801 129.353 31.528 126.802 31.528V33.528C129.59 33.528 132.148 33.0373 134.459 32.0379L133.665 30.2021ZM172.58 1.2H173.58V0.199998H172.58V1.2ZM172.58 32V33H173.58V32H172.58ZM165.452 32H164.452V33H165.452V32ZM165.452 19.372H166.452V18.372H165.452V19.372ZM151.46 19.372V18.372H150.46V19.372H151.46ZM151.46 32V33H152.46V32H151.46ZM144.332 32H143.332V33H144.332V32ZM144.332 1.2V0.199998H143.332V1.2H144.332ZM151.46 1.2H152.46V0.199998H151.46V1.2ZM151.46 13.344H150.46V14.344H151.46V13.344ZM165.452 13.344V14.344H166.452V13.344H165.452ZM165.452 1.2V0.199998H164.452V1.2H165.452ZM171.58 1.2V32H173.58V1.2H171.58ZM172.58 31H165.452V33H172.58V31ZM166.452 32V19.372H164.452V32H166.452ZM165.452 18.372H151.46V20.372H165.452V18.372ZM150.46 19.372V32H152.46V19.372H150.46ZM151.46 31H144.332V33H151.46V31ZM145.332 32V1.2H143.332V32H145.332ZM144.332 2.2H151.46V0.199998H144.332V2.2ZM150.46 1.2V13.344H152.46V1.2H150.46ZM151.46 14.344H165.452V12.344H151.46V14.344ZM166.452 13.344V1.2H164.452V13.344H166.452ZM165.452 2.2H172.58V0.199998H165.452V2.2ZM198.708 7.008H199.708V6.008H198.708V7.008ZM188.852 7.008H187.852V8.008H188.852V7.008ZM188.852 1.2V0.199998H187.852V1.2H188.852ZM215.692 1.2H216.692V0.199998H215.692V1.2ZM215.692 7.008V8.008H216.692V7.008H215.692ZM205.836 7.008V6.008H204.836V7.008H205.836ZM205.836 32V33H206.836V32H205.836ZM198.708 32H197.708V33H198.708V32ZM198.708 6.008H188.852V8.008H198.708V6.008ZM189.852 7.008V1.2H187.852V7.008H189.852ZM188.852 2.2H215.692V0.199998H188.852V2.2ZM214.692 1.2V7.008H216.692V1.2H214.692ZM215.692 6.008H205.836V8.008H215.692V6.008ZM204.836 7.008V32H206.836V7.008H204.836ZM205.836 31H198.708V33H205.836V31ZM199.708 32V7.008H197.708V32H199.708ZM247.775 1.2H248.775V0.199998H247.775V1.2ZM247.775 32V33H248.775V32H247.775ZM240.647 32H239.647V33H240.647V32ZM240.647 19.372H241.647V18.372H240.647V19.372ZM226.655 19.372V18.372H225.655V19.372H226.655ZM226.655 32V33H227.655V32H226.655ZM219.527 32H218.527V33H219.527V32ZM219.527 1.2V0.199998H218.527V1.2H219.527ZM226.655 1.2H227.655V0.199998H226.655V1.2ZM226.655 13.344H225.655V14.344H226.655V13.344ZM240.647 13.344V14.344H241.647V13.344H240.647ZM240.647 1.2V0.199998H239.647V1.2H240.647ZM246.775 1.2V32H248.775V1.2H246.775ZM247.775 31H240.647V33H247.775V31ZM241.647 32V19.372H239.647V32H241.647ZM240.647 18.372H226.655V20.372H240.647V18.372ZM225.655 19.372V32H227.655V19.372H225.655ZM226.655 31H219.527V33H226.655V31ZM220.527 32V1.2H218.527V32H220.527ZM219.527 2.2H226.655V0.199998H219.527V2.2ZM225.655 1.2V13.344H227.655V1.2H225.655ZM226.655 14.344H240.647V12.344H226.655V14.344ZM241.647 13.344V1.2H239.647V13.344H241.647ZM240.647 2.2H247.775V0.199998H240.647V2.2ZM278.91 26.28H279.91V25.28H278.91V26.28ZM278.91 32V33H279.91V32H278.91ZM255.062 32H254.062V33H255.062V32ZM255.062 1.2V0.199998H254.062V1.2H255.062ZM278.338 1.2H279.338V0.199998H278.338V1.2ZM278.338 6.92V7.92H279.338V6.92H278.338ZM262.146 6.92V5.92H261.146V6.92H262.146ZM262.146 13.608H261.146V14.608H262.146V13.608ZM276.446 13.608H277.446V12.608H276.446V13.608ZM276.446 19.152V20.152H277.446V19.152H276.446ZM262.146 19.152V18.152H261.146V19.152H262.146ZM262.146 26.28H261.146V27.28H262.146V26.28ZM277.91 26.28V32H279.91V26.28H277.91ZM278.91 31H255.062V33H278.91V31ZM256.062 32V1.2H254.062V32H256.062ZM255.062 2.2H278.338V0.199998H255.062V2.2ZM277.338 1.2V6.92H279.338V1.2H277.338ZM278.338 5.92H262.146V7.92H278.338V5.92ZM261.146 6.92V13.608H263.146V6.92H261.146ZM262.146 14.608H276.446V12.608H262.146V14.608ZM275.446 13.608V19.152H277.446V13.608H275.446ZM276.446 18.152H262.146V20.152H276.446V18.152ZM261.146 19.152V26.28H263.146V19.152H261.146ZM262.146 27.28H278.91V25.28H262.146V27.28ZM326.655 1.2L327.572 1.59724L328.177 0.199998H326.655V1.2ZM313.323 32V33H313.979L314.24 32.3972L313.323 32ZM306.283 32L305.364 32.3961L305.625 33H306.283V32ZM292.995 1.2V0.199998H291.474L292.076 1.59613L292.995 1.2ZM300.695 1.2L301.615 0.808078L301.356 0.199998H300.695V1.2ZM310.067 23.2L309.147 23.5919L310.06 25.7365L310.985 23.5966L310.067 23.2ZM319.571 1.2V0.199998H318.913L318.653 0.803421L319.571 1.2ZM325.737 0.802758L312.405 31.6028L314.24 32.3972L327.572 1.59724L325.737 0.802758ZM313.323 31H306.283V33H313.323V31ZM307.201 31.6039L293.913 0.803864L292.076 1.59613L305.364 32.3961L307.201 31.6039ZM292.995 2.2H300.695V0.199998H292.995V2.2ZM299.775 1.59192L309.147 23.5919L310.987 22.8081L301.615 0.808078L299.775 1.59192ZM310.985 23.5966L320.489 1.59657L318.653 0.803421L309.149 22.8034L310.985 23.5966ZM319.571 2.2H326.655V0.199998H319.571V2.2ZM329.226 1.2V0.199998H328.226V1.2H329.226ZM336.354 1.2H337.354V0.199998H336.354V1.2ZM336.354 32V33H337.354V32H336.354ZM329.226 32H328.226V33H329.226V32ZM329.226 2.2H336.354V0.199998H329.226V2.2ZM335.354 1.2V32H337.354V1.2H335.354ZM336.354 31H329.226V33H336.354V31ZM330.226 32V1.2H328.226V32H330.226ZM343.664 1.2V0.199998H342.664V1.2H343.664ZM366.5 3.136L366.048 4.02845L366.061 4.03447L366.5 3.136ZM372.484 8.504L371.629 9.02328L371.634 9.03109L372.484 8.504ZM372.484 24.696L371.634 24.1689L371.629 24.1767L372.484 24.696ZM366.5 30.108L366.943 31.0045L366.947 31.0024L366.5 30.108ZM343.664 32H342.664V33H343.664V32ZM364.652 23.596L365.335 24.3263L365.335 24.3259L364.652 23.596ZM364.652 9.648L363.962 10.3724L363.968 10.3781L363.974 10.3837L364.652 9.648ZM350.792 7.052V6.052H349.792V7.052H350.792ZM350.792 26.148H349.792V27.148H350.792V26.148ZM343.664 2.2H357.656V0.199998H343.664V2.2ZM357.656 2.2C360.869 2.2 363.658 2.81952 366.048 4.02837L366.951 2.24363C364.237 0.871139 361.13 0.199998 357.656 0.199998V2.2ZM366.061 4.03447C368.481 5.21702 370.327 6.87942 371.629 9.02326L373.338 7.98474C371.825 5.49392 369.681 3.57764 366.939 2.23752L366.061 4.03447ZM371.634 9.03109C372.961 11.1704 373.64 13.6815 373.64 16.6H375.64C375.64 13.3585 374.881 10.4723 373.334 7.9769L371.634 9.03109ZM373.64 16.6C373.64 19.5185 372.961 22.0296 371.634 24.1689L373.334 25.2231C374.881 22.7277 375.64 19.8415 375.64 16.6H373.64ZM371.629 24.1767C370.325 26.3227 368.477 28.0015 366.053 29.2136L366.947 31.0024C369.685 29.6332 371.826 27.704 373.338 25.2153L371.629 24.1767ZM366.057 29.2115C363.665 30.3938 360.873 31 357.656 31V33C361.127 33 364.231 32.3448 366.943 31.0045L366.057 29.2115ZM357.656 31H343.664V33H357.656V31ZM344.664 32V1.2H342.664V32H344.664ZM357.304 27.148C360.574 27.148 363.29 26.2396 365.335 24.3263L363.969 22.8657C362.377 24.355 360.193 25.148 357.304 25.148V27.148ZM365.335 24.3259C367.418 22.3757 368.424 19.762 368.424 16.6H366.424C366.424 19.3047 365.582 21.355 363.968 22.8661L365.335 24.3259ZM368.424 16.6C368.424 13.4384 367.418 10.8351 365.329 8.9123L363.974 10.3837C365.582 11.8635 366.424 13.8949 366.424 16.6H368.424ZM365.341 8.92358C363.296 6.97777 360.579 6.052 357.304 6.052V8.052C360.188 8.052 362.37 8.85689 363.962 10.3724L365.341 8.92358ZM357.304 6.052H350.792V8.052H357.304V6.052ZM349.792 7.052V26.148H351.792V7.052H349.792ZM350.792 27.148H357.304V25.148H350.792V27.148ZM403.863 26.28H404.863V25.28H403.863V26.28ZM403.863 32V33H404.863V32H403.863ZM380.015 32H379.015V33H380.015V32ZM380.015 1.2V0.199998H379.015V1.2H380.015ZM403.291 1.2H404.291V0.199998H403.291V1.2ZM403.291 6.92V7.92H404.291V6.92H403.291ZM387.099 6.92V5.92H386.099V6.92H387.099ZM387.099 13.608H386.099V14.608H387.099V13.608ZM401.399 13.608H402.399V12.608H401.399V13.608ZM401.399 19.152V20.152H402.399V19.152H401.399ZM387.099 19.152V18.152H386.099V19.152H387.099ZM387.099 26.28H386.099V27.28H387.099V26.28ZM402.863 26.28V32H404.863V26.28H402.863ZM403.863 31H380.015V33H403.863V31ZM381.015 32V1.2H379.015V32H381.015ZM380.015 2.2H403.291V0.199998H380.015V2.2ZM402.291 1.2V6.92H404.291V1.2H402.291ZM403.291 5.92H387.099V7.92H403.291V5.92ZM386.099 6.92V13.608H388.099V6.92H386.099ZM387.099 14.608H401.399V12.608H387.099V14.608ZM400.399 13.608V19.152H402.399V13.608H400.399ZM401.399 18.152H387.099V20.152H401.399V18.152ZM386.099 19.152V26.28H388.099V19.152H386.099ZM387.099 27.28H403.863V25.28H387.099V27.28ZM415.697 30.46L415.222 31.3398L415.226 31.3421L415.697 30.46ZM409.669 24.784L408.808 25.2924L408.811 25.2985L408.815 25.3046L409.669 24.784ZM409.669 8.46L408.812 7.94398L408.81 7.94704L409.669 8.46ZM415.697 2.74L415.226 1.85791L415.222 1.86018L415.697 2.74ZM439.017 8.46L438.16 8.97602L438.163 8.98061L439.017 8.46ZM439.017 24.784L439.871 25.3046L439.873 25.3L439.017 24.784ZM432.989 30.46L433.464 31.3398L432.989 30.46ZM429.293 25.224L429.781 26.0965L429.788 26.0928L429.795 26.089L429.293 25.224ZM432.725 21.704L431.856 21.2097L431.852 21.2162L431.848 21.2227L432.725 21.704ZM432.725 11.496L431.848 11.9773L431.852 11.9838L431.856 11.9903L432.725 11.496ZM429.293 8.02L428.791 8.88503L428.798 8.88882L428.804 8.89251L429.293 8.02ZM419.437 8.02L419.925 8.89251L419.932 8.88882L419.939 8.88503L419.437 8.02ZM415.961 11.496L415.092 11.0017L415.088 11.0082L415.084 11.0147L415.961 11.496ZM415.961 21.704L415.084 22.1853L415.088 22.1918L415.092 22.1983L415.961 21.704ZM419.437 25.224L418.935 26.089L418.942 26.0928L418.948 26.0965L419.437 25.224ZM424.365 31.528C421.316 31.528 418.591 30.8722 416.168 29.5779L415.226 31.3421C417.965 32.8052 421.019 33.528 424.365 33.528V31.528ZM416.172 29.5802C413.771 28.283 411.894 26.513 410.523 24.2634L408.815 25.3046C410.377 27.8657 412.519 29.8796 415.222 31.3398L416.172 29.5802ZM410.53 24.2756C409.19 22.0056 408.513 19.4552 408.513 16.6H406.513C406.513 19.7874 407.273 22.6931 408.808 25.2924L410.53 24.2756ZM408.513 16.6C408.513 13.7447 409.19 11.2111 410.527 8.97295L408.81 7.94704C407.273 10.5195 406.513 13.4127 406.513 16.6H408.513ZM410.525 8.97601C411.898 6.69779 413.774 4.91532 416.172 3.61982L415.222 1.86018C412.516 3.32201 410.373 5.35287 408.812 7.94399L410.525 8.97601ZM416.168 3.62207C418.591 2.32784 421.316 1.672 424.365 1.672V-0.328001C421.019 -0.328001 417.965 0.394824 415.226 1.85792L416.168 3.62207ZM424.365 1.672C427.414 1.672 430.122 2.32788 432.514 3.61982L433.464 1.86018C430.752 0.394787 427.711 -0.328001 424.365 -0.328001V1.672ZM432.514 3.61982C434.912 4.91532 436.788 6.69779 438.16 8.97601L439.873 7.94399C438.313 5.35287 436.17 3.32201 433.464 1.86018L432.514 3.61982ZM438.163 8.98061C439.527 11.2177 440.217 13.7485 440.217 16.6H442.217C442.217 13.4088 441.44 10.5129 439.871 7.93939L438.163 8.98061ZM440.217 16.6C440.217 19.4514 439.527 21.999 438.16 24.268L439.873 25.3C441.44 22.6997 442.217 19.7913 442.217 16.6H440.217ZM438.163 24.2634C436.791 26.513 434.915 28.283 432.514 29.5802L433.464 31.3398C436.167 29.8796 438.309 27.8657 439.871 25.3046L438.163 24.2634ZM432.514 29.5802C430.122 30.8721 427.414 31.528 424.365 31.528V33.528C427.711 33.528 430.752 32.8052 433.464 31.3398L432.514 29.5802ZM424.365 27.456C426.34 27.456 428.153 27.0082 429.781 26.0965L428.804 24.3515C427.499 25.0825 426.027 25.456 424.365 25.456V27.456ZM429.795 26.089C431.42 25.1463 432.693 23.8398 433.601 22.1853L431.848 21.2227C431.114 22.5602 430.099 23.6003 428.791 24.359L429.795 26.089ZM433.594 22.1983C434.539 20.5358 435.001 18.6608 435.001 16.6H433.001C433.001 18.3525 432.612 19.8802 431.856 21.2097L433.594 22.1983ZM435.001 16.6C435.001 14.5392 434.539 12.6642 433.594 11.0017L431.856 11.9903C432.612 13.3198 433.001 14.8475 433.001 16.6H435.001ZM433.601 11.0147C432.691 9.35721 431.414 8.0618 429.781 7.14749L428.804 8.89251C430.105 9.62086 431.116 10.6428 431.848 11.9773L433.601 11.0147ZM429.795 7.15497C428.164 6.20948 426.346 5.744 424.365 5.744V7.744C426.021 7.744 427.488 8.12919 428.791 8.88503L429.795 7.15497ZM424.365 5.744C422.383 5.744 420.565 6.20948 418.935 7.15497L419.939 8.88503C421.242 8.12919 422.709 7.744 424.365 7.744V5.744ZM418.948 7.14749C417.319 8.06006 416.03 9.35126 415.092 11.0017L416.83 11.9903C417.593 10.6487 418.622 9.62261 419.925 8.89251L418.948 7.14749ZM415.084 11.0147C414.173 12.6749 413.729 14.5452 413.729 16.6H415.729C415.729 14.8415 416.106 13.3091 416.837 11.9773L415.084 11.0147ZM413.729 16.6C413.729 18.6548 414.173 20.5251 415.084 22.1853L416.837 21.2227C416.106 19.8909 415.729 18.3585 415.729 16.6H413.729ZM415.092 22.1983C416.028 23.8458 417.313 25.1481 418.935 26.089L419.939 24.359C418.628 23.5985 417.595 22.5542 416.83 21.2097L415.092 22.1983ZM418.948 26.0965C420.576 27.0082 422.39 27.456 424.365 27.456V25.456C422.703 25.456 421.231 25.0825 419.925 24.3515L418.948 26.0965Z" fill="white"/>
</svg>
