<svg width="343" height="27" viewBox="0 0 343 27" fill="none" xmlns="http://www.w3.org/2000/svg">
<path d="M89.8754 26.432C86.2754 26.432 83.4674 25.436 81.4514 23.444C79.4594 21.452 78.4634 18.608 78.4634 14.912V0.799998H84.2954V14.696C84.2954 19.208 86.1674 21.464 89.9114 21.464C91.7354 21.464 93.1274 20.924 94.0874 19.844C95.0474 18.74 95.5274 17.024 95.5274 14.696V0.799998H101.287V14.912C101.287 18.608 100.279 21.452 98.2634 23.444C96.2714 25.436 93.4754 26.432 89.8754 26.432ZM130.163 0.799998V26H125.375L112.811 10.7V26H107.051V0.799998H111.875L124.402 16.1V0.799998H130.163ZM136.125 0.799998H147.573C150.309 0.799998 152.721 1.328 154.809 2.384C156.921 3.416 158.553 4.88 159.705 6.776C160.881 8.672 161.469 10.88 161.469 13.4C161.469 15.92 160.881 18.128 159.705 20.024C158.553 21.92 156.921 23.396 154.809 24.452C152.721 25.484 150.309 26 147.573 26H136.125V0.799998ZM147.285 21.212C149.805 21.212 151.809 20.516 153.297 19.124C154.809 17.708 155.565 15.8 155.565 13.4C155.565 11 154.809 9.104 153.297 7.712C151.809 6.296 149.805 5.588 147.285 5.588H141.957V21.212H147.285ZM185.379 21.32V26H165.867V0.799998H184.911V5.48H171.663V10.952H183.363V15.488H171.663V21.32H185.379ZM206.075 26L201.215 18.98H200.927H195.851V26H190.019V0.799998H200.927C203.159 0.799998 205.091 1.172 206.723 1.916C208.379 2.66 209.651 3.716 210.539 5.084C211.427 6.452 211.871 8.072 211.871 9.944C211.871 11.816 211.415 13.436 210.503 14.804C209.615 16.148 208.343 17.18 206.687 17.9L212.339 26H206.075ZM205.967 9.944C205.967 8.528 205.511 7.448 204.599 6.704C203.687 5.936 202.355 5.552 200.603 5.552H195.851V14.336H200.603C202.355 14.336 203.687 13.952 204.599 13.184C205.511 12.416 205.967 11.336 205.967 9.944ZM224.772 26.432C222.78 26.432 220.848 26.168 218.976 25.64C217.128 25.088 215.64 24.38 214.512 23.516L216.492 19.124C217.572 19.916 218.856 20.552 220.344 21.032C221.832 21.512 223.32 21.752 224.808 21.752C226.464 21.752 227.688 21.512 228.48 21.032C229.272 20.528 229.668 19.868 229.668 19.052C229.668 18.452 229.428 17.96 228.948 17.576C228.492 17.168 227.892 16.844 227.148 16.604C226.428 16.364 225.444 16.1 224.196 15.812C222.276 15.356 220.704 14.9 219.48 14.444C218.256 13.988 217.2 13.256 216.312 12.248C215.448 11.24 215.016 9.896 215.016 8.216C215.016 6.752 215.412 5.432 216.204 4.256C216.996 3.056 218.184 2.108 219.768 1.412C221.376 0.715999 223.332 0.368 225.636 0.368C227.244 0.368 228.816 0.559999 230.352 0.943999C231.888 1.328 233.232 1.88 234.384 2.6L232.584 7.028C230.256 5.708 227.928 5.048 225.6 5.048C223.968 5.048 222.756 5.312 221.964 5.84C221.196 6.368 220.812 7.064 220.812 7.928C220.812 8.792 221.256 9.44 222.144 9.872C223.056 10.28 224.436 10.688 226.284 11.096C228.204 11.552 229.776 12.008 231 12.464C232.224 12.92 233.268 13.64 234.132 14.624C235.02 15.608 235.464 16.94 235.464 18.62C235.464 20.06 235.056 21.38 234.24 22.58C233.448 23.756 232.248 24.692 230.64 25.388C229.032 26.084 227.076 26.432 224.772 26.432ZM244.317 5.552H236.253V0.799998H258.213V5.552H250.149V26H244.317V5.552ZM276.682 20.6H264.982L262.75 26H256.774L268.006 0.799998H273.766L285.034 26H278.914L276.682 20.6ZM274.846 16.172L270.85 6.524L266.854 16.172H274.846ZM310.76 0.799998V26H305.972L293.408 10.7V26H287.648V0.799998H292.472L305 16.1V0.799998H310.76ZM316.722 0.799998H328.17C330.906 0.799998 333.318 1.328 335.406 2.384C337.518 3.416 339.15 4.88 340.302 6.776C341.478 8.672 342.066 10.88 342.066 13.4C342.066 15.92 341.478 18.128 340.302 20.024C339.15 21.92 337.518 23.396 335.406 24.452C333.318 25.484 330.906 26 328.17 26H316.722V0.799998ZM327.882 21.212C330.402 21.212 332.406 20.516 333.894 19.124C335.406 17.708 336.162 15.8 336.162 13.4C336.162 11 335.406 9.104 333.894 7.712C332.406 6.296 330.402 5.588 327.882 5.588H322.554V21.212H327.882Z" fill="#333333"/>
<path d="M41.076 0.799998L42.0264 1.11093L42.4553 -0.200002H41.076V0.799998ZM32.832 26V27H33.557L33.7824 26.3109L32.832 26ZM26.568 26L25.6169 26.309L25.8414 27H26.568V26ZM21.024 8.936L21.9751 8.627L21.0392 5.74639L20.0759 8.61797L21.024 8.936ZM15.3 26V27H16.0193L16.2481 26.318L15.3 26ZM9.072 26L8.12197 26.3122L8.34797 27H9.072V26ZM0.792 0.799998V-0.200002H-0.589168L-0.158032 1.11215L0.792 0.799998ZM6.84 0.799998L7.79211 0.49424L7.56916 -0.200002H6.84V0.799998ZM12.528 18.512L11.5759 18.8178L12.5074 21.7184L13.4761 18.83L12.528 18.512ZM18.468 0.799998V-0.200002H17.7486L17.5199 0.482037L18.468 0.799998ZM23.868 0.799998L24.8197 0.492995L24.5962 -0.200002H23.868V0.799998ZM29.628 18.656L28.6763 18.963L29.6192 21.8859L30.578 18.9682L29.628 18.656ZM35.496 0.799998V-0.200002H34.772L34.546 0.487796L35.496 0.799998ZM40.1256 0.489071L31.8816 25.6891L33.7824 26.3109L42.0264 1.11093L40.1256 0.489071ZM32.832 25H26.568V27H32.832V25ZM27.5191 25.691L21.9751 8.627L20.0729 9.24499L25.6169 26.309L27.5191 25.691ZM20.0759 8.61797L14.3519 25.682L16.2481 26.318L21.9721 9.25403L20.0759 8.61797ZM15.3 25H9.072V27H15.3V25ZM10.022 25.6878L1.74203 0.487845L-0.158032 1.11215L8.12197 26.3122L10.022 25.6878ZM0.792 1.8H6.84V-0.200002H0.792V1.8ZM5.88789 1.10576L11.5759 18.8178L13.4801 18.2062L7.79211 0.49424L5.88789 1.10576ZM13.4761 18.83L19.4161 1.11796L17.5199 0.482037L11.5799 18.194L13.4761 18.83ZM18.468 1.8H23.868V-0.200002H18.468V1.8ZM22.9163 1.107L28.6763 18.963L30.5797 18.349L24.8197 0.492995L22.9163 1.107ZM30.578 18.9682L36.446 1.1122L34.546 0.487796L28.678 18.3438L30.578 18.9682ZM35.496 1.8H41.076V-0.200002H35.496V1.8ZM63.8438 21.32H64.8438V20.32H63.8438V21.32ZM63.8438 26V27H64.8438V26H63.8438ZM44.3317 26H43.3317V27H44.3317V26ZM44.3317 0.799998V-0.200002H43.3317V0.799998H44.3317ZM63.3758 0.799998H64.3758V-0.200002H63.3758V0.799998ZM63.3758 5.48V6.48H64.3758V5.48H63.3758ZM50.1278 5.48V4.48H49.1278V5.48H50.1278ZM50.1278 10.952H49.1278V11.952H50.1278V10.952ZM61.8278 10.952H62.8278V9.952H61.8278V10.952ZM61.8278 15.488V16.488H62.8278V15.488H61.8278ZM50.1278 15.488V14.488H49.1278V15.488H50.1278ZM50.1278 21.32H49.1278V22.32H50.1278V21.32ZM62.8438 21.32V26H64.8438V21.32H62.8438ZM63.8438 25H44.3317V27H63.8438V25ZM45.3317 26V0.799998H43.3317V26H45.3317ZM44.3317 1.8H63.3758V-0.200002H44.3317V1.8ZM62.3758 0.799998V5.48H64.3758V0.799998H62.3758ZM63.3758 4.48H50.1278V6.48H63.3758V4.48ZM49.1278 5.48V10.952H51.1278V5.48H49.1278ZM50.1278 11.952H61.8278V9.952H50.1278V11.952ZM60.8278 10.952V15.488H62.8278V10.952H60.8278ZM61.8278 14.488H50.1278V16.488H61.8278V14.488ZM49.1278 15.488V21.32H51.1278V15.488H49.1278ZM50.1278 22.32H63.8438V20.32H50.1278V22.32ZM81.4514 23.444L80.7443 24.1511L80.7486 24.1553L81.4514 23.444ZM78.4634 0.799998V-0.200002H77.4634V0.799998H78.4634ZM84.2954 0.799998H85.2954V-0.200002H84.2954V0.799998ZM94.0874 19.844L94.8349 20.5084L94.842 20.5002L94.0874 19.844ZM95.5274 0.799998V-0.200002H94.5274V0.799998H95.5274ZM101.287 0.799998H102.287V-0.200002H101.287V0.799998ZM98.2634 23.444L97.5605 22.7327L97.5563 22.7369L98.2634 23.444ZM89.8754 25.432C86.464 25.432 83.936 24.4932 82.1543 22.7327L80.7486 24.1553C82.9988 26.3788 86.0868 27.432 89.8754 27.432V25.432ZM82.1585 22.7369C80.4072 20.9855 79.4634 18.4288 79.4634 14.912H77.4634C77.4634 18.7872 78.5117 21.9185 80.7443 24.1511L82.1585 22.7369ZM79.4634 14.912V0.799998H77.4634V14.912H79.4634ZM78.4634 1.8H84.2954V-0.200002H78.4634V1.8ZM83.2954 0.799998V14.696H85.2954V0.799998H83.2954ZM83.2954 14.696C83.2954 17.0654 83.7831 19.0286 84.9298 20.4106C86.1062 21.8283 87.8311 22.464 89.9114 22.464V20.464C88.2477 20.464 87.1646 19.9717 86.469 19.1334C85.7437 18.2594 85.2954 16.8386 85.2954 14.696H83.2954ZM89.9114 22.464C91.9406 22.464 93.6375 21.8554 94.8348 20.5084L93.34 19.1796C92.6173 19.9926 91.5302 20.464 89.9114 20.464V22.464ZM94.842 20.5002C96.0306 19.1333 96.5274 17.1304 96.5274 14.696H94.5274C94.5274 16.9176 94.0642 18.3467 93.3328 19.1878L94.842 20.5002ZM96.5274 14.696V0.799998H94.5274V14.696H96.5274ZM95.5274 1.8H101.287V-0.200002H95.5274V1.8ZM100.287 0.799998V14.912H102.287V0.799998H100.287ZM100.287 14.912C100.287 18.4255 99.3336 20.9808 97.5605 22.7327L98.9663 24.1553C101.225 21.9232 102.287 18.7905 102.287 14.912H100.287ZM97.5563 22.7369C95.8002 24.493 93.2875 25.432 89.8754 25.432V27.432C93.6633 27.432 96.7426 26.379 98.9705 24.1511L97.5563 22.7369ZM130.163 0.799998H131.163V-0.200002H130.163V0.799998ZM130.163 26V27H131.163V26H130.163ZM125.374 26L124.602 26.6346L124.902 27H125.374V26ZM112.811 10.7L113.583 10.0654L111.811 7.9065V10.7H112.811ZM112.811 26V27H113.811V26H112.811ZM107.05 26H106.05V27H107.05V26ZM107.05 0.799998V-0.200002H106.05V0.799998H107.05ZM111.874 0.799998L112.648 0.166463L112.348 -0.200002H111.874V0.799998ZM124.402 16.1L123.629 16.7335L125.402 18.8997V16.1H124.402ZM124.402 0.799998V-0.200002H123.402V0.799998H124.402ZM129.163 0.799998V26H131.163V0.799998H129.163ZM130.163 25H125.374V27H130.163V25ZM126.147 25.3654L113.583 10.0654L112.038 11.3346L124.602 26.6346L126.147 25.3654ZM111.811 10.7V26H113.811V10.7H111.811ZM112.811 25H107.05V27H112.811V25ZM108.05 26V0.799998H106.05V26H108.05ZM107.05 1.8H111.874V-0.200002H107.05V1.8ZM111.101 1.43353L123.629 16.7335L125.176 15.4665L112.648 0.166463L111.101 1.43353ZM125.402 16.1V0.799998H123.402V16.1H125.402ZM124.402 1.8H130.163V-0.200002H124.402V1.8ZM136.125 0.799998V-0.200002H135.125V0.799998H136.125ZM154.809 2.384L154.357 3.27645L154.37 3.28247L154.809 2.384ZM159.705 6.776L158.85 7.29528L158.855 7.30309L159.705 6.776ZM159.705 20.024L158.855 19.4969L158.85 19.5047L159.705 20.024ZM154.809 24.452L155.252 25.3485L155.256 25.3464L154.809 24.452ZM136.125 26H135.125V27H136.125V26ZM153.297 19.124L153.98 19.8543L153.98 19.8539L153.297 19.124ZM153.297 7.712L152.607 8.43641L152.613 8.44211L152.619 8.4477L153.297 7.712ZM141.957 5.588V4.588H140.957V5.588H141.957ZM141.957 21.212H140.957V22.212H141.957V21.212ZM136.125 1.8H147.573V-0.200002H136.125V1.8ZM147.573 1.8C150.178 1.8 152.431 2.30219 154.357 3.27637L155.26 1.49163C153.01 0.353806 150.439 -0.200002 147.573 -0.200002V1.8ZM154.37 3.28247C156.32 4.23569 157.804 5.57275 158.85 7.29526L160.559 6.25674C159.302 4.18725 157.521 2.59631 155.248 1.48553L154.37 3.28247ZM158.855 7.30309C159.92 9.02102 160.469 11.0415 160.469 13.4H162.469C162.469 10.7185 161.841 8.32298 160.555 6.2489L158.855 7.30309ZM160.469 13.4C160.469 15.7585 159.92 17.779 158.855 19.4969L160.555 20.5511C161.841 18.477 162.469 16.0815 162.469 13.4H160.469ZM158.85 19.5047C157.802 21.2293 156.316 22.5801 154.362 23.5576L155.256 25.3464C157.525 24.2119 159.303 22.6107 160.559 20.5433L158.85 19.5047ZM154.366 23.5555C152.438 24.5085 150.182 25 147.573 25V27C150.436 27 153.004 26.4595 155.252 25.3485L154.366 23.5555ZM147.573 25H136.125V27H147.573V25ZM137.125 26V0.799998H135.125V26H137.125ZM147.285 22.212C149.995 22.212 152.265 21.4583 153.98 19.8543L152.614 18.3937C151.352 19.5737 149.614 20.212 147.285 20.212V22.212ZM153.98 19.8539C155.727 18.2184 156.565 16.0286 156.565 13.4H154.565C154.565 15.5714 153.891 17.1976 152.613 18.3941L153.98 19.8539ZM156.565 13.4C156.565 10.7717 155.727 8.58981 153.974 6.9763L152.619 8.4477C153.891 9.61819 154.565 11.2282 154.565 13.4H156.565ZM153.986 6.98758C152.272 5.35644 150 4.588 147.285 4.588V6.588C149.609 6.588 151.345 7.23556 152.607 8.43641L153.986 6.98758ZM147.285 4.588H141.957V6.588H147.285V4.588ZM140.957 5.588V21.212H142.957V5.588H140.957ZM141.957 22.212H147.285V20.212H141.957V22.212ZM185.379 21.32H186.379V20.32H185.379V21.32ZM185.379 26V27H186.379V26H185.379ZM165.867 26H164.867V27H165.867V26ZM165.867 0.799998V-0.200002H164.867V0.799998H165.867ZM184.911 0.799998H185.911V-0.200002H184.911V0.799998ZM184.911 5.48V6.48H185.911V5.48H184.911ZM171.663 5.48V4.48H170.663V5.48H171.663ZM171.663 10.952H170.663V11.952H171.663V10.952ZM183.363 10.952H184.363V9.952H183.363V10.952ZM183.363 15.488V16.488H184.363V15.488H183.363ZM171.663 15.488V14.488H170.663V15.488H171.663ZM171.663 21.32H170.663V22.32H171.663V21.32ZM184.379 21.32V26H186.379V21.32H184.379ZM185.379 25H165.867V27H185.379V25ZM166.867 26V0.799998H164.867V26H166.867ZM165.867 1.8H184.911V-0.200002H165.867V1.8ZM183.911 0.799998V5.48H185.911V0.799998H183.911ZM184.911 4.48H171.663V6.48H184.911V4.48ZM170.663 5.48V10.952H172.663V5.48H170.663ZM171.663 11.952H183.363V9.952H171.663V11.952ZM182.363 10.952V15.488H184.363V10.952H182.363ZM183.363 14.488H171.663V16.488H183.363V14.488ZM170.663 15.488V21.32H172.663V15.488H170.663ZM171.663 22.32H185.379V20.32H171.663V22.32ZM206.075 26L205.253 26.5692L205.551 27H206.075V26ZM201.215 18.98L202.037 18.4108L201.739 17.98H201.215V18.98ZM195.851 18.98V17.98H194.851V18.98H195.851ZM195.851 26V27H196.851V26H195.851ZM190.019 26H189.019V27H190.019V26ZM190.019 0.799998V-0.200002H189.019V0.799998H190.019ZM206.723 1.916L206.308 2.82592L206.313 2.82817L206.723 1.916ZM210.503 14.804L209.671 14.2493L209.669 14.2527L210.503 14.804ZM206.687 17.9L206.289 16.9829L205.168 17.4701L205.867 18.4722L206.687 17.9ZM212.339 26V27H214.256L213.159 25.4278L212.339 26ZM204.599 6.704L203.955 7.46891L203.961 7.47393L203.967 7.47886L204.599 6.704ZM195.851 5.552V4.552H194.851V5.552H195.851ZM195.851 14.336H194.851V15.336H195.851V14.336ZM204.599 13.184L205.243 13.9489L204.599 13.184ZM206.897 25.4308L202.037 18.4108L200.393 19.5492L205.253 26.5692L206.897 25.4308ZM201.215 17.98H200.927V19.98H201.215V17.98ZM200.927 17.98H195.851V19.98H200.927V17.98ZM194.851 18.98V26H196.851V18.98H194.851ZM195.851 25H190.019V27H195.851V25ZM191.019 26V0.799998H189.019V26H191.019ZM190.019 1.8H200.927V-0.200002H190.019V1.8ZM200.927 1.8C203.05 1.8 204.834 2.15393 206.308 2.82591L207.138 1.00609C205.348 0.190066 203.268 -0.200002 200.927 -0.200002V1.8ZM206.313 2.82817C207.815 3.5026 208.929 4.43961 209.7 5.62847L211.378 4.53953C210.374 2.99239 208.944 1.8174 207.133 1.00383L206.313 2.82817ZM209.7 5.62847C210.468 6.81143 210.871 8.23595 210.871 9.944H212.871C212.871 7.90805 212.386 6.09257 211.378 4.53953L209.7 5.62847ZM210.871 9.944C210.871 11.6468 210.459 13.0676 209.671 14.2493L211.335 15.3587C212.371 13.8044 212.871 11.9852 212.871 9.944H210.871ZM209.669 14.2527C208.9 15.4161 207.789 16.3305 206.289 16.9829L207.086 18.8171C208.897 18.0295 210.33 16.8799 211.338 15.3553L209.669 14.2527ZM205.867 18.4722L211.519 26.5722L213.159 25.4278L207.507 17.3278L205.867 18.4722ZM212.339 25H206.075V27H212.339V25ZM206.967 9.944C206.967 8.29507 206.424 6.90196 205.231 5.92913L203.967 7.47886C204.599 7.99404 204.967 8.76093 204.967 9.944H206.967ZM205.243 5.93909C204.083 4.96199 202.483 4.552 200.603 4.552V6.552C202.227 6.552 203.291 6.91001 203.955 7.46891L205.243 5.93909ZM200.603 4.552H195.851V6.552H200.603V4.552ZM194.851 5.552V14.336H196.851V5.552H194.851ZM195.851 15.336H200.603V13.336H195.851V15.336ZM200.603 15.336C202.483 15.336 204.083 14.926 205.243 13.9489L203.955 12.4191C203.291 12.978 202.227 13.336 200.603 13.336V15.336ZM205.243 13.9489C206.42 12.9582 206.967 11.5761 206.967 9.944H204.967C204.967 11.0959 204.603 11.8738 203.955 12.4191L205.243 13.9489ZM218.976 25.64L218.69 26.5982L218.697 26.6004L218.704 26.6025L218.976 25.64ZM214.512 23.516L213.6 23.105L213.274 23.8278L213.904 24.3099L214.512 23.516ZM216.492 19.124L217.083 18.3176L216.088 17.5875L215.58 18.713L216.492 19.124ZM220.344 21.032L220.651 20.0803L220.344 21.032ZM228.48 21.032L228.998 21.8872L229.008 21.8815L229.017 21.8757L228.48 21.032ZM228.948 17.576L228.281 18.3212L228.302 18.3396L228.323 18.3569L228.948 17.576ZM227.148 16.604L226.832 17.5527L226.841 17.5557L227.148 16.604ZM224.196 15.812L223.965 16.785L223.971 16.7864L224.196 15.812ZM219.48 14.444L219.829 13.5069L219.48 14.444ZM216.312 12.248L215.553 12.8988L215.562 12.909L216.312 12.248ZM216.204 4.256L217.033 4.81462L217.039 4.80684L216.204 4.256ZM219.768 1.412L219.371 0.494263L219.366 0.496479L219.768 1.412ZM230.352 0.943998L230.594 -0.026144L230.352 0.943998ZM234.384 2.6L235.31 2.97658L235.627 2.19764L234.914 1.752L234.384 2.6ZM232.584 7.028L232.091 7.89789L233.081 8.45965L233.51 7.40458L232.584 7.028ZM221.964 5.84L221.409 5.00795L221.403 5.01191L221.397 5.01596L221.964 5.84ZM222.144 9.872L221.706 10.7712L221.721 10.7783L221.736 10.7848L222.144 9.872ZM226.284 11.096L226.515 10.1231L226.507 10.1212L226.499 10.1195L226.284 11.096ZM231 12.464L231.349 11.5269L231 12.464ZM234.132 14.624L233.38 15.2839L233.39 15.294L234.132 14.624ZM234.24 22.58L233.413 22.0177L233.41 22.0214L234.24 22.58ZM230.64 25.388L230.243 24.4703L230.64 25.388ZM224.772 25.432C222.869 25.432 221.029 25.18 219.247 24.6776L218.704 26.6025C220.667 27.156 222.69 27.432 224.772 27.432V25.432ZM219.262 24.6818C217.492 24.153 216.124 23.4911 215.12 22.7221L213.904 24.3099C215.156 25.2689 216.764 26.023 218.69 26.5982L219.262 24.6818ZM215.424 23.927L217.404 19.535L215.58 18.713L213.6 23.105L215.424 23.927ZM215.901 19.9304C217.08 20.7954 218.464 21.4762 220.037 21.9837L220.651 20.0803C219.248 19.6278 218.064 19.0366 217.083 18.3176L215.901 19.9304ZM220.037 21.9837C221.619 22.4941 223.21 22.752 224.808 22.752V20.752C223.429 20.752 222.045 20.5299 220.651 20.0803L220.037 21.9837ZM224.808 22.752C226.522 22.752 227.97 22.5104 228.998 21.8872L227.962 20.1768C227.406 20.5136 226.406 20.752 224.808 20.752V22.752ZM229.017 21.8757C230.046 21.2205 230.668 20.2662 230.668 19.052H228.668C228.668 19.4698 228.498 19.8355 227.943 20.1883L229.017 21.8757ZM230.668 19.052C230.668 18.1397 230.283 17.3635 229.573 16.7951L228.323 18.3569C228.573 18.5565 228.668 18.7643 228.668 19.052H230.668ZM229.615 16.8308C229.03 16.3075 228.296 15.9237 227.455 15.6523L226.841 17.5557C227.487 17.7643 227.954 18.0285 228.281 18.3212L229.615 16.8308ZM227.464 15.6553C226.701 15.4008 225.682 15.1286 224.421 14.8376L223.971 16.7864C225.206 17.0714 226.155 17.3272 226.832 17.5527L227.464 15.6553ZM224.427 14.8391C222.529 14.3883 221 13.9433 219.829 13.5069L219.131 15.3811C220.408 15.8567 222.023 16.3237 223.965 16.7849L224.427 14.8391ZM219.829 13.5069C218.764 13.1101 217.845 12.4749 217.062 11.587L215.562 12.909C216.555 14.0371 217.748 14.8659 219.131 15.3811L219.829 13.5069ZM217.071 11.5972C216.4 10.8145 216.016 9.72245 216.016 8.216H214.016C214.016 10.0695 214.496 11.6655 215.553 12.8988L217.071 11.5972ZM216.016 8.216C216.016 6.94415 216.356 5.81991 217.033 4.8146L215.374 3.6974C214.468 5.04409 214.016 6.55985 214.016 8.216H216.016ZM217.039 4.80684C217.705 3.79757 218.726 2.96201 220.17 2.32752L219.366 0.496479C217.642 1.25399 216.287 2.31443 215.369 3.70516L217.039 4.80684ZM220.165 2.32972C221.615 1.7022 223.428 1.368 225.636 1.368V-0.632C223.236 -0.632 221.137 -0.270198 219.371 0.494277L220.165 2.32972ZM225.636 1.368C227.163 1.368 228.654 1.55028 230.109 1.91414L230.594 -0.026144C228.978 -0.430283 227.324 -0.632 225.636 -0.632V1.368ZM230.109 1.91414C231.56 2.27684 232.804 2.79183 233.854 3.448L234.914 1.752C233.66 0.968168 232.216 0.379158 230.594 -0.026144L230.109 1.91414ZM233.458 2.22342L231.658 6.65142L233.51 7.40458L235.31 2.97658L233.458 2.22342ZM233.077 6.15811C230.622 4.76574 228.125 4.048 225.6 4.048V6.048C227.731 6.048 229.89 6.65026 232.091 7.89789L233.077 6.15811ZM225.6 4.048C223.896 4.048 222.445 4.31711 221.409 5.00795L222.519 6.67205C223.066 6.30689 224.04 6.048 225.6 6.048V4.048ZM221.397 5.01596C220.383 5.7132 219.812 6.70527 219.812 7.928H221.812C221.812 7.42272 222.009 7.0228 222.53 6.66404L221.397 5.01596ZM219.812 7.928C219.812 8.5407 219.973 9.12023 220.32 9.62723C220.662 10.1266 221.146 10.4986 221.706 10.7712L222.581 8.97276C222.254 8.81341 222.072 8.6454 221.97 8.49677C221.873 8.35577 221.812 8.1793 221.812 7.928H219.812ZM221.736 10.7848C222.742 11.2351 224.202 11.6604 226.068 12.0725L226.499 10.1195C224.67 9.71563 223.37 9.32489 222.552 8.95918L221.736 10.7848ZM226.053 12.0689C227.951 12.5197 229.48 12.9647 230.651 13.4011L231.349 11.5269C230.072 11.0513 228.457 10.5843 226.515 10.1231L226.053 12.0689ZM230.651 13.4011C231.719 13.7992 232.625 14.4237 233.38 15.2838L234.883 13.9642C233.911 12.8563 232.728 12.0408 231.349 11.5269L230.651 13.4011ZM233.39 15.294C234.071 16.049 234.464 17.119 234.464 18.62H236.464C236.464 16.761 235.969 15.167 234.874 13.954L233.39 15.294ZM234.464 18.62C234.464 19.8578 234.117 20.9822 233.413 22.0177L235.067 23.1423C235.995 21.7778 236.464 20.2622 236.464 18.62H234.464ZM233.41 22.0214C232.748 23.0052 231.717 23.8323 230.243 24.4703L231.037 26.3057C232.779 25.5517 234.148 24.5068 235.069 23.1386L233.41 22.0214ZM230.243 24.4703C228.793 25.0978 226.98 25.432 224.772 25.432V27.432C227.172 27.432 229.271 27.0702 231.037 26.3057L230.243 24.4703ZM244.317 5.552H245.317V4.552H244.317V5.552ZM236.253 5.552H235.253V6.552H236.253V5.552ZM236.253 0.799998V-0.200002H235.253V0.799998H236.253ZM258.213 0.799998H259.213V-0.200002H258.213V0.799998ZM258.213 5.552V6.552H259.213V5.552H258.213ZM250.149 5.552V4.552H249.149V5.552H250.149ZM250.149 26V27H251.149V26H250.149ZM244.317 26H243.317V27H244.317V26ZM244.317 4.552H236.253V6.552H244.317V4.552ZM237.253 5.552V0.799998H235.253V5.552H237.253ZM236.253 1.8H258.213V-0.200002H236.253V1.8ZM257.213 0.799998V5.552H259.213V0.799998H257.213ZM258.213 4.552H250.149V6.552H258.213V4.552ZM249.149 5.552V26H251.149V5.552H249.149ZM250.149 25H244.317V27H250.149V25ZM245.317 26V5.552H243.317V26H245.317ZM276.682 20.6L277.606 20.218L277.35 19.6H276.682V20.6ZM264.982 20.6V19.6H264.313L264.057 20.218L264.982 20.6ZM262.75 26V27H263.418L263.674 26.382L262.75 26ZM256.774 26L255.86 25.5929L255.233 27H256.774V26ZM268.006 0.799998V-0.200002H267.357L267.092 0.392892L268.006 0.799998ZM273.766 0.799998L274.679 0.391804L274.414 -0.200002H273.766V0.799998ZM285.034 26V27H286.576L285.947 25.5918L285.034 26ZM278.914 26L277.99 26.382L278.245 27H278.914V26ZM274.846 16.172V17.172H276.342L275.77 15.7893L274.846 16.172ZM270.85 6.524L271.774 6.14134L270.85 3.91069L269.926 6.14134L270.85 6.524ZM266.854 16.172L265.93 15.7893L265.357 17.172H266.854V16.172ZM276.682 19.6H264.982V21.6H276.682V19.6ZM264.057 20.218L261.826 25.618L263.674 26.382L265.906 20.982L264.057 20.218ZM262.75 25H256.774V27H262.75V25ZM257.687 26.4071L268.919 1.2071L267.092 0.392892L255.86 25.5929L257.687 26.4071ZM268.006 1.8H273.766V-0.200002H268.006V1.8ZM272.853 1.20819L284.121 26.4082L285.947 25.5918L274.679 0.391804L272.853 1.20819ZM285.034 25H278.914V27H285.034V25ZM279.838 25.618L277.606 20.218L275.757 20.982L277.99 26.382L279.838 25.618ZM275.77 15.7893L271.774 6.14134L269.926 6.90666L273.922 16.5547L275.77 15.7893ZM269.926 6.14134L265.93 15.7893L267.778 16.5547L271.774 6.90666L269.926 6.14134ZM266.854 17.172H274.846V15.172H266.854V17.172ZM310.76 0.799998H311.76V-0.200002H310.76V0.799998ZM310.76 26V27H311.76V26H310.76ZM305.972 26L305.199 26.6346L305.499 27H305.972V26ZM293.408 10.7L294.181 10.0654L292.408 7.9065V10.7H293.408ZM293.408 26V27H294.408V26H293.408ZM287.648 26H286.648V27H287.648V26ZM287.648 0.799998V-0.200002H286.648V0.799998H287.648ZM292.472 0.799998L293.246 0.166463L292.946 -0.200002H292.472V0.799998ZM305 16.1L304.226 16.7335L306 18.8997V16.1H305ZM305 0.799998V-0.200002H304V0.799998H305ZM309.76 0.799998V26H311.76V0.799998H309.76ZM310.76 25H305.972V27H310.76V25ZM306.745 25.3654L294.181 10.0654L292.635 11.3346L305.199 26.6346L306.745 25.3654ZM292.408 10.7V26H294.408V10.7H292.408ZM293.408 25H287.648V27H293.408V25ZM288.648 26V0.799998H286.648V26H288.648ZM287.648 1.8H292.472V-0.200002H287.648V1.8ZM291.698 1.43353L304.226 16.7335L305.774 15.4665L293.246 0.166463L291.698 1.43353ZM306 16.1V0.799998H304V16.1H306ZM305 1.8H310.76V-0.200002H305V1.8ZM316.722 0.799998V-0.200002H315.722V0.799998H316.722ZM335.406 2.384L334.955 3.27645L334.967 3.28247L335.406 2.384ZM340.302 6.776L339.448 7.29528L339.453 7.30309L340.302 6.776ZM340.302 20.024L339.453 19.4969L339.448 19.5047L340.302 20.024ZM335.406 24.452L335.849 25.3485L335.854 25.3464L335.406 24.452ZM316.722 26H315.722V27H316.722V26ZM333.894 19.124L334.578 19.8543L334.578 19.8539L333.894 19.124ZM333.894 7.712L333.205 8.43641L333.211 8.44211L333.217 8.4477L333.894 7.712ZM322.554 5.588V4.588H321.554V5.588H322.554ZM322.554 21.212H321.554V22.212H322.554V21.212ZM316.722 1.8H328.17V-0.200002H316.722V1.8ZM328.17 1.8C330.776 1.8 333.029 2.30219 334.955 3.27637L335.858 1.49163C333.608 0.353806 331.037 -0.200002 328.17 -0.200002V1.8ZM334.967 3.28247C336.918 4.23569 338.401 5.57275 339.448 7.29526L341.157 6.25674C339.9 4.18725 338.119 2.59631 335.845 1.48553L334.967 3.28247ZM339.453 7.30309C340.518 9.02102 341.066 11.0415 341.066 13.4H343.066C343.066 10.7185 342.439 8.32298 341.152 6.2489L339.453 7.30309ZM341.066 13.4C341.066 15.7585 340.518 17.779 339.453 19.4969L341.152 20.5511C342.439 18.477 343.066 16.0815 343.066 13.4H341.066ZM339.448 19.5047C338.4 21.2293 336.914 22.5801 334.959 23.5576L335.854 25.3464C338.123 24.2119 339.901 22.6107 341.157 20.5433L339.448 19.5047ZM334.963 23.5555C333.035 24.5085 330.779 25 328.17 25V27C331.033 27 333.602 26.4595 335.849 25.3485L334.963 23.5555ZM328.17 25H316.722V27H328.17V25ZM317.722 26V0.799998H315.722V26H317.722ZM327.882 22.212C330.593 22.212 332.863 21.4583 334.578 19.8543L333.211 18.3937C331.95 19.5737 330.212 20.212 327.882 20.212V22.212ZM334.578 19.8539C336.324 18.2184 337.162 16.0286 337.162 13.4H335.162C335.162 15.5714 334.488 17.1976 333.211 18.3941L334.578 19.8539ZM337.162 13.4C337.162 10.7717 336.324 8.58981 334.572 6.9763L333.217 8.4477C334.488 9.61819 335.162 11.2282 335.162 13.4H337.162ZM334.584 6.98758C332.87 5.35644 330.598 4.588 327.882 4.588V6.588C330.207 6.588 331.943 7.23556 333.205 8.43641L334.584 6.98758ZM327.882 4.588H322.554V6.588H327.882V4.588ZM321.554 5.588V21.212H323.554V5.588H321.554ZM322.554 22.212H327.882V20.212H322.554V22.212Z" fill="#333333"/>
</svg>
