<svg width="229" height="19" viewBox="0 0 229 19" fill="none" xmlns="http://www.w3.org/2000/svg">
<path d="M59.9169 18.288C57.5169 18.288 55.6449 17.624 54.3009 16.296C52.9729 14.968 52.3089 13.072 52.3089 10.608V1.2H56.1969V10.464C56.1969 13.472 57.4449 14.976 59.9409 14.976C61.1569 14.976 62.0849 14.616 62.7249 13.896C63.3649 13.16 63.6849 12.016 63.6849 10.464V1.2H67.5249V10.608C67.5249 13.072 66.8529 14.968 65.5089 16.296C64.1809 17.624 62.3169 18.288 59.9169 18.288ZM86.775 1.2V18H83.583L75.207 7.8V18H71.367V1.2H74.583L82.935 11.4V1.2H86.775ZM90.7498 1.2H98.3818C100.206 1.2 101.814 1.552 103.206 2.256C104.614 2.944 105.702 3.92 106.47 5.184C107.254 6.448 107.646 7.92 107.646 9.6C107.646 11.28 107.254 12.752 106.47 14.016C105.702 15.28 104.614 16.264 103.206 16.968C101.814 17.656 100.206 18 98.3818 18H90.7498V1.2ZM98.1898 14.808C99.8698 14.808 101.206 14.344 102.198 13.416C103.206 12.472 103.71 11.2 103.71 9.6C103.71 8 103.206 6.736 102.198 5.808C101.206 4.864 99.8698 4.392 98.1898 4.392H94.6378V14.808H98.1898ZM123.586 14.88V18H110.578V1.2H123.274V4.32H114.442V7.968H122.242V10.992H114.442V14.88H123.586ZM137.384 18L134.144 13.32H133.952H130.568V18H126.68V1.2H133.952C135.44 1.2 136.728 1.448 137.816 1.944C138.92 2.44 139.768 3.144 140.36 4.056C140.952 4.968 141.248 6.048 141.248 7.296C141.248 8.544 140.944 9.624 140.336 10.536C139.744 11.432 138.896 12.12 137.792 12.6L141.56 18H137.384ZM137.312 7.296C137.312 6.352 137.008 5.632 136.4 5.136C135.792 4.624 134.904 4.368 133.736 4.368H130.568V10.224H133.736C134.904 10.224 135.792 9.968 136.4 9.456C137.008 8.944 137.312 8.224 137.312 7.296ZM149.848 18.288C148.52 18.288 147.232 18.112 145.984 17.76C144.752 17.392 143.76 16.92 143.008 16.344L144.328 13.416C145.048 13.944 145.904 14.368 146.896 14.688C147.888 15.008 148.88 15.168 149.872 15.168C150.976 15.168 151.792 15.008 152.32 14.688C152.848 14.352 153.112 13.912 153.112 13.368C153.112 12.968 152.952 12.64 152.632 12.384C152.328 12.112 151.928 11.896 151.432 11.736C150.952 11.576 150.296 11.4 149.464 11.208C148.184 10.904 147.136 10.6 146.32 10.296C145.504 9.992 144.8 9.504 144.208 8.832C143.632 8.16 143.344 7.264 143.344 6.144C143.344 5.168 143.608 4.288 144.136 3.504C144.664 2.704 145.456 2.072 146.512 1.608C147.584 1.144 148.888 0.912 150.424 0.912C151.496 0.912 152.544 1.04 153.568 1.296C154.592 1.552 155.488 1.92 156.256 2.4L155.056 5.352C153.504 4.472 151.952 4.032 150.4 4.032C149.312 4.032 148.504 4.208 147.976 4.56C147.464 4.912 147.208 5.376 147.208 5.952C147.208 6.528 147.504 6.96 148.096 7.248C148.704 7.52 149.624 7.792 150.856 8.064C152.136 8.368 153.184 8.672 154 8.976C154.816 9.28 155.512 9.76 156.088 10.416C156.68 11.072 156.976 11.96 156.976 13.08C156.976 14.04 156.704 14.92 156.16 15.72C155.632 16.504 154.832 17.128 153.76 17.592C152.688 18.056 151.384 18.288 149.848 18.288ZM162.878 4.368H157.502V1.2H172.142V4.368H166.766V18H162.878V4.368ZM184.454 14.4H176.654L175.166 18H171.182L178.67 1.2H182.51L190.022 18H185.942L184.454 14.4ZM183.23 11.448L180.566 5.016L177.902 11.448H183.23ZM207.173 1.2V18H203.981L195.605 7.8V18H191.765V1.2H194.981L203.333 11.4V1.2H207.173ZM211.148 1.2H218.78C220.604 1.2 222.212 1.552 223.604 2.256C225.012 2.944 226.1 3.92 226.868 5.184C227.652 6.448 228.044 7.92 228.044 9.6C228.044 11.28 227.652 12.752 226.868 14.016C226.1 15.28 225.012 16.264 223.604 16.968C222.212 17.656 220.604 18 218.78 18H211.148V1.2ZM218.588 14.808C220.268 14.808 221.604 14.344 222.596 13.416C223.604 12.472 224.108 11.2 224.108 9.6C224.108 8 223.604 6.736 222.596 5.808C221.604 4.864 220.268 4.392 218.588 4.392H215.036V14.808H218.588Z" fill="#333333"/>
<path d="M27.384 1.2L28.3344 1.51093L28.7633 0.199999H27.384V1.2ZM21.888 18V19H22.613L22.8384 18.3109L21.888 18ZM17.712 18L16.7609 18.309L16.9854 19H17.712V18ZM14.016 6.624L14.9671 6.315L14.0312 3.43439L13.0679 6.30597L14.016 6.624ZM10.2 18V19H10.9193L11.1481 18.318L10.2 18ZM6.048 18L5.09797 18.3122L5.32398 19H6.048V18ZM0.528 1.2V0.199999H-0.853168L-0.422032 1.51215L0.528 1.2ZM4.56 1.2L5.51211 0.89424L5.28916 0.199999H4.56V1.2ZM8.352 13.008L7.39989 13.3138L8.33141 16.2144L9.3001 13.326L8.352 13.008ZM12.312 1.2V0.199999H11.5926L11.3639 0.882037L12.312 1.2ZM15.912 1.2L16.8637 0.892996L16.6402 0.199999H15.912V1.2ZM19.752 13.104L18.8003 13.411L19.7432 16.3339L20.702 13.4162L19.752 13.104ZM23.664 1.2V0.199999H22.94L22.714 0.887796L23.664 1.2ZM26.4336 0.889071L20.9376 17.6891L22.8384 18.3109L28.3344 1.51093L26.4336 0.889071ZM21.888 17H17.712V19H21.888V17ZM18.6631 17.691L14.9671 6.315L13.0649 6.93299L16.7609 18.309L18.6631 17.691ZM13.0679 6.30597L9.25192 17.682L11.1481 18.318L14.9641 6.94203L13.0679 6.30597ZM10.2 17H6.048V19H10.2V17ZM6.99803 17.6878L1.47803 0.887846L-0.422032 1.51215L5.09797 18.3122L6.99803 17.6878ZM0.528 2.2H4.56V0.199999H0.528V2.2ZM3.60789 1.50576L7.39989 13.3138L9.30411 12.7022L5.51211 0.89424L3.60789 1.50576ZM9.3001 13.326L13.2601 1.51796L11.3639 0.882037L7.4039 12.69L9.3001 13.326ZM12.312 2.2H15.912V0.199999H12.312V2.2ZM14.9603 1.507L18.8003 13.411L20.7037 12.797L16.8637 0.892996L14.9603 1.507ZM20.702 13.4162L24.614 1.5122L22.714 0.887796L18.802 12.7918L20.702 13.4162ZM23.664 2.2H27.384V0.199999H23.664V2.2ZM42.5625 14.88H43.5625V13.88H42.5625V14.88ZM42.5625 18V19H43.5625V18H42.5625ZM29.5545 18H28.5545V19H29.5545V18ZM29.5545 1.2V0.199999H28.5545V1.2H29.5545ZM42.2505 1.2H43.2505V0.199999H42.2505V1.2ZM42.2505 4.32V5.32H43.2505V4.32H42.2505ZM33.4185 4.32V3.32H32.4185V4.32H33.4185ZM33.4185 7.968H32.4185V8.968H33.4185V7.968ZM41.2185 7.968H42.2185V6.968H41.2185V7.968ZM41.2185 10.992V11.992H42.2185V10.992H41.2185ZM33.4185 10.992V9.992H32.4185V10.992H33.4185ZM33.4185 14.88H32.4185V15.88H33.4185V14.88ZM41.5625 14.88V18H43.5625V14.88H41.5625ZM42.5625 17H29.5545V19H42.5625V17ZM30.5545 18V1.2H28.5545V18H30.5545ZM29.5545 2.2H42.2505V0.199999H29.5545V2.2ZM41.2505 1.2V4.32H43.2505V1.2H41.2505ZM42.2505 3.32H33.4185V5.32H42.2505V3.32ZM32.4185 4.32V7.968H34.4185V4.32H32.4185ZM33.4185 8.968H41.2185V6.968H33.4185V8.968ZM40.2185 7.968V10.992H42.2185V7.968H40.2185ZM41.2185 9.992H33.4185V11.992H41.2185V9.992ZM32.4185 10.992V14.88H34.4185V10.992H32.4185ZM33.4185 15.88H42.5625V13.88H33.4185V15.88ZM54.3009 16.296L53.5938 17.0031L53.5981 17.0073L54.3009 16.296ZM52.3089 1.2V0.199999H51.3089V1.2H52.3089ZM56.1969 1.2H57.1969V0.199999H56.1969V1.2ZM62.7249 13.896L63.4724 14.5604L63.4795 14.5522L62.7249 13.896ZM63.6849 1.2V0.199999H62.6849V1.2H63.6849ZM67.5249 1.2H68.5249V0.199999H67.5249V1.2ZM65.5089 16.296L64.8061 15.5847L64.8018 15.5889L65.5089 16.296ZM59.9169 17.288C57.7055 17.288 56.1135 16.6812 55.0038 15.5847L53.5981 17.0073C55.1763 18.5668 57.3284 19.288 59.9169 19.288V17.288ZM55.008 15.5889C53.9207 14.5015 53.3089 12.8928 53.3089 10.608H51.3089C51.3089 13.2512 52.0252 15.4345 53.5938 17.0031L55.008 15.5889ZM53.3089 10.608V1.2H51.3089V10.608H53.3089ZM52.3089 2.2H56.1969V0.199999H52.3089V2.2ZM55.1969 1.2V10.464H57.1969V1.2H55.1969ZM55.1969 10.464C55.1969 12.0814 55.5286 13.4806 56.3634 14.4866C57.2278 15.5283 58.4846 15.976 59.9409 15.976V13.976C58.9013 13.976 58.2861 13.6717 57.9025 13.2094C57.4892 12.7114 57.1969 11.8546 57.1969 10.464H55.1969ZM59.9409 15.976C61.3622 15.976 62.595 15.5474 63.4723 14.5604L61.9775 13.2316C61.5749 13.6846 60.9517 13.976 59.9409 13.976V15.976ZM63.4795 14.5522C64.3482 13.5533 64.6849 12.1224 64.6849 10.464H62.6849C62.6849 11.9096 62.3817 12.7667 61.9703 13.2398L63.4795 14.5522ZM64.6849 10.464V1.2H62.6849V10.464H64.6849ZM63.6849 2.2H67.5249V0.199999H63.6849V2.2ZM66.5249 1.2V10.608H68.5249V1.2H66.5249ZM66.5249 10.608C66.5249 12.8895 65.9071 14.4968 64.8061 15.5847L66.2118 17.0073C67.7988 15.4392 68.5249 13.2545 68.5249 10.608H66.5249ZM64.8018 15.5889C63.7097 16.681 62.129 17.288 59.9169 17.288V19.288C62.5049 19.288 64.6521 18.567 66.216 17.0031L64.8018 15.5889ZM86.775 1.2H87.775V0.199999H86.775V1.2ZM86.775 18V19H87.775V18H86.775ZM83.583 18L82.8102 18.6346L83.1102 19H83.583V18ZM75.207 7.8L75.9798 7.16538L74.207 5.0065V7.8H75.207ZM75.207 18V19H76.207V18H75.207ZM71.367 18H70.367V19H71.367V18ZM71.367 1.2V0.199999H70.367V1.2H71.367ZM74.583 1.2L75.3567 0.566464L75.0566 0.199999H74.583V1.2ZM82.935 11.4L82.1613 12.0335L83.935 14.1997V11.4H82.935ZM82.935 1.2V0.199999H81.935V1.2H82.935ZM85.775 1.2V18H87.775V1.2H85.775ZM86.775 17H83.583V19H86.775V17ZM84.3558 17.3654L75.9798 7.16538L74.4342 8.43462L82.8102 18.6346L84.3558 17.3654ZM74.207 7.8V18H76.207V7.8H74.207ZM75.207 17H71.367V19H75.207V17ZM72.367 18V1.2H70.367V18H72.367ZM71.367 2.2H74.583V0.199999H71.367V2.2ZM73.8093 1.83353L82.1613 12.0335L83.7087 10.7665L75.3567 0.566464L73.8093 1.83353ZM83.935 11.4V1.2H81.935V11.4H83.935ZM82.935 2.2H86.775V0.199999H82.935V2.2ZM90.7498 1.2V0.199999H89.7498V1.2H90.7498ZM103.206 2.256L102.754 3.14845L102.767 3.15447L103.206 2.256ZM106.47 5.184L105.615 5.70328L105.62 5.71109L106.47 5.184ZM106.47 14.016L105.62 13.4889L105.615 13.4967L106.47 14.016ZM103.206 16.968L103.649 17.8645L103.653 17.8624L103.206 16.968ZM90.7498 18H89.7498V19H90.7498V18ZM102.198 13.416L102.881 14.1463L102.881 14.1459L102.198 13.416ZM102.198 5.808L101.508 6.53242L101.514 6.53811L101.521 6.5437L102.198 5.808ZM94.6378 4.392V3.392H93.6378V4.392H94.6378ZM94.6378 14.808H93.6378V15.808H94.6378V14.808ZM90.7498 2.2H98.3818V0.199999H90.7498V2.2ZM98.3818 2.2C100.076 2.2 101.524 2.52619 102.755 3.14837L103.657 1.36363C102.103 0.577806 100.336 0.199999 98.3818 0.199999V2.2ZM102.767 3.15447C104.014 3.76369 104.953 4.61275 105.615 5.70326L107.324 4.66474C106.451 3.22725 105.214 2.12431 103.645 1.35753L102.767 3.15447ZM105.62 5.71109C106.294 6.79702 106.646 8.08151 106.646 9.6H108.646C108.646 7.75849 108.214 6.09898 107.32 4.6569L105.62 5.71109ZM106.646 9.6C106.646 11.1185 106.294 12.403 105.62 13.4889L107.32 14.5431C108.214 13.101 108.646 11.4415 108.646 9.6H106.646ZM105.615 13.4967C104.951 14.5893 104.01 15.4481 102.759 16.0736L103.653 17.8624C105.218 17.0799 106.452 15.9707 107.324 14.5353L105.615 13.4967ZM102.763 16.0715C101.531 16.6805 100.079 17 98.3818 17V19C100.333 19 102.097 18.6315 103.649 17.8645L102.763 16.0715ZM98.3818 17H90.7498V19H98.3818V17ZM91.7498 18V1.2H89.7498V18H91.7498ZM98.1898 15.808C100.06 15.808 101.662 15.2863 102.881 14.1463L101.515 12.6857C100.749 13.4017 99.6791 13.808 98.1898 13.808V15.808ZM102.881 14.1459C104.124 12.9824 104.71 11.4286 104.71 9.6H102.71C102.71 10.9714 102.288 11.9616 101.514 12.6861L102.881 14.1459ZM104.71 9.6C104.71 7.77175 104.124 6.22181 102.875 5.0723L101.521 6.5437C102.288 7.25019 102.71 8.22825 102.71 9.6H104.71ZM102.887 5.08358C101.669 3.92444 100.065 3.392 98.1898 3.392V5.392C99.6746 5.392 100.743 5.80356 101.508 6.53242L102.887 5.08358ZM98.1898 3.392H94.6378V5.392H98.1898V3.392ZM93.6378 4.392V14.808H95.6378V4.392H93.6378ZM94.6378 15.808H98.1898V13.808H94.6378V15.808ZM123.586 14.88H124.586V13.88H123.586V14.88ZM123.586 18V19H124.586V18H123.586ZM110.578 18H109.578V19H110.578V18ZM110.578 1.2V0.199999H109.578V1.2H110.578ZM123.274 1.2H124.274V0.199999H123.274V1.2ZM123.274 4.32V5.32H124.274V4.32H123.274ZM114.442 4.32V3.32H113.442V4.32H114.442ZM114.442 7.968H113.442V8.968H114.442V7.968ZM122.242 7.968H123.242V6.968H122.242V7.968ZM122.242 10.992V11.992H123.242V10.992H122.242ZM114.442 10.992V9.992H113.442V10.992H114.442ZM114.442 14.88H113.442V15.88H114.442V14.88ZM122.586 14.88V18H124.586V14.88H122.586ZM123.586 17H110.578V19H123.586V17ZM111.578 18V1.2H109.578V18H111.578ZM110.578 2.2H123.274V0.199999H110.578V2.2ZM122.274 1.2V4.32H124.274V1.2H122.274ZM123.274 3.32H114.442V5.32H123.274V3.32ZM113.442 4.32V7.968H115.442V4.32H113.442ZM114.442 8.968H122.242V6.968H114.442V8.968ZM121.242 7.968V10.992H123.242V7.968H121.242ZM122.242 9.992H114.442V11.992H122.242V9.992ZM113.442 10.992V14.88H115.442V10.992H113.442ZM114.442 15.88H123.586V13.88H114.442V15.88ZM137.383 18L136.561 18.5692L136.86 19H137.383V18ZM134.143 13.32L134.966 12.7508L134.667 12.32H134.143V13.32ZM130.568 13.32V12.32H129.568V13.32H130.568ZM130.568 18V19H131.568V18H130.568ZM126.679 18H125.679V19H126.679V18ZM126.679 1.2V0.199999H125.679V1.2H126.679ZM137.816 1.944L137.401 2.85392L137.406 2.85617L137.816 1.944ZM140.335 10.536L139.503 9.98129L139.501 9.98474L140.335 10.536ZM137.792 12.6L137.393 11.6829L136.272 12.1701L136.971 13.1722L137.792 12.6ZM141.559 18V19H143.477L142.38 17.4278L141.559 18ZM136.4 5.136L135.755 5.90091L135.761 5.90593L135.767 5.91086L136.4 5.136ZM130.568 4.368V3.368H129.568V4.368H130.568ZM130.568 10.224H129.568V11.224H130.568V10.224ZM136.4 9.456L137.044 10.2209L136.4 9.456ZM138.206 17.4308L134.966 12.7508L133.321 13.8892L136.561 18.5692L138.206 17.4308ZM134.143 12.32H133.952V14.32H134.143V12.32ZM133.952 12.32H130.568V14.32H133.952V12.32ZM129.568 13.32V18H131.568V13.32H129.568ZM130.568 17H126.679V19H130.568V17ZM127.679 18V1.2H125.679V18H127.679ZM126.679 2.2H133.952V0.199999H126.679V2.2ZM133.952 2.2C135.33 2.2 136.471 2.42993 137.401 2.85391L138.23 1.03409C136.984 0.466067 135.549 0.199999 133.952 0.199999V2.2ZM137.406 2.85617C138.355 3.2826 139.045 3.86761 139.521 4.60047L141.198 3.51153C140.49 2.42039 139.484 1.5974 138.225 1.03183L137.406 2.85617ZM139.521 4.60047C139.993 5.32743 140.247 6.21195 140.247 7.296H142.247C142.247 5.88405 141.91 4.60857 141.198 3.51153L139.521 4.60047ZM140.247 7.296C140.247 8.37479 139.987 9.25557 139.503 9.9813L141.168 11.0907C141.9 9.99243 142.247 8.71321 142.247 7.296H140.247ZM139.501 9.98474C139.029 10.7001 138.341 11.2705 137.393 11.6829L138.19 13.5171C139.45 12.9695 140.459 12.1639 141.17 11.0873L139.501 9.98474ZM136.971 13.1722L140.739 18.5722L142.38 17.4278L138.612 12.0278L136.971 13.1722ZM141.559 17H137.383V19H141.559V17ZM138.311 7.296C138.311 6.11907 137.92 5.08596 137.032 4.36113L135.767 5.91086C136.095 6.17804 136.311 6.58493 136.311 7.296H138.311ZM137.044 4.37109C136.187 3.64999 135.032 3.368 133.736 3.368V5.368C134.775 5.368 135.396 5.59801 135.755 5.90091L137.044 4.37109ZM133.736 3.368H130.568V5.368H133.736V3.368ZM129.568 4.368V10.224H131.568V4.368H129.568ZM130.568 11.224H133.736V9.224H130.568V11.224ZM133.736 11.224C135.032 11.224 136.187 10.942 137.044 10.2209L135.755 8.69109C135.396 8.99399 134.775 9.224 133.736 9.224V11.224ZM137.044 10.2209C137.916 9.48619 138.311 8.4641 138.311 7.296H136.311C136.311 7.9839 136.099 8.40181 135.755 8.69109L137.044 10.2209ZM145.984 17.76L145.698 18.7182L145.705 18.7204L145.712 18.7225L145.984 17.76ZM143.008 16.344L142.096 15.933L141.77 16.6558L142.4 17.1379L143.008 16.344ZM144.328 13.416L144.919 12.6096L143.924 11.8795L143.416 13.005L144.328 13.416ZM146.896 14.688L147.203 13.7363L146.896 14.688ZM152.32 14.688L152.838 15.5432L152.848 15.5375L152.857 15.5317L152.32 14.688ZM152.632 12.384L151.965 13.1292L151.986 13.1476L152.007 13.1649L152.632 12.384ZM151.432 11.736L151.116 12.6847L151.125 12.6877L151.432 11.736ZM149.464 11.208L149.233 12.181L149.239 12.1824L149.464 11.208ZM146.32 10.296L146.669 9.35892L146.32 10.296ZM144.208 8.832L143.449 9.48285L143.458 9.49303L144.208 8.832ZM144.136 3.504L144.965 4.06262L144.971 4.05484L144.136 3.504ZM146.512 1.608L146.115 0.690263L146.11 0.69248L146.512 1.608ZM153.568 1.296L153.81 0.325857V0.325856L153.568 1.296ZM156.256 2.4L157.182 2.77658L157.499 1.99764L156.786 1.552L156.256 2.4ZM155.056 5.352L154.563 6.22189L155.553 6.78365L155.982 5.72858L155.056 5.352ZM147.976 4.56L147.421 3.72795L147.415 3.73191L147.409 3.73596L147.976 4.56ZM148.096 7.248L147.658 8.14723L147.673 8.15426L147.688 8.16082L148.096 7.248ZM150.856 8.064L151.087 7.09106L151.079 7.08923L151.072 7.08751L150.856 8.064ZM154 8.976L154.349 8.03892L154 8.976ZM156.088 10.416L155.336 11.0759L155.346 11.086L156.088 10.416ZM156.16 15.72L155.333 15.1577L155.331 15.1614L156.16 15.72ZM153.76 17.592L153.363 16.6743L153.76 17.592ZM149.848 17.288C148.609 17.288 147.413 17.124 146.255 16.7976L145.712 18.7225C147.051 19.1 148.43 19.288 149.848 19.288V17.288ZM146.27 16.8018C145.116 16.457 144.244 16.0311 143.616 15.5501L142.4 17.1379C143.276 17.8089 144.388 18.327 145.698 18.7182L146.27 16.8018ZM143.92 16.755L145.24 13.827L143.416 13.005L142.096 15.933L143.92 16.755ZM143.737 14.2224C144.556 14.8234 145.512 15.2922 146.589 15.6397L147.203 13.7363C146.296 13.4438 145.54 13.0646 144.919 12.6096L143.737 14.2224ZM146.589 15.6397C147.675 15.9901 148.771 16.168 149.872 16.168V14.168C148.989 14.168 148.101 14.0259 147.203 13.7363L146.589 15.6397ZM149.872 16.168C151.034 16.168 152.074 16.0064 152.838 15.5432L151.802 13.8328C151.51 14.0096 150.918 14.168 149.872 14.168V16.168ZM152.857 15.5317C153.622 15.0445 154.112 14.3102 154.112 13.368H152.112C152.112 13.5138 152.074 13.6595 151.783 13.8443L152.857 15.5317ZM154.112 13.368C154.112 12.6557 153.807 12.0435 153.257 11.6031L152.007 13.1649C152.097 13.2365 152.112 13.2803 152.112 13.368H154.112ZM153.299 11.6388C152.866 11.2515 152.332 10.9757 151.739 10.7843L151.125 12.6877C151.523 12.8163 151.79 12.9725 151.965 13.1292L153.299 11.6388ZM151.748 10.7873C151.225 10.6128 150.534 10.4286 149.689 10.2336L149.239 12.1824C150.058 12.3714 150.679 12.5392 151.116 12.6847L151.748 10.7873ZM149.695 10.2351C148.437 9.9363 147.432 9.64328 146.669 9.35892L145.971 11.2331C146.84 11.5567 147.931 11.8717 149.233 12.1809L149.695 10.2351ZM146.669 9.35892C146.012 9.11414 145.445 8.72295 144.958 8.17097L143.458 9.49303C144.155 10.285 144.996 10.8699 145.971 11.2331L146.669 9.35892ZM144.967 8.18121C144.584 7.73445 144.344 7.09045 144.344 6.144H142.344C142.344 7.43755 142.68 8.58555 143.449 9.48279L144.967 8.18121ZM144.344 6.144C144.344 5.36015 144.552 4.67591 144.965 4.0626L143.307 2.9454C142.664 3.90009 142.344 4.97585 142.344 6.144H144.344ZM144.971 4.05484C145.373 3.44557 145.998 2.92601 146.914 2.52352L146.11 0.69248C144.914 1.21799 143.955 1.96243 143.301 2.95316L144.971 4.05484ZM146.909 2.52572C147.823 2.1302 148.984 1.912 150.424 1.912V-0.0880003C148.792 -0.0880003 147.345 0.157802 146.115 0.690277L146.909 2.52572ZM150.424 1.912C151.415 1.912 152.382 2.03028 153.325 2.26614L153.81 0.325856C152.706 0.0497174 151.576 -0.0880003 150.424 -0.0880003V1.912ZM153.325 2.26614C154.264 2.50084 155.06 2.83183 155.726 3.248L156.786 1.552C155.916 1.00817 154.92 0.603158 153.81 0.325857L153.325 2.26614ZM155.33 2.02342L154.13 4.97542L155.982 5.72858L157.182 2.77658L155.33 2.02342ZM155.549 4.48211C153.87 3.52974 152.149 3.032 150.4 3.032V5.032C151.755 5.032 153.138 5.41426 154.563 6.22189L155.549 4.48211ZM150.4 3.032C149.24 3.032 148.193 3.21311 147.421 3.72795L148.531 5.39205C148.814 5.20289 149.384 5.032 150.4 5.032V3.032ZM147.409 3.73596C146.651 4.2572 146.208 5.01727 146.208 5.952H148.208C148.208 5.73472 148.277 5.5668 148.542 5.38404L147.409 3.73596ZM146.208 5.952C146.208 6.4207 146.332 6.87423 146.605 7.27323C146.873 7.6646 147.246 7.94659 147.658 8.14723L148.533 6.34876C148.354 6.26141 148.283 6.1834 148.255 6.14277C148.232 6.10977 148.208 6.0593 148.208 5.952H146.208ZM147.688 8.16082C148.39 8.47511 149.39 8.76437 150.64 9.04048L151.072 7.08751C149.858 6.81963 149.018 6.56489 148.504 6.33518L147.688 8.16082ZM150.625 9.03694C151.883 9.3357 152.888 9.62872 153.651 9.91308L154.349 8.03892C153.48 7.71528 152.389 7.4003 151.087 7.09106L150.625 9.03694ZM153.651 9.91308C154.311 10.1592 154.869 10.5437 155.337 11.0758L156.839 9.7562C156.155 8.97625 155.32 8.40081 154.349 8.03892L153.651 9.91308ZM155.346 11.086C155.731 11.513 155.976 12.139 155.976 13.08H157.976C157.976 11.781 157.629 10.631 156.83 9.74603L155.346 11.086ZM155.976 13.08C155.976 13.8378 155.765 14.5222 155.333 15.1577L156.987 16.2823C157.643 15.3178 157.976 14.2422 157.976 13.08H155.976ZM155.331 15.1614C154.932 15.7532 154.301 16.2683 153.363 16.6743L154.157 18.5097C155.363 17.9877 156.332 17.2548 156.989 16.2786L155.331 15.1614ZM153.363 16.6743C152.449 17.0698 151.288 17.288 149.848 17.288V19.288C151.48 19.288 152.927 19.0422 154.157 18.5097L153.363 16.6743ZM162.878 4.368H163.878V3.368H162.878V4.368ZM157.502 4.368H156.502V5.368H157.502V4.368ZM157.502 1.2V0.199999H156.502V1.2H157.502ZM172.142 1.2H173.142V0.199999H172.142V1.2ZM172.142 4.368V5.368H173.142V4.368H172.142ZM166.766 4.368V3.368H165.766V4.368H166.766ZM166.766 18V19H167.766V18H166.766ZM162.878 18H161.878V19H162.878V18ZM162.878 3.368H157.502V5.368H162.878V3.368ZM158.502 4.368V1.2H156.502V4.368H158.502ZM157.502 2.2H172.142V0.199999H157.502V2.2ZM171.142 1.2V4.368H173.142V1.2H171.142ZM172.142 3.368H166.766V5.368H172.142V3.368ZM165.766 4.368V18H167.766V4.368H165.766ZM166.766 17H162.878V19H166.766V17ZM163.878 18V4.368H161.878V18H163.878ZM184.454 14.4L185.379 14.018L185.123 13.4H184.454V14.4ZM176.654 14.4V13.4H175.986L175.73 14.018L176.654 14.4ZM175.166 18V19H175.835L176.091 18.382L175.166 18ZM171.182 18L170.269 17.5929L169.642 19H171.182V18ZM178.67 1.2V0.199999H178.021L177.757 0.792892L178.67 1.2ZM182.51 1.2L183.423 0.791804L183.159 0.199999H182.51V1.2ZM190.022 18V19H191.565L190.935 17.5918L190.022 18ZM185.942 18L185.018 18.382L185.274 19H185.942V18ZM183.23 11.448V12.448H184.727L184.154 11.0653L183.23 11.448ZM180.566 5.016L181.49 4.63334L180.566 2.40269L179.643 4.63334L180.566 5.016ZM177.902 11.448L176.979 11.0653L176.406 12.448H177.902V11.448ZM184.454 13.4H176.654V15.4H184.454V13.4ZM175.73 14.018L174.242 17.618L176.091 18.382L177.579 14.782L175.73 14.018ZM175.166 17H171.182V19H175.166V17ZM172.096 18.4071L179.584 1.60711L177.757 0.792892L170.269 17.5929L172.096 18.4071ZM178.67 2.2H182.51V0.199999H178.67V2.2ZM181.598 1.60819L189.11 18.4082L190.935 17.5918L183.423 0.791804L181.598 1.60819ZM190.022 17H185.942V19H190.022V17ZM186.867 17.618L185.379 14.018L183.53 14.782L185.018 18.382L186.867 17.618ZM184.154 11.0653L181.49 4.63334L179.643 5.39866L182.307 11.8307L184.154 11.0653ZM179.643 4.63334L176.979 11.0653L178.826 11.8307L181.49 5.39866L179.643 4.63334ZM177.902 12.448H183.23V10.448H177.902V12.448ZM207.173 1.2H208.173V0.199999H207.173V1.2ZM207.173 18V19H208.173V18H207.173ZM203.981 18L203.209 18.6346L203.509 19H203.981V18ZM195.605 7.8L196.378 7.16538L194.605 5.0065V7.8H195.605ZM195.605 18V19H196.605V18H195.605ZM191.765 18H190.765V19H191.765V18ZM191.765 1.2V0.199999H190.765V1.2H191.765ZM194.981 1.2L195.755 0.566464L195.455 0.199999H194.981V1.2ZM203.333 11.4L202.56 12.0335L204.333 14.1997V11.4H203.333ZM203.333 1.2V0.199999H202.333V1.2H203.333ZM206.173 1.2V18H208.173V1.2H206.173ZM207.173 17H203.981V19H207.173V17ZM204.754 17.3654L196.378 7.16538L194.833 8.43462L203.209 18.6346L204.754 17.3654ZM194.605 7.8V18H196.605V7.8H194.605ZM195.605 17H191.765V19H195.605V17ZM192.765 18V1.2H190.765V18H192.765ZM191.765 2.2H194.981V0.199999H191.765V2.2ZM194.208 1.83353L202.56 12.0335L204.107 10.7665L195.755 0.566464L194.208 1.83353ZM204.333 11.4V1.2H202.333V11.4H204.333ZM203.333 2.2H207.173V0.199999H203.333V2.2ZM211.148 1.2V0.199999H210.148V1.2H211.148ZM223.604 2.256L223.153 3.14845L223.165 3.15447L223.604 2.256ZM226.868 5.184L226.014 5.70328L226.018 5.71109L226.868 5.184ZM226.868 14.016L226.018 13.4889L226.014 13.4967L226.868 14.016ZM223.604 16.968L224.047 17.8645L224.051 17.8624L223.604 16.968ZM211.148 18H210.148V19H211.148V18ZM222.596 13.416L223.279 14.1463L223.28 14.1459L222.596 13.416ZM222.596 5.808L221.907 6.53242L221.913 6.53811L221.919 6.5437L222.596 5.808ZM215.036 4.392V3.392H214.036V4.392H215.036ZM215.036 14.808H214.036V15.808H215.036V14.808ZM211.148 2.2H218.78V0.199999H211.148V2.2ZM218.78 2.2C220.474 2.2 221.923 2.52619 223.153 3.14837L224.056 1.36363C222.502 0.577806 220.735 0.199999 218.78 0.199999V2.2ZM223.165 3.15447C224.412 3.76369 225.351 4.61275 226.014 5.70326L227.723 4.66474C226.849 3.22725 225.613 2.12431 224.043 1.35753L223.165 3.15447ZM226.018 5.71109C226.692 6.79702 227.044 8.08151 227.044 9.6H229.044C229.044 7.75849 228.613 6.09898 227.718 4.6569L226.018 5.71109ZM227.044 9.6C227.044 11.1185 226.692 12.403 226.018 13.4889L227.718 14.5431C228.613 13.101 229.044 11.4415 229.044 9.6H227.044ZM226.014 13.4967C225.35 14.5893 224.408 15.4481 223.157 16.0736L224.051 17.8624C225.617 17.0799 226.851 15.9707 227.723 14.5353L226.014 13.4967ZM223.161 16.0715C221.929 16.6805 220.477 17 218.78 17V19C220.731 19 222.495 18.6315 224.047 17.8645L223.161 16.0715ZM218.78 17H211.148V19H218.78V17ZM212.148 18V1.2H210.148V18H212.148ZM218.588 15.808C220.459 15.808 222.061 15.2863 223.279 14.1463L221.913 12.6857C221.148 13.4017 220.078 13.808 218.588 13.808V15.808ZM223.28 14.1459C224.522 12.9824 225.108 11.4286 225.108 9.6H223.108C223.108 10.9714 222.686 11.9616 221.913 12.6861L223.28 14.1459ZM225.108 9.6C225.108 7.77175 224.522 6.22181 223.274 5.0723L221.919 6.5437C222.686 7.25019 223.108 8.22825 223.108 9.6H225.108ZM223.286 5.08358C222.068 3.92444 220.463 3.392 218.588 3.392V5.392C220.073 5.392 221.141 5.80356 221.907 6.53242L223.286 5.08358ZM218.588 3.392H215.036V5.392H218.588V3.392ZM214.036 4.392V14.808H216.036V4.392H214.036ZM215.036 15.808H218.588V13.808H215.036V15.808Z" fill="#333333"/>
</svg>
